<?xml version="1.0" encoding="UTF-8" standalone="no"?>
<!DOCTYPE svg PUBLIC "-//W3C//DTD SVG 1.1//EN"
 "http://www.w3.org/Graphics/SVG/1.1/DTD/svg11.dtd">
<!-- Generated by graphviz version 2.40.1 (20161225.0304)
 -->
<!-- Title: %3 Pages: 1 -->
<svg width="957pt" height="548pt"
 viewBox="0.00 0.00 957.17 548.00" xmlns="http://www.w3.org/2000/svg" xmlns:xlink="http://www.w3.org/1999/xlink">
<g id="graph0" class="graph" transform="scale(1 1) rotate(0) translate(4 544)">
<title>%3</title>
<polygon fill="#ffffff" stroke="transparent" points="-4,4 -4,-544 953.1713,-544 953.1713,4 -4,4"/>
<!-- inputnode (utility) -->
<g id="node1" class="node">
<title>inputnode (utility)</title>
<ellipse fill="none" stroke="#000000" cx="599.5752" cy="-522" rx="94.7833" ry="18"/>
<text text-anchor="middle" x="599.5752" y="-518.3" font-family="Times,serif" font-size="14.00" fill="#000000">inputnode (utility)</text>
</g>
<!-- recon_config (freesurfer) -->
<g id="node2" class="node">
<title>recon_config (freesurfer)</title>
<ellipse fill="none" stroke="#000000" cx="522.5752" cy="-450" rx="127.2775" ry="18"/>
<text text-anchor="middle" x="522.5752" y="-446.3" font-family="Times,serif" font-size="14.00" fill="#000000">recon_config (freesurfer)</text>
</g>
<!-- inputnode (utility)&#45;&gt;recon_config (freesurfer) -->
<g id="edge1" class="edge">
<title>inputnode (utility)&#45;&gt;recon_config (freesurfer)</title>
<path fill="none" stroke="#000000" d="M580.5415,-504.2022C571.1015,-495.3752 559.5425,-484.5669 549.2372,-474.9307"/>
<polygon fill="#000000" stroke="#000000" points="551.3516,-472.116 541.6568,-467.8425 546.5706,-477.229 551.3516,-472.116"/>
</g>
<!-- autorecon1 (freesurfer) -->
<g id="node3" class="node">
<title>autorecon1 (freesurfer)</title>
<ellipse fill="none" stroke="#000000" cx="269.5752" cy="-378" rx="120.4791" ry="18"/>
<text text-anchor="middle" x="269.5752" y="-374.3" font-family="Times,serif" font-size="14.00" fill="#000000">autorecon1 (freesurfer)</text>
</g>
<!-- inputnode (utility)&#45;&gt;autorecon1 (freesurfer) -->
<g id="edge2" class="edge">
<title>inputnode (utility)&#45;&gt;autorecon1 (freesurfer)</title>
<path fill="none" stroke="#000000" d="M508.7054,-516.6403C391.493,-508.7834 200.0243,-492.376 178.5752,-468 168.0056,-455.9881 170.6582,-445.904 178.5752,-432 186.4048,-418.2496 199.2672,-407.639 212.8894,-399.6121"/>
<polygon fill="#000000" stroke="#000000" points="214.7966,-402.5589 221.9057,-394.7033 211.4494,-396.411 214.7966,-402.5589"/>
</g>
<!-- fov_check (utility) -->
<g id="node4" class="node">
<title>fov_check (utility)</title>
<ellipse fill="none" stroke="#000000" cx="282.5752" cy="-450" rx="94.7833" ry="18"/>
<text text-anchor="middle" x="282.5752" y="-446.3" font-family="Times,serif" font-size="14.00" fill="#000000">fov_check (utility)</text>
</g>
<!-- inputnode (utility)&#45;&gt;fov_check (utility) -->
<g id="edge3" class="edge">
<title>inputnode (utility)&#45;&gt;fov_check (utility)</title>
<path fill="none" stroke="#000000" d="M538.4544,-508.1177C485.5003,-496.0903 408.8698,-478.6852 353.2835,-466.0599"/>
<polygon fill="#000000" stroke="#000000" points="354.0352,-462.6416 343.5083,-463.8397 352.4847,-469.4677 354.0352,-462.6416"/>
</g>
<!-- skull_strip_extern (freesurfer) -->
<g id="node5" class="node">
<title>skull_strip_extern (freesurfer)</title>
<ellipse fill="none" stroke="#000000" cx="596.5752" cy="-306" rx="151.3732" ry="18"/>
<text text-anchor="middle" x="596.5752" y="-302.3" font-family="Times,serif" font-size="14.00" fill="#000000">skull_strip_extern (freesurfer)</text>
</g>
<!-- inputnode (utility)&#45;&gt;skull_strip_extern (freesurfer) -->
<g id="edge4" class="edge">
<title>inputnode (utility)&#45;&gt;skull_strip_extern (freesurfer)</title>
<path fill="none" stroke="#000000" d="M627.0777,-504.6784C639.1413,-495.4256 652.0277,-482.8684 658.5752,-468 665.0234,-453.3569 662.2016,-447.5836 658.5752,-432 650.0986,-395.574 629.5182,-357.5596 614.3836,-332.9401"/>
<polygon fill="#000000" stroke="#000000" points="617.1704,-330.7966 608.8864,-324.1915 611.2433,-334.5209 617.1704,-330.7966"/>
</g>
<!-- fsnative2t1w_xfm (freesurfer) -->
<g id="node6" class="node">
<title>fsnative2t1w_xfm (freesurfer)</title>
<ellipse fill="none" stroke="#000000" cx="161.5752" cy="-234" rx="150.2735" ry="18"/>
<text text-anchor="middle" x="161.5752" y="-230.3" font-family="Times,serif" font-size="14.00" fill="#000000">fsnative2t1w_xfm (freesurfer)</text>
</g>
<!-- inputnode (utility)&#45;&gt;fsnative2t1w_xfm (freesurfer) -->
<g id="edge5" class="edge">
<title>inputnode (utility)&#45;&gt;fsnative2t1w_xfm (freesurfer)</title>
<path fill="none" stroke="#000000" d="M510.303,-515.7623C391.6822,-506.7298 193.921,-488.7951 167.5752,-468 106.3973,-419.7115 133.517,-312.4422 150.971,-261.6672"/>
<polygon fill="#000000" stroke="#000000" points="154.3506,-262.6099 154.4088,-252.0152 147.7564,-260.2612 154.3506,-262.6099"/>
</g>
<!-- refine (freesurfer) -->
<g id="node7" class="node">
<title>refine (freesurfer)</title>
<ellipse fill="none" stroke="#000000" cx="813.5752" cy="-90" rx="94.7833" ry="18"/>
<text text-anchor="middle" x="813.5752" y="-86.3" font-family="Times,serif" font-size="14.00" fill="#000000">refine (freesurfer)</text>
</g>
<!-- inputnode (utility)&#45;&gt;refine (freesurfer) -->
<g id="edge6" class="edge">
<title>inputnode (utility)&#45;&gt;refine (freesurfer)</title>
<path fill="none" stroke="#000000" d="M665.0313,-508.8712C765.8384,-486.7494 947.5752,-438.481 947.5752,-378 947.5752,-378 947.5752,-378 947.5752,-234 947.5752,-193.1184 953.9597,-176.0458 928.5752,-144 915.9217,-128.026 897.4228,-116.5486 878.9459,-108.4027"/>
<polygon fill="#000000" stroke="#000000" points="880.1902,-105.13 869.6111,-104.5537 877.5218,-111.6014 880.1902,-105.13"/>
</g>
<!-- segs_to_native_aseg -->
<g id="node8" class="node">
<title>segs_to_native_aseg</title>
<ellipse fill="none" stroke="#000000" cx="813.5752" cy="-162" rx="105.8812" ry="18"/>
<text text-anchor="middle" x="813.5752" y="-158.3" font-family="Times,serif" font-size="14.00" fill="#000000">segs_to_native_aseg</text>
</g>
<!-- inputnode (utility)&#45;&gt;segs_to_native_aseg -->
<g id="edge7" class="edge">
<title>inputnode (utility)&#45;&gt;segs_to_native_aseg</title>
<path fill="none" stroke="#000000" d="M661.7603,-508.2764C724.9444,-490.234 813.5752,-451.7765 813.5752,-378 813.5752,-378 813.5752,-378 813.5752,-306 813.5752,-265.876 813.5752,-219.4631 813.5752,-190.4177"/>
<polygon fill="#000000" stroke="#000000" points="817.0753,-190.1853 813.5752,-180.1854 810.0753,-190.1854 817.0753,-190.1853"/>
</g>
<!-- segs_to_native_aparc_aseg -->
<g id="node9" class="node">
<title>segs_to_native_aparc_aseg</title>
<ellipse fill="none" stroke="#000000" cx="552.5752" cy="-162" rx="137.2758" ry="18"/>
<text text-anchor="middle" x="552.5752" y="-158.3" font-family="Times,serif" font-size="14.00" fill="#000000">segs_to_native_aparc_aseg</text>
</g>
<!-- inputnode (utility)&#45;&gt;segs_to_native_aparc_aseg -->
<g id="edge8" class="edge">
<title>inputnode (utility)&#45;&gt;segs_to_native_aparc_aseg</title>
<path fill="none" stroke="#000000" d="M647.2033,-506.3463C699.3265,-485.8602 775.5752,-444.5232 775.5752,-378 775.5752,-378 775.5752,-378 775.5752,-306 775.5752,-236.8499 698.9659,-199.291 635.5521,-180.0464"/>
<polygon fill="#000000" stroke="#000000" points="636.483,-176.6721 625.9026,-177.2257 634.5189,-183.3909 636.483,-176.6721"/>
</g>
<!-- recon_config (freesurfer)&#45;&gt;autorecon1 (freesurfer) -->
<g id="edge9" class="edge">
<title>recon_config (freesurfer)&#45;&gt;autorecon1 (freesurfer)</title>
<path fill="none" stroke="#000000" d="M465.7971,-433.8418C427.1692,-422.8489 375.9278,-408.2664 335.4954,-396.7599"/>
<polygon fill="#000000" stroke="#000000" points="336.3039,-393.3511 325.7278,-393.9802 334.3878,-400.0838 336.3039,-393.3511"/>
</g>
<!-- autorecon_resume_wf -->
<g id="node10" class="node">
<title>autorecon_resume_wf</title>
<ellipse fill="none" stroke="#000000" cx="497.5752" cy="-234" rx="113.18" ry="18"/>
<text text-anchor="middle" x="497.5752" y="-230.3" font-family="Times,serif" font-size="14.00" fill="#000000">autorecon_resume_wf</text>
</g>
<!-- recon_config (freesurfer)&#45;&gt;autorecon_resume_wf -->
<g id="edge10" class="edge">
<title>recon_config (freesurfer)&#45;&gt;autorecon_resume_wf</title>
<path fill="none" stroke="#000000" d="M504.8467,-431.8638C483.8189,-408.9551 449.9354,-367.2733 436.5752,-324 431.8552,-308.712 430.0058,-302.5892 436.5752,-288 441.7926,-276.4133 450.8611,-266.3083 460.435,-258.0721"/>
<polygon fill="#000000" stroke="#000000" points="462.9004,-260.5819 468.5225,-251.6017 458.5274,-255.1159 462.9004,-260.5819"/>
</g>
<!-- autorecon1 (freesurfer)&#45;&gt;skull_strip_extern (freesurfer) -->
<g id="edge11" class="edge">
<title>autorecon1 (freesurfer)&#45;&gt;skull_strip_extern (freesurfer)</title>
<path fill="none" stroke="#000000" d="M337.3298,-363.0816C388.7538,-351.7588 459.6885,-336.1402 514.3601,-324.1024"/>
<polygon fill="#000000" stroke="#000000" points="515.3574,-327.4667 524.3709,-321.8982 513.8521,-320.6305 515.3574,-327.4667"/>
</g>
<!-- autorecon1 (freesurfer)&#45;&gt;fsnative2t1w_xfm (freesurfer) -->
<g id="edge12" class="edge">
<title>autorecon1 (freesurfer)&#45;&gt;fsnative2t1w_xfm (freesurfer)</title>
<path fill="none" stroke="#000000" d="M256.1153,-360.0535C237.279,-334.9384 202.9339,-289.1449 181.2341,-260.2119"/>
<polygon fill="#000000" stroke="#000000" points="184.0048,-258.0727 175.2047,-252.1727 178.4048,-262.2727 184.0048,-258.0727"/>
</g>
<!-- fov_check (utility)&#45;&gt;autorecon1 (freesurfer) -->
<g id="edge13" class="edge">
<title>fov_check (utility)&#45;&gt;autorecon1 (freesurfer)</title>
<path fill="none" stroke="#000000" d="M279.2947,-431.8314C277.9044,-424.131 276.2511,-414.9743 274.706,-406.4166"/>
<polygon fill="#000000" stroke="#000000" points="278.121,-405.6322 272.8998,-396.4133 271.2324,-406.8761 278.121,-405.6322"/>
</g>
<!-- skull_strip_extern (freesurfer)&#45;&gt;autorecon_resume_wf -->
<g id="edge14" class="edge">
<title>skull_strip_extern (freesurfer)&#45;&gt;autorecon_resume_wf</title>
<path fill="none" stroke="#000000" d="M572.1033,-288.2022C559.3953,-278.9601 543.7008,-267.5459 529.9966,-257.5792"/>
<polygon fill="#000000" stroke="#000000" points="531.9116,-254.6442 521.7656,-251.593 527.7944,-260.3054 531.9116,-254.6442"/>
</g>
<!-- gifti_surface_wf -->
<g id="node11" class="node">
<title>gifti_surface_wf</title>
<ellipse fill="none" stroke="#000000" cx="274.5752" cy="-162" rx="85.2851" ry="18"/>
<text text-anchor="middle" x="274.5752" y="-158.3" font-family="Times,serif" font-size="14.00" fill="#000000">gifti_surface_wf</text>
</g>
<!-- fsnative2t1w_xfm (freesurfer)&#45;&gt;gifti_surface_wf -->
<g id="edge15" class="edge">
<title>fsnative2t1w_xfm (freesurfer)&#45;&gt;gifti_surface_wf</title>
<path fill="none" stroke="#000000" d="M189.5078,-216.2022C204.5071,-206.6452 223.1516,-194.7655 239.1598,-184.5656"/>
<polygon fill="#000000" stroke="#000000" points="241.1893,-187.4226 247.742,-179.0972 237.4277,-181.5191 241.1893,-187.4226"/>
</g>
<!-- outputnode (utility) -->
<g id="node12" class="node">
<title>outputnode (utility)</title>
<ellipse fill="none" stroke="#000000" cx="387.5752" cy="-18" rx="101.2821" ry="18"/>
<text text-anchor="middle" x="387.5752" y="-14.3" font-family="Times,serif" font-size="14.00" fill="#000000">outputnode (utility)</text>
</g>
<!-- fsnative2t1w_xfm (freesurfer)&#45;&gt;outputnode (utility) -->
<g id="edge17" class="edge">
<title>fsnative2t1w_xfm (freesurfer)&#45;&gt;outputnode (utility)</title>
<path fill="none" stroke="#000000" d="M123.8076,-216.3363C65.7807,-186.8966 -33.963,-125.7197 12.5752,-72 30.2552,-51.5918 179.5362,-35.1474 284.3218,-25.9782"/>
<polygon fill="#000000" stroke="#000000" points="284.6563,-29.4625 294.3175,-25.1137 284.0531,-22.4885 284.6563,-29.4625"/>
</g>
<!-- t1w2fsnative_xfm (freesurfer) -->
<g id="node13" class="node">
<title>t1w2fsnative_xfm (freesurfer)</title>
<ellipse fill="none" stroke="#000000" cx="171.5752" cy="-90" rx="150.2735" ry="18"/>
<text text-anchor="middle" x="171.5752" y="-86.3" font-family="Times,serif" font-size="14.00" fill="#000000">t1w2fsnative_xfm (freesurfer)</text>
</g>
<!-- fsnative2t1w_xfm (freesurfer)&#45;&gt;t1w2fsnative_xfm (freesurfer) -->
<g id="edge16" class="edge">
<title>fsnative2t1w_xfm (freesurfer)&#45;&gt;t1w2fsnative_xfm (freesurfer)</title>
<path fill="none" stroke="#000000" d="M162.8417,-215.7623C164.5473,-191.201 167.5997,-147.2474 169.6062,-118.3541"/>
<polygon fill="#000000" stroke="#000000" points="173.1177,-118.3081 170.319,-108.0896 166.1345,-117.8231 173.1177,-118.3081"/>
</g>
<!-- refine (freesurfer)&#45;&gt;outputnode (utility) -->
<g id="edge18" class="edge">
<title>refine (freesurfer)&#45;&gt;outputnode (utility)</title>
<path fill="none" stroke="#000000" d="M742.2724,-77.9488C667.542,-65.3183 550.2235,-45.4899 471.1818,-32.1307"/>
<polygon fill="#000000" stroke="#000000" points="471.6998,-28.6687 461.2563,-30.4532 470.5332,-35.5708 471.6998,-28.6687"/>
</g>
<!-- segs_to_native_aseg&#45;&gt;refine (freesurfer) -->
<g id="edge19" class="edge">
<title>segs_to_native_aseg&#45;&gt;refine (freesurfer)</title>
<path fill="none" stroke="#000000" d="M813.5752,-143.8314C813.5752,-136.131 813.5752,-126.9743 813.5752,-118.4166"/>
<polygon fill="#000000" stroke="#000000" points="817.0753,-118.4132 813.5752,-108.4133 810.0753,-118.4133 817.0753,-118.4132"/>
</g>
<!-- segs_to_native_aseg&#45;&gt;outputnode (utility) -->
<g id="edge20" class="edge">
<title>segs_to_native_aseg&#45;&gt;outputnode (utility)</title>
<path fill="none" stroke="#000000" d="M765.9476,-145.9005C687.0036,-119.2152 529.3606,-65.9275 444.6109,-37.2797"/>
<polygon fill="#000000" stroke="#000000" points="445.4906,-33.8826 434.8964,-33.9959 443.249,-40.5139 445.4906,-33.8826"/>
</g>
<!-- segs_to_native_aparc_aseg&#45;&gt;outputnode (utility) -->
<g id="edge21" class="edge">
<title>segs_to_native_aparc_aseg&#45;&gt;outputnode (utility)</title>
<path fill="none" stroke="#000000" d="M532.0114,-144.0535C502.704,-118.476 448.822,-71.4517 415.7985,-42.6313"/>
<polygon fill="#000000" stroke="#000000" points="417.7154,-39.6587 407.8798,-35.7204 413.1127,-44.9327 417.7154,-39.6587"/>
</g>
<!-- autorecon_resume_wf&#45;&gt;segs_to_native_aseg -->
<g id="edge23" class="edge">
<title>autorecon_resume_wf&#45;&gt;segs_to_native_aseg</title>
<path fill="none" stroke="#000000" d="M562.6674,-219.1689C614.3739,-207.3876 686.6694,-190.9152 740.382,-178.6769"/>
<polygon fill="#000000" stroke="#000000" points="741.2134,-182.0773 750.1859,-176.4431 739.6582,-175.2522 741.2134,-182.0773"/>
</g>
<!-- autorecon_resume_wf&#45;&gt;segs_to_native_aparc_aseg -->
<g id="edge24" class="edge">
<title>autorecon_resume_wf&#45;&gt;segs_to_native_aparc_aseg</title>
<path fill="none" stroke="#000000" d="M511.454,-215.8314C517.8862,-207.411 525.6485,-197.2495 532.6883,-188.0338"/>
<polygon fill="#000000" stroke="#000000" points="535.6022,-189.9848 538.8913,-179.9134 530.0395,-185.7355 535.6022,-189.9848"/>
</g>
<!-- autorecon_resume_wf&#45;&gt;gifti_surface_wf -->
<g id="edge22" class="edge">
<title>autorecon_resume_wf&#45;&gt;gifti_surface_wf</title>
<path fill="none" stroke="#000000" d="M447.5296,-217.8418C413.0205,-206.6998 367.0898,-191.8702 331.2342,-180.2935"/>
<polygon fill="#000000" stroke="#000000" points="331.9978,-176.8622 321.4061,-177.1203 329.847,-183.5236 331.9978,-176.8622"/>
</g>
<!-- autorecon_resume_wf&#45;&gt;outputnode (utility) -->
<g id="edge25" class="edge">
<title>autorecon_resume_wf&#45;&gt;outputnode (utility)</title>
<path fill="none" stroke="#000000" d="M452.3334,-217.4073C435.2663,-208.85 417.3817,-196.6392 406.5752,-180 380.2014,-139.3911 380.5832,-80.7547 383.7448,-46.2913"/>
<polygon fill="#000000" stroke="#000000" points="387.2615,-46.3189 384.8386,-36.0048 380.3008,-45.5787 387.2615,-46.3189"/>
</g>
<!-- gifti_surface_wf&#45;&gt;outputnode (utility) -->
<g id="edge26" class="edge">
<title>gifti_surface_wf&#45;&gt;outputnode (utility)</title>
<path fill="none" stroke="#000000" d="M295.1782,-144.3293C306.3047,-134.2653 319.9062,-121.084 330.5752,-108 346.7732,-88.1354 362.1381,-63.4027 372.8248,-44.8942"/>
<polygon fill="#000000" stroke="#000000" points="375.9248,-46.5232 377.8223,-36.0997 369.8387,-43.0648 375.9248,-46.5232"/>
</g>
<!-- t1w2fsnative_xfm (freesurfer)&#45;&gt;outputnode (utility) -->
<g id="edge27" class="edge">
<title>t1w2fsnative_xfm (freesurfer)&#45;&gt;outputnode (utility)</title>
<path fill="none" stroke="#000000" d="M222.4907,-73.0282C254.73,-62.2817 296.4932,-48.3607 329.947,-37.2094"/>
<polygon fill="#000000" stroke="#000000" points="331.2138,-40.4765 339.5938,-33.9938 329.0001,-33.8358 331.2138,-40.4765"/>
</g>
</g>
</svg>
