<?xml version="1.0" encoding="UTF-8" standalone="no"?>
<!DOCTYPE svg PUBLIC "-//W3C//DTD SVG 1.1//EN"
 "http://www.w3.org/Graphics/SVG/1.1/DTD/svg11.dtd">
<!-- Generated by graphviz version 2.40.1 (20161225.0304)
 -->
<!-- Title: %3 Pages: 1 -->
<svg width="623pt" height="764pt"
 viewBox="0.00 0.00 623.43 764.00" xmlns="http://www.w3.org/2000/svg" xmlns:xlink="http://www.w3.org/1999/xlink">
<g id="graph0" class="graph" transform="scale(1 1) rotate(0) translate(4 760)">
<title>%3</title>
<polygon fill="#ffffff" stroke="transparent" points="-4,4 -4,-760 619.4331,-760 619.4331,4 -4,4"/>
<!-- buffernode (utility) -->
<g id="node1" class="node">
<title>buffernode (utility)</title>
<ellipse fill="none" stroke="#000000" cx="304.4423" cy="-306" rx="98.5829" ry="18"/>
<text text-anchor="middle" x="304.4423" y="-302.3" font-family="Times,serif" font-size="14.00" fill="#000000">buffernode (utility)</text>
</g>
<!-- t1w_dseg (fsl) -->
<g id="node2" class="node">
<title>t1w_dseg (fsl)</title>
<ellipse fill="none" stroke="#000000" cx="304.4423" cy="-234" rx="76.0865" ry="18"/>
<text text-anchor="middle" x="304.4423" y="-230.3" font-family="Times,serif" font-size="14.00" fill="#000000">t1w_dseg (fsl)</text>
</g>
<!-- buffernode (utility)&#45;&gt;t1w_dseg (fsl) -->
<g id="edge1" class="edge">
<title>buffernode (utility)&#45;&gt;t1w_dseg (fsl)</title>
<path fill="none" stroke="#000000" d="M304.4423,-287.8314C304.4423,-280.131 304.4423,-270.9743 304.4423,-262.4166"/>
<polygon fill="#000000" stroke="#000000" points="307.9424,-262.4132 304.4423,-252.4133 300.9424,-262.4133 307.9424,-262.4132"/>
</g>
<!-- outputnode (utility) -->
<g id="node3" class="node">
<title>outputnode (utility)</title>
<ellipse fill="none" stroke="#000000" cx="236.4423" cy="-90" rx="101.2821" ry="18"/>
<text text-anchor="middle" x="236.4423" y="-86.3" font-family="Times,serif" font-size="14.00" fill="#000000">outputnode (utility)</text>
</g>
<!-- buffernode (utility)&#45;&gt;outputnode (utility) -->
<g id="edge2" class="edge">
<title>buffernode (utility)&#45;&gt;outputnode (utility)</title>
<path fill="none" stroke="#000000" d="M261.6262,-289.5533C245.3906,-280.9704 228.6189,-268.7016 219.4423,-252 196.2411,-209.773 211.4517,-151.9983 224.2224,-118.0743"/>
<polygon fill="#000000" stroke="#000000" points="227.6428,-118.942 228.0621,-108.3554 221.1324,-116.3698 227.6428,-118.942"/>
</g>
<!-- anat_norm_wf -->
<g id="node4" class="node">
<title>anat_norm_wf</title>
<ellipse fill="none" stroke="#000000" cx="455.4423" cy="-162" rx="76.8869" ry="18"/>
<text text-anchor="middle" x="455.4423" y="-158.3" font-family="Times,serif" font-size="14.00" fill="#000000">anat_norm_wf</text>
</g>
<!-- buffernode (utility)&#45;&gt;anat_norm_wf -->
<g id="edge3" class="edge">
<title>buffernode (utility)&#45;&gt;anat_norm_wf</title>
<path fill="none" stroke="#000000" d="M337.536,-288.8433C354.1585,-279.3049 373.9928,-266.4508 389.4423,-252 409.4767,-233.2608 427.5377,-207.7219 439.6806,-188.6357"/>
<polygon fill="#000000" stroke="#000000" points="442.6768,-190.4453 444.9888,-180.1058 436.7336,-186.7468 442.6768,-190.4453"/>
</g>
<!-- t1w_dseg (fsl)&#45;&gt;outputnode (utility) -->
<g id="edge4" class="edge">
<title>t1w_dseg (fsl)&#45;&gt;outputnode (utility)</title>
<path fill="none" stroke="#000000" d="M295.9676,-216.0535C284.2604,-191.2618 263.0382,-146.3207 249.3518,-117.3378"/>
<polygon fill="#000000" stroke="#000000" points="252.4589,-115.7207 245.0239,-108.1727 246.1291,-118.7098 252.4589,-115.7207"/>
</g>
<!-- t1w_dseg (fsl)&#45;&gt;anat_norm_wf -->
<g id="edge5" class="edge">
<title>t1w_dseg (fsl)&#45;&gt;anat_norm_wf</title>
<path fill="none" stroke="#000000" d="M338.3297,-217.8418C360.2071,-207.4102 388.8637,-193.7461 412.3538,-182.5455"/>
<polygon fill="#000000" stroke="#000000" points="413.8872,-185.692 421.4072,-178.2287 410.8744,-179.3735 413.8872,-185.692"/>
</g>
<!-- anat_reports_wf -->
<g id="node5" class="node">
<title>anat_reports_wf</title>
<ellipse fill="none" stroke="#000000" cx="86.4423" cy="-18" rx="86.3847" ry="18"/>
<text text-anchor="middle" x="86.4423" y="-14.3" font-family="Times,serif" font-size="14.00" fill="#000000">anat_reports_wf</text>
</g>
<!-- outputnode (utility)&#45;&gt;anat_reports_wf -->
<g id="edge6" class="edge">
<title>outputnode (utility)&#45;&gt;anat_reports_wf</title>
<path fill="none" stroke="#000000" d="M200.8944,-72.937C179.6503,-62.7398 152.5024,-49.7088 129.9787,-38.8975"/>
<polygon fill="#000000" stroke="#000000" points="131.4896,-35.7404 120.9598,-34.5684 128.4605,-42.0511 131.4896,-35.7404"/>
</g>
<!-- anat_derivatives_wf -->
<g id="node6" class="node">
<title>anat_derivatives_wf</title>
<ellipse fill="none" stroke="#000000" cx="511.4423" cy="-18" rx="103.9815" ry="18"/>
<text text-anchor="middle" x="511.4423" y="-14.3" font-family="Times,serif" font-size="14.00" fill="#000000">anat_derivatives_wf</text>
</g>
<!-- outputnode (utility)&#45;&gt;anat_derivatives_wf -->
<g id="edge7" class="edge">
<title>outputnode (utility)&#45;&gt;anat_derivatives_wf</title>
<path fill="none" stroke="#000000" d="M293.4225,-75.0816C337.2464,-63.6077 397.9193,-47.7224 444.1353,-35.6222"/>
<polygon fill="#000000" stroke="#000000" points="445.2753,-38.9418 454.0627,-33.023 443.5023,-32.17 445.2753,-38.9418"/>
</g>
<!-- anat_norm_wf&#45;&gt;outputnode (utility) -->
<g id="edge8" class="edge">
<title>anat_norm_wf&#45;&gt;outputnode (utility)</title>
<path fill="none" stroke="#000000" d="M410.8604,-147.3429C377.2228,-136.284 330.7934,-121.0195 294.2945,-109.0199"/>
<polygon fill="#000000" stroke="#000000" points="295.3568,-105.6849 284.7639,-105.8865 293.1705,-112.3347 295.3568,-105.6849"/>
</g>
<!-- anat_norm_wf&#45;&gt;anat_reports_wf -->
<g id="edge9" class="edge">
<title>anat_norm_wf&#45;&gt;anat_reports_wf</title>
<path fill="none" stroke="#000000" d="M439.1872,-144.0996C419.3587,-123.4203 383.8323,-89.946 346.4423,-72 293.4499,-46.5653 228.7498,-33.0712 177.1486,-25.9328"/>
<polygon fill="#000000" stroke="#000000" points="177.3838,-22.4335 167.0104,-24.5883 176.4634,-29.3727 177.3838,-22.4335"/>
</g>
<!-- anat_norm_wf&#45;&gt;anat_derivatives_wf -->
<g id="edge10" class="edge">
<title>anat_norm_wf&#45;&gt;anat_derivatives_wf</title>
<path fill="none" stroke="#000000" d="M462.4215,-144.0535C472.0208,-119.3696 489.388,-74.7111 500.6636,-45.7167"/>
<polygon fill="#000000" stroke="#000000" points="504.0127,-46.7613 504.3752,-36.1727 497.4886,-44.2242 504.0127,-46.7613"/>
</g>
<!-- inputnode (utility) -->
<g id="node7" class="node">
<title>inputnode (utility)</title>
<ellipse fill="none" stroke="#000000" cx="330.4423" cy="-738" rx="94.7833" ry="18"/>
<text text-anchor="middle" x="330.4423" y="-734.3" font-family="Times,serif" font-size="14.00" fill="#000000">inputnode (utility)</text>
</g>
<!-- inputnode (utility)&#45;&gt;anat_norm_wf -->
<g id="edge12" class="edge">
<title>inputnode (utility)&#45;&gt;anat_norm_wf</title>
<path fill="none" stroke="#000000" d="M407.6427,-727.4673C482.6958,-712.3716 585.4423,-676.6182 585.4423,-594 585.4423,-594 585.4423,-594 585.4423,-522 585.4423,-390.1716 507.3715,-246.4675 472.2316,-188.4626"/>
<polygon fill="#000000" stroke="#000000" points="475.1927,-186.5961 466.979,-179.904 469.2267,-190.2576 475.1927,-186.5961"/>
</g>
<!-- inputnode (utility)&#45;&gt;anat_reports_wf -->
<g id="edge13" class="edge">
<title>inputnode (utility)&#45;&gt;anat_reports_wf</title>
<path fill="none" stroke="#000000" d="M262.8218,-725.2692C224.5602,-716.5866 176.5021,-703.1471 136.4423,-684 74.3515,-654.3228 10.4423,-662.8186 10.4423,-594 10.4423,-594 10.4423,-594 10.4423,-162 10.4423,-116.3998 40.6189,-71.0908 62.9419,-43.812"/>
<polygon fill="#000000" stroke="#000000" points="65.805,-45.8459 69.5755,-35.9447 60.4535,-41.3336 65.805,-45.8459"/>
</g>
<!-- anat_template_wf -->
<g id="node8" class="node">
<title>anat_template_wf</title>
<ellipse fill="none" stroke="#000000" cx="239.4423" cy="-666" rx="93.6835" ry="18"/>
<text text-anchor="middle" x="239.4423" y="-662.3" font-family="Times,serif" font-size="14.00" fill="#000000">anat_template_wf</text>
</g>
<!-- inputnode (utility)&#45;&gt;anat_template_wf -->
<g id="edge11" class="edge">
<title>inputnode (utility)&#45;&gt;anat_template_wf</title>
<path fill="none" stroke="#000000" d="M307.9479,-720.2022C296.3771,-711.0473 282.1125,-699.761 269.6009,-689.8617"/>
<polygon fill="#000000" stroke="#000000" points="271.6919,-687.0531 261.678,-683.593 267.3485,-692.5427 271.6919,-687.0531"/>
</g>
<!-- surface_recon_wf -->
<g id="node9" class="node">
<title>surface_recon_wf</title>
<ellipse fill="none" stroke="#000000" cx="249.4423" cy="-450" rx="92.8835" ry="18"/>
<text text-anchor="middle" x="249.4423" y="-446.3" font-family="Times,serif" font-size="14.00" fill="#000000">surface_recon_wf</text>
</g>
<!-- inputnode (utility)&#45;&gt;surface_recon_wf -->
<g id="edge14" class="edge">
<title>inputnode (utility)&#45;&gt;surface_recon_wf</title>
<path fill="none" stroke="#000000" d="M342.0704,-719.6926C360.4261,-688.2419 391.3981,-622.822 364.4423,-576 348.5444,-548.3854 325.0426,-562.4619 302.4423,-540 284.2883,-521.9572 270.0408,-496.4497 260.9111,-477.1945"/>
<polygon fill="#000000" stroke="#000000" points="264.0664,-475.6783 256.7277,-468.0366 257.6992,-478.5868 264.0664,-475.6783"/>
</g>
<!-- anat_template_wf&#45;&gt;outputnode (utility) -->
<g id="edge16" class="edge">
<title>anat_template_wf&#45;&gt;outputnode (utility)</title>
<path fill="none" stroke="#000000" d="M180.17,-651.9865C156.8887,-643.7953 131.6702,-631.1614 114.4423,-612 86.4342,-580.8486 86.4423,-563.8911 86.4423,-522 86.4423,-522 86.4423,-522 86.4423,-450 86.4423,-308.8506 92.5156,-261.0202 171.4423,-144 179.2216,-132.4661 190.1565,-122.0675 200.8417,-113.5458"/>
<polygon fill="#000000" stroke="#000000" points="203.0697,-116.2486 208.9077,-107.4073 198.8304,-110.6782 203.0697,-116.2486"/>
</g>
<!-- anat_template_wf&#45;&gt;anat_reports_wf -->
<g id="edge17" class="edge">
<title>anat_template_wf&#45;&gt;anat_reports_wf</title>
<path fill="none" stroke="#000000" d="M170.4103,-653.7761C142.2107,-645.8472 110.9941,-632.9254 88.4423,-612 56.355,-582.2267 48.4423,-565.7727 48.4423,-522 48.4423,-522 48.4423,-522 48.4423,-162 48.4423,-120.3681 63.4751,-74.14 74.6304,-45.567"/>
<polygon fill="#000000" stroke="#000000" points="77.9001,-46.817 78.3835,-36.2332 71.4055,-44.2055 77.9001,-46.817"/>
</g>
<!-- anat_template_wf&#45;&gt;anat_derivatives_wf -->
<g id="edge18" class="edge">
<title>anat_template_wf&#45;&gt;anat_derivatives_wf</title>
<path fill="none" stroke="#000000" d="M309.8412,-654.0417C376.1589,-639.0197 473.3274,-606.6432 528.4423,-540 617.3549,-432.4898 598.4423,-373.5131 598.4423,-234 598.4423,-234 598.4423,-234 598.4423,-162 598.4423,-114.9458 563.9901,-70.0884 538.4463,-43.2966"/>
<polygon fill="#000000" stroke="#000000" points="540.6893,-40.5856 531.184,-35.9059 535.6964,-45.4918 540.6893,-40.5856"/>
</g>
<!-- anat_validate (images) -->
<g id="node10" class="node">
<title>anat_validate (images)</title>
<ellipse fill="none" stroke="#000000" cx="239.4423" cy="-594" rx="116.1796" ry="18"/>
<text text-anchor="middle" x="239.4423" y="-590.3" font-family="Times,serif" font-size="14.00" fill="#000000">anat_validate (images)</text>
</g>
<!-- anat_template_wf&#45;&gt;anat_validate (images) -->
<g id="edge15" class="edge">
<title>anat_template_wf&#45;&gt;anat_validate (images)</title>
<path fill="none" stroke="#000000" d="M239.4423,-647.8314C239.4423,-640.131 239.4423,-630.9743 239.4423,-622.4166"/>
<polygon fill="#000000" stroke="#000000" points="242.9424,-622.4132 239.4423,-612.4133 235.9424,-622.4133 242.9424,-622.4132"/>
</g>
<!-- surface_recon_wf&#45;&gt;buffernode (utility) -->
<g id="edge21" class="edge">
<title>surface_recon_wf&#45;&gt;buffernode (utility)</title>
<path fill="none" stroke="#000000" d="M235.0814,-431.9665C222.0203,-413.2136 206.5939,-383.3845 219.4423,-360 226.97,-346.2995 239.6085,-335.5818 252.8695,-327.4348"/>
<polygon fill="#000000" stroke="#000000" points="254.6694,-330.4375 261.6262,-322.4467 251.2047,-324.3551 254.6694,-330.4375"/>
</g>
<!-- surface_recon_wf&#45;&gt;outputnode (utility) -->
<g id="edge20" class="edge">
<title>surface_recon_wf&#45;&gt;outputnode (utility)</title>
<path fill="none" stroke="#000000" d="M229.7007,-432.0941C204.032,-406.7461 162.4423,-357.699 162.4423,-306 162.4423,-306 162.4423,-306 162.4423,-234 162.4423,-188.6585 191.8248,-143.2822 213.5603,-115.9182"/>
<polygon fill="#000000" stroke="#000000" points="216.3956,-117.9801 220.0193,-108.0242 210.9779,-113.5472 216.3956,-117.9801"/>
</g>
<!-- surface_recon_wf&#45;&gt;anat_reports_wf -->
<g id="edge22" class="edge">
<title>surface_recon_wf&#45;&gt;anat_reports_wf</title>
<path fill="none" stroke="#000000" d="M218.7644,-432.8037C203.7948,-423.3402 186.2925,-410.5647 173.4423,-396 119.3733,-334.7167 86.4423,-315.7258 86.4423,-234 86.4423,-234 86.4423,-234 86.4423,-162 86.4423,-121.876 86.4423,-75.4631 86.4423,-46.4177"/>
<polygon fill="#000000" stroke="#000000" points="89.9424,-46.1853 86.4423,-36.1854 82.9424,-46.1854 89.9424,-46.1853"/>
</g>
<!-- surface_recon_wf&#45;&gt;anat_derivatives_wf -->
<g id="edge23" class="edge">
<title>surface_recon_wf&#45;&gt;anat_derivatives_wf</title>
<path fill="none" stroke="#000000" d="M311.6304,-436.4769C402.3881,-412.6642 560.4423,-353.9721 560.4423,-234 560.4423,-234 560.4423,-234 560.4423,-162 560.4423,-119.2938 540.8883,-73.0788 526.4853,-44.8306"/>
<polygon fill="#000000" stroke="#000000" points="529.5811,-43.1977 521.834,-35.9705 523.3833,-46.4515 529.5811,-43.1977"/>
</g>
<!-- applyrefined (fsl) -->
<g id="node12" class="node">
<title>applyrefined (fsl)</title>
<ellipse fill="none" stroke="#000000" cx="318.4423" cy="-378" rx="90.1842" ry="18"/>
<text text-anchor="middle" x="318.4423" y="-374.3" font-family="Times,serif" font-size="14.00" fill="#000000">applyrefined (fsl)</text>
</g>
<!-- surface_recon_wf&#45;&gt;applyrefined (fsl) -->
<g id="edge19" class="edge">
<title>surface_recon_wf&#45;&gt;applyrefined (fsl)</title>
<path fill="none" stroke="#000000" d="M266.4985,-432.2022C274.8748,-423.4617 285.1128,-412.7786 294.2785,-403.2144"/>
<polygon fill="#000000" stroke="#000000" points="296.9511,-405.4841 301.3432,-395.8425 291.8972,-400.6408 296.9511,-405.4841"/>
</g>
<!-- anat_validate (images)&#45;&gt;surface_recon_wf -->
<g id="edge25" class="edge">
<title>anat_validate (images)&#45;&gt;surface_recon_wf</title>
<path fill="none" stroke="#000000" d="M240.7088,-575.7623C242.4145,-551.201 245.4668,-507.2474 247.4733,-478.3541"/>
<polygon fill="#000000" stroke="#000000" points="250.9848,-478.3081 248.1861,-468.0896 244.0016,-477.8231 250.9848,-478.3081"/>
</g>
<!-- brain_extraction_wf -->
<g id="node11" class="node">
<title>brain_extraction_wf</title>
<ellipse fill="none" stroke="#000000" cx="415.4423" cy="-522" rx="103.9815" ry="18"/>
<text text-anchor="middle" x="415.4423" y="-518.3" font-family="Times,serif" font-size="14.00" fill="#000000">brain_extraction_wf</text>
</g>
<!-- anat_validate (images)&#45;&gt;brain_extraction_wf -->
<g id="edge24" class="edge">
<title>anat_validate (images)&#45;&gt;brain_extraction_wf</title>
<path fill="none" stroke="#000000" d="M280.7065,-577.1192C305.9531,-566.7911 338.4295,-553.5053 365.1716,-542.5653"/>
<polygon fill="#000000" stroke="#000000" points="366.8103,-545.6765 374.7405,-538.6507 364.1598,-539.1977 366.8103,-545.6765"/>
</g>
<!-- brain_extraction_wf&#45;&gt;outputnode (utility) -->
<g id="edge26" class="edge">
<title>brain_extraction_wf&#45;&gt;outputnode (utility)</title>
<path fill="none" stroke="#000000" d="M424.3805,-504.0042C428.9817,-493.733 434.1054,-480.457 436.4423,-468 439.3925,-452.2743 437.762,-447.9455 436.4423,-432 428.3389,-334.0884 444.5538,-297.3331 389.4423,-216 359.5854,-171.9375 309.9526,-135.1222 275.3412,-112.8824"/>
<polygon fill="#000000" stroke="#000000" points="276.7729,-109.6474 266.4471,-107.2746 273.0394,-115.5687 276.7729,-109.6474"/>
</g>
<!-- brain_extraction_wf&#45;&gt;anat_norm_wf -->
<g id="edge27" class="edge">
<title>brain_extraction_wf&#45;&gt;anat_norm_wf</title>
<path fill="none" stroke="#000000" d="M417.4809,-503.6526C424.0076,-444.9129 444.42,-261.2013 452.2974,-190.3047"/>
<polygon fill="#000000" stroke="#000000" points="455.782,-190.6358 453.4078,-180.3104 448.8248,-189.8627 455.782,-190.6358"/>
</g>
<!-- brain_extraction_wf&#45;&gt;surface_recon_wf -->
<g id="edge28" class="edge">
<title>brain_extraction_wf&#45;&gt;surface_recon_wf</title>
<path fill="none" stroke="#000000" d="M376.5227,-505.1192C352.7301,-494.7995 322.1296,-481.527 296.9186,-470.5921"/>
<polygon fill="#000000" stroke="#000000" points="298.1126,-467.295 287.5456,-466.5267 295.3271,-473.7169 298.1126,-467.295"/>
</g>
<!-- brain_extraction_wf&#45;&gt;applyrefined (fsl) -->
<g id="edge29" class="edge">
<title>brain_extraction_wf&#45;&gt;applyrefined (fsl)</title>
<path fill="none" stroke="#000000" d="M403.3533,-504.0535C386.5082,-479.0462 355.8531,-433.5376 336.3505,-404.5853"/>
<polygon fill="#000000" stroke="#000000" points="339.1734,-402.5112 330.6837,-396.1727 333.3677,-406.422 339.1734,-402.5112"/>
</g>
<!-- applyrefined (fsl)&#45;&gt;buffernode (utility) -->
<g id="edge30" class="edge">
<title>applyrefined (fsl)&#45;&gt;buffernode (utility)</title>
<path fill="none" stroke="#000000" d="M314.9095,-359.8314C313.4122,-352.131 311.6318,-342.9743 309.9678,-334.4166"/>
<polygon fill="#000000" stroke="#000000" points="313.3671,-333.5614 308.0227,-324.4133 306.4958,-334.8975 313.3671,-333.5614"/>
</g>
</g>
</svg>
