<?xml version="1.0" encoding="UTF-8" standalone="no"?>
<!DOCTYPE svg PUBLIC "-//W3C//DTD SVG 1.1//EN"
 "http://www.w3.org/Graphics/SVG/1.1/DTD/svg11.dtd">
<!-- Generated by graphviz version 2.40.1 (20161225.0304)
 -->
<!-- Title: %3 Pages: 1 -->
<svg width="824pt" height="404pt"
 viewBox="0.00 0.00 824.13 404.00" xmlns="http://www.w3.org/2000/svg" xmlns:xlink="http://www.w3.org/1999/xlink">
<g id="graph0" class="graph" transform="scale(1 1) rotate(0) translate(4 400)">
<title>%3</title>
<polygon fill="#ffffff" stroke="transparent" points="-4,4 -4,-400 820.1316,-400 820.1316,4 -4,4"/>
<!-- inputnode (utility) -->
<g id="node1" class="node">
<title>inputnode (utility)</title>
<ellipse fill="none" stroke="#000000" cx="320.1424" cy="-378" rx="94.7833" ry="18"/>
<text text-anchor="middle" x="320.1424" y="-374.3" font-family="Times,serif" font-size="14.00" fill="#000000">inputnode (utility)</text>
</g>
<!-- trunc_mov (ants) -->
<g id="node2" class="node">
<title>trunc_mov (ants)</title>
<ellipse fill="none" stroke="#000000" cx="261.1424" cy="-306" rx="90.1842" ry="18"/>
<text text-anchor="middle" x="261.1424" y="-302.3" font-family="Times,serif" font-size="14.00" fill="#000000">trunc_mov (ants)</text>
</g>
<!-- inputnode (utility)&#45;&gt;trunc_mov (ants) -->
<g id="edge1" class="edge">
<title>inputnode (utility)&#45;&gt;trunc_mov (ants)</title>
<path fill="none" stroke="#000000" d="M305.5582,-360.2022C298.5377,-351.6348 289.9877,-341.2009 282.2709,-331.7839"/>
<polygon fill="#000000" stroke="#000000" points="284.8089,-329.359 275.7634,-323.8425 279.3945,-333.7957 284.8089,-329.359"/>
</g>
<!-- registration (mni) -->
<g id="node3" class="node">
<title>registration (mni)</title>
<ellipse fill="none" stroke="#000000" cx="303.1424" cy="-234" rx="92.8835" ry="18"/>
<text text-anchor="middle" x="303.1424" y="-230.3" font-family="Times,serif" font-size="14.00" fill="#000000">registration (mni)</text>
</g>
<!-- inputnode (utility)&#45;&gt;registration (mni) -->
<g id="edge2" class="edge">
<title>inputnode (utility)&#45;&gt;registration (mni)</title>
<path fill="none" stroke="#000000" d="M337.881,-360.213C346.388,-350.4141 355.6816,-337.5165 360.1424,-324 365.1569,-308.8061 366.4645,-302.698 360.1424,-288 355.177,-276.456 346.3962,-266.2236 337.1917,-257.8552"/>
<polygon fill="#000000" stroke="#000000" points="339.3251,-255.0753 329.4348,-251.2762 334.7973,-260.4137 339.3251,-255.0753"/>
</g>
<!-- tpl_moving (fixes) -->
<g id="node4" class="node">
<title>tpl_moving (fixes)</title>
<ellipse fill="none" stroke="#000000" cx="320.1424" cy="-162" rx="94.4839" ry="18"/>
<text text-anchor="middle" x="320.1424" y="-158.3" font-family="Times,serif" font-size="14.00" fill="#000000">tpl_moving (fixes)</text>
</g>
<!-- inputnode (utility)&#45;&gt;tpl_moving (fixes) -->
<g id="edge3" class="edge">
<title>inputnode (utility)&#45;&gt;tpl_moving (fixes)</title>
<path fill="none" stroke="#000000" d="M257.3724,-364.4213C218.4547,-354.5867 173.7341,-340.2117 162.1424,-324 132.4595,-282.4865 163.808,-250.7935 201.1424,-216 217.4764,-200.7777 238.8385,-189.2787 258.9487,-180.8901"/>
<polygon fill="#000000" stroke="#000000" points="260.3865,-184.0849 268.3842,-177.1361 257.7987,-177.5808 260.3865,-184.0849"/>
</g>
<!-- std_mask (fixes) -->
<g id="node5" class="node">
<title>std_mask (fixes)</title>
<ellipse fill="none" stroke="#000000" cx="519.1424" cy="-162" rx="87.1846" ry="18"/>
<text text-anchor="middle" x="519.1424" y="-158.3" font-family="Times,serif" font-size="14.00" fill="#000000">std_mask (fixes)</text>
</g>
<!-- inputnode (utility)&#45;&gt;std_mask (fixes) -->
<g id="edge4" class="edge">
<title>inputnode (utility)&#45;&gt;std_mask (fixes)</title>
<path fill="none" stroke="#000000" d="M406.8323,-370.5627C505.4198,-361.2094 655.029,-343.939 672.1424,-324 684.4245,-309.6901 681.4629,-236.1135 666.1424,-216 655.6464,-202.2202 619.1802,-188.7797 585.1971,-178.7545"/>
<polygon fill="#000000" stroke="#000000" points="585.8113,-175.2893 575.2334,-175.8885 583.8762,-182.0166 585.8113,-175.2893"/>
</g>
<!-- std_dseg (fixes) -->
<g id="node6" class="node">
<title>std_dseg (fixes)</title>
<ellipse fill="none" stroke="#000000" cx="708.1424" cy="-162" rx="83.6854" ry="18"/>
<text text-anchor="middle" x="708.1424" y="-158.3" font-family="Times,serif" font-size="14.00" fill="#000000">std_dseg (fixes)</text>
</g>
<!-- inputnode (utility)&#45;&gt;std_dseg (fixes) -->
<g id="edge5" class="edge">
<title>inputnode (utility)&#45;&gt;std_dseg (fixes)</title>
<path fill="none" stroke="#000000" d="M407.4384,-370.7814C510.3013,-361.4277 669.7677,-343.9361 689.1424,-324 723.6306,-288.5125 719.8877,-225.9872 714.0378,-189.8731"/>
<polygon fill="#000000" stroke="#000000" points="717.4789,-189.2325 712.2786,-180.0018 710.5875,-190.4608 717.4789,-189.2325"/>
</g>
<!-- std_tpms (fixes) -->
<g id="node7" class="node">
<title>std_tpms (fixes)</title>
<ellipse fill="none" stroke="#000000" cx="85.1424" cy="-162" rx="85.2851" ry="18"/>
<text text-anchor="middle" x="85.1424" y="-158.3" font-family="Times,serif" font-size="14.00" fill="#000000">std_tpms (fixes)</text>
</g>
<!-- inputnode (utility)&#45;&gt;std_tpms (fixes) -->
<g id="edge6" class="edge">
<title>inputnode (utility)&#45;&gt;std_tpms (fixes)</title>
<path fill="none" stroke="#000000" d="M257.0155,-364.4002C214.5133,-354.1282 163.3708,-339.2374 147.1424,-324 109.0423,-288.2263 94.1062,-226.5051 88.4373,-190.4576"/>
<polygon fill="#000000" stroke="#000000" points="91.8436,-189.554 86.9601,-180.1518 84.9144,-190.5473 91.8436,-189.554"/>
</g>
<!-- trunc_mov (ants)&#45;&gt;registration (mni) -->
<g id="edge7" class="edge">
<title>trunc_mov (ants)&#45;&gt;registration (mni)</title>
<path fill="none" stroke="#000000" d="M271.7408,-287.8314C276.5524,-279.5829 282.3387,-269.6635 287.6263,-260.5992"/>
<polygon fill="#000000" stroke="#000000" points="290.6774,-262.3148 292.693,-251.9134 284.631,-258.7876 290.6774,-262.3148"/>
</g>
<!-- registration (mni)&#45;&gt;tpl_moving (fixes) -->
<g id="edge8" class="edge">
<title>registration (mni)&#45;&gt;tpl_moving (fixes)</title>
<path fill="none" stroke="#000000" d="M307.4323,-215.8314C309.2504,-208.131 311.4124,-198.9743 313.433,-190.4166"/>
<polygon fill="#000000" stroke="#000000" points="316.9032,-190.95 315.7949,-180.4133 310.0905,-189.3414 316.9032,-190.95"/>
</g>
<!-- registration (mni)&#45;&gt;std_mask (fixes) -->
<g id="edge9" class="edge">
<title>registration (mni)&#45;&gt;std_mask (fixes)</title>
<path fill="none" stroke="#000000" d="M350.0112,-218.3771C383.3549,-207.2625 428.2903,-192.284 463.4632,-180.5597"/>
<polygon fill="#000000" stroke="#000000" points="464.7272,-183.8278 473.1072,-177.3451 462.5135,-177.187 464.7272,-183.8278"/>
</g>
<!-- registration (mni)&#45;&gt;std_dseg (fixes) -->
<g id="edge10" class="edge">
<title>registration (mni)&#45;&gt;std_dseg (fixes)</title>
<path fill="none" stroke="#000000" d="M371.5854,-221.7318C382.4738,-219.8004 393.6148,-217.8362 404.1424,-216 497.8606,-199.6542 521.548,-197.0397 615.1424,-180 621.8822,-178.773 628.891,-177.4687 635.9029,-176.1447"/>
<polygon fill="#000000" stroke="#000000" points="636.9767,-179.5034 646.1472,-174.1976 635.6696,-172.6265 636.9767,-179.5034"/>
</g>
<!-- registration (mni)&#45;&gt;std_tpms (fixes) -->
<g id="edge11" class="edge">
<title>registration (mni)&#45;&gt;std_tpms (fixes)</title>
<path fill="none" stroke="#000000" d="M256.1081,-218.4657C222.3567,-207.3185 176.7358,-192.251 141.1092,-180.4844"/>
<polygon fill="#000000" stroke="#000000" points="141.9371,-177.072 131.3439,-177.2592 139.7418,-183.7188 141.9371,-177.072"/>
</g>
<!-- poutputnode (utility) -->
<g id="node8" class="node">
<title>poutputnode (utility)</title>
<ellipse fill="none" stroke="#000000" cx="419.1424" cy="-90" rx="107.4815" ry="18"/>
<text text-anchor="middle" x="419.1424" y="-86.3" font-family="Times,serif" font-size="14.00" fill="#000000">poutputnode (utility)</text>
</g>
<!-- registration (mni)&#45;&gt;poutputnode (utility) -->
<g id="edge12" class="edge">
<title>registration (mni)&#45;&gt;poutputnode (utility)</title>
<path fill="none" stroke="#000000" d="M260.2879,-217.9026C243.7236,-209.3283 226.5258,-196.9716 217.1424,-180 209.4008,-165.9976 207.3986,-156.6908 217.1424,-144 231.1253,-125.7881 280.6138,-112.3891 327.1035,-103.4935"/>
<polygon fill="#000000" stroke="#000000" points="327.771,-106.9294 336.9645,-101.6635 326.4937,-100.047 327.771,-106.9294"/>
</g>
<!-- tpl_moving (fixes)&#45;&gt;poutputnode (utility) -->
<g id="edge13" class="edge">
<title>tpl_moving (fixes)&#45;&gt;poutputnode (utility)</title>
<path fill="none" stroke="#000000" d="M344.1076,-144.5708C356.808,-135.3341 372.5968,-123.8514 386.4101,-113.8054"/>
<polygon fill="#000000" stroke="#000000" points="388.6815,-116.4812 394.7102,-107.7689 384.5642,-110.8201 388.6815,-116.4812"/>
</g>
<!-- std_mask (fixes)&#45;&gt;poutputnode (utility) -->
<g id="edge14" class="edge">
<title>std_mask (fixes)&#45;&gt;poutputnode (utility)</title>
<path fill="none" stroke="#000000" d="M494.9352,-144.5708C482.1065,-135.3341 466.1583,-123.8514 452.2055,-113.8054"/>
<polygon fill="#000000" stroke="#000000" points="453.9819,-110.7716 443.8214,-107.7689 449.8917,-116.4523 453.9819,-110.7716"/>
</g>
<!-- std_dseg (fixes)&#45;&gt;poutputnode (utility) -->
<g id="edge15" class="edge">
<title>std_dseg (fixes)&#45;&gt;poutputnode (utility)</title>
<path fill="none" stroke="#000000" d="M653.1035,-148.2879C606.5056,-136.6787 539.4446,-119.9715 489.0552,-107.4177"/>
<polygon fill="#000000" stroke="#000000" points="489.7601,-103.9864 479.2106,-104.9651 488.0678,-110.7788 489.7601,-103.9864"/>
</g>
<!-- std_tpms (fixes)&#45;&gt;poutputnode (utility) -->
<g id="edge16" class="edge">
<title>std_tpms (fixes)&#45;&gt;poutputnode (utility)</title>
<path fill="none" stroke="#000000" d="M144.855,-149.1278C200.3105,-137.1733 283.138,-119.3183 343.2589,-106.3581"/>
<polygon fill="#000000" stroke="#000000" points="344.0421,-109.7698 353.08,-104.241 342.567,-102.927 344.0421,-109.7698"/>
</g>
<!-- outputnode (utility) -->
<g id="node11" class="node">
<title>outputnode (utility)</title>
<ellipse fill="none" stroke="#000000" cx="419.1424" cy="-18" rx="101.2821" ry="18"/>
<text text-anchor="middle" x="419.1424" y="-14.3" font-family="Times,serif" font-size="14.00" fill="#000000">outputnode (utility)</text>
</g>
<!-- poutputnode (utility)&#45;&gt;outputnode (utility) -->
<g id="edge17" class="edge">
<title>poutputnode (utility)&#45;&gt;outputnode (utility)</title>
<path fill="none" stroke="#000000" d="M419.1424,-71.8314C419.1424,-64.131 419.1424,-54.9743 419.1424,-46.4166"/>
<polygon fill="#000000" stroke="#000000" points="422.6425,-46.4132 419.1424,-36.4133 415.6425,-46.4133 422.6425,-46.4132"/>
</g>
<!-- split_desc (templateflow) -->
<g id="node9" class="node">
<title>split_desc (templateflow)</title>
<ellipse fill="none" stroke="#000000" cx="535.1424" cy="-306" rx="128.0773" ry="18"/>
<text text-anchor="middle" x="535.1424" y="-302.3" font-family="Times,serif" font-size="14.00" fill="#000000">split_desc (templateflow)</text>
</g>
<!-- split_desc (templateflow)&#45;&gt;registration (mni) -->
<g id="edge19" class="edge">
<title>split_desc (templateflow)&#45;&gt;registration (mni)</title>
<path fill="none" stroke="#000000" d="M482.2078,-289.572C446.4832,-278.4851 399.2931,-263.8399 362.326,-252.3673"/>
<polygon fill="#000000" stroke="#000000" points="363.2641,-248.9938 352.676,-249.3725 361.1892,-255.6793 363.2641,-248.9938"/>
</g>
<!-- split_desc (templateflow)&#45;&gt;poutputnode (utility) -->
<g id="edge20" class="edge">
<title>split_desc (templateflow)&#45;&gt;poutputnode (utility)</title>
<path fill="none" stroke="#000000" d="M608.0167,-291.1695C707.0933,-267.8584 865.0542,-217.5818 801.1424,-144 783.2984,-123.4561 634.1759,-107.2344 527.6357,-98.126"/>
<polygon fill="#000000" stroke="#000000" points="527.7232,-94.621 517.4641,-97.2668 527.134,-101.5961 527.7232,-94.621"/>
</g>
<!-- tf_select (templateflow) -->
<g id="node10" class="node">
<title>tf_select (templateflow)</title>
<ellipse fill="none" stroke="#000000" cx="535.1424" cy="-234" rx="121.5784" ry="18"/>
<text text-anchor="middle" x="535.1424" y="-230.3" font-family="Times,serif" font-size="14.00" fill="#000000">tf_select (templateflow)</text>
</g>
<!-- split_desc (templateflow)&#45;&gt;tf_select (templateflow) -->
<g id="edge18" class="edge">
<title>split_desc (templateflow)&#45;&gt;tf_select (templateflow)</title>
<path fill="none" stroke="#000000" d="M535.1424,-287.8314C535.1424,-280.131 535.1424,-270.9743 535.1424,-262.4166"/>
<polygon fill="#000000" stroke="#000000" points="538.6425,-262.4132 535.1424,-252.4133 531.6425,-262.4133 538.6425,-262.4132"/>
</g>
<!-- tf_select (templateflow)&#45;&gt;tpl_moving (fixes) -->
<g id="edge21" class="edge">
<title>tf_select (templateflow)&#45;&gt;tpl_moving (fixes)</title>
<path fill="none" stroke="#000000" d="M485.8171,-217.4817C453.3201,-206.599 410.6733,-192.3173 376.787,-180.9693"/>
<polygon fill="#000000" stroke="#000000" points="377.6201,-177.5574 367.0263,-177.7006 375.3972,-184.195 377.6201,-177.5574"/>
</g>
<!-- tf_select (templateflow)&#45;&gt;std_mask (fixes) -->
<g id="edge22" class="edge">
<title>tf_select (templateflow)&#45;&gt;std_mask (fixes)</title>
<path fill="none" stroke="#000000" d="M531.105,-215.8314C529.3938,-208.131 527.359,-198.9743 525.4573,-190.4166"/>
<polygon fill="#000000" stroke="#000000" points="528.8203,-189.4159 523.2343,-180.4133 521.987,-190.9344 528.8203,-189.4159"/>
</g>
<!-- tf_select (templateflow)&#45;&gt;std_dseg (fixes) -->
<g id="edge23" class="edge">
<title>tf_select (templateflow)&#45;&gt;std_dseg (fixes)</title>
<path fill="none" stroke="#000000" d="M576.141,-216.937C601.3253,-206.4557 633.7032,-192.9805 660.0891,-181.9991"/>
<polygon fill="#000000" stroke="#000000" points="661.6272,-185.15 669.5147,-178.0763 658.9375,-178.6874 661.6272,-185.15"/>
</g>
<!-- tf_select (templateflow)&#45;&gt;std_tpms (fixes) -->
<g id="edge24" class="edge">
<title>tf_select (templateflow)&#45;&gt;std_tpms (fixes)</title>
<path fill="none" stroke="#000000" d="M452.3434,-220.7522C369.8197,-207.5484 244.0508,-187.4253 163.2246,-174.4932"/>
<polygon fill="#000000" stroke="#000000" points="163.5348,-170.9983 153.1074,-172.8744 162.4288,-177.9104 163.5348,-170.9983"/>
</g>
</g>
</svg>
