<?xml version="1.0" encoding="UTF-8" standalone="no"?>
<!DOCTYPE svg PUBLIC "-//W3C//DTD SVG 1.1//EN"
 "http://www.w3.org/Graphics/SVG/1.1/DTD/svg11.dtd">
<!-- Generated by graphviz version 2.40.1 (20161225.0304)
 -->
<!-- Title: structs Pages: 1 -->
<svg width="1899pt" height="806pt"
 viewBox="0.00 0.00 1899.00 806.00" xmlns="http://www.w3.org/2000/svg" xmlns:xlink="http://www.w3.org/1999/xlink">
<g id="graph0" class="graph" transform="scale(1 1) rotate(0) translate(4 802)">
<title>structs</title>
<polygon fill="#ffffff" stroke="transparent" points="-4,4 -4,-802 1895,-802 1895,4 -4,4"/>
<!-- autorecon_resume_wfinputnode -->
<g id="node1" class="node">
<title>autorecon_resume_wfinputnode</title>
<polygon fill="none" stroke="#000000" points="0,-682.5 0,-797.5 228,-797.5 228,-682.5 0,-682.5"/>
<text text-anchor="middle" x="17.5" y="-736.3" font-family="Times,serif" font-size="14.00" fill="#000000">IN</text>
<polyline fill="none" stroke="#000000" points="35,-682.5 35,-797.5 "/>
<text text-anchor="middle" x="79.5" y="-774.8" font-family="Times,serif" font-size="14.00" fill="#000000">inputnode</text>
<polyline fill="none" stroke="#000000" points="35,-759.5 124,-759.5 "/>
<text text-anchor="middle" x="79.5" y="-736.8" font-family="Times,serif" font-size="14.00" fill="#000000">utility</text>
<polyline fill="none" stroke="#000000" points="35,-721.5 124,-721.5 "/>
<text text-anchor="middle" x="79.5" y="-698.3" font-family="Times,serif" font-size="14.00" fill="#000000"> </text>
<polyline fill="none" stroke="#000000" points="124,-682.5 124,-797.5 "/>
<text text-anchor="middle" x="176" y="-782.3" font-family="Times,serif" font-size="14.00" fill="#000000">OUT</text>
<polyline fill="none" stroke="#000000" points="124,-774.5 228,-774.5 "/>
<text text-anchor="middle" x="176" y="-759.3" font-family="Times,serif" font-size="14.00" fill="#000000">subject_id</text>
<polyline fill="none" stroke="#000000" points="124,-751.5 228,-751.5 "/>
<text text-anchor="middle" x="176" y="-736.3" font-family="Times,serif" font-size="14.00" fill="#000000">subjects_dir</text>
<polyline fill="none" stroke="#000000" points="124,-728.5 228,-728.5 "/>
<text text-anchor="middle" x="176" y="-713.3" font-family="Times,serif" font-size="14.00" fill="#000000">use_FLAIR</text>
<polyline fill="none" stroke="#000000" points="124,-705.5 228,-705.5 "/>
<text text-anchor="middle" x="176" y="-690.3" font-family="Times,serif" font-size="14.00" fill="#000000">use_T2</text>
</g>
<!-- autorecon_resume_wfautorecon2_vol -->
<g id="node2" class="node">
<title>autorecon_resume_wfautorecon2_vol</title>
<polygon fill="none" stroke="#000000" points="47,-576.5 47,-645.5 381,-645.5 381,-576.5 47,-576.5"/>
<text text-anchor="middle" x="99" y="-630.3" font-family="Times,serif" font-size="14.00" fill="#000000">IN</text>
<polyline fill="none" stroke="#000000" points="47,-622.5 151,-622.5 "/>
<text text-anchor="middle" x="99" y="-607.3" font-family="Times,serif" font-size="14.00" fill="#000000">subject_id</text>
<polyline fill="none" stroke="#000000" points="47,-599.5 151,-599.5 "/>
<text text-anchor="middle" x="99" y="-584.3" font-family="Times,serif" font-size="14.00" fill="#000000">subjects_dir</text>
<polyline fill="none" stroke="#000000" points="151,-576.5 151,-645.5 "/>
<text text-anchor="middle" x="214" y="-630.3" font-family="Times,serif" font-size="14.00" fill="#000000">autorecon2_vol</text>
<polyline fill="none" stroke="#000000" points="151,-622.5 277,-622.5 "/>
<text text-anchor="middle" x="214" y="-607.3" font-family="Times,serif" font-size="14.00" fill="#000000">freesurfer</text>
<polyline fill="none" stroke="#000000" points="151,-599.5 277,-599.5 "/>
<text text-anchor="middle" x="214" y="-584.3" font-family="Times,serif" font-size="14.00" fill="#000000"> </text>
<polyline fill="none" stroke="#000000" points="277,-576.5 277,-645.5 "/>
<text text-anchor="middle" x="329" y="-630.3" font-family="Times,serif" font-size="14.00" fill="#000000">OUT</text>
<polyline fill="none" stroke="#000000" points="277,-622.5 381,-622.5 "/>
<text text-anchor="middle" x="329" y="-607.3" font-family="Times,serif" font-size="14.00" fill="#000000">subject_id</text>
<polyline fill="none" stroke="#000000" points="277,-599.5 381,-599.5 "/>
<text text-anchor="middle" x="329" y="-584.3" font-family="Times,serif" font-size="14.00" fill="#000000">subjects_dir</text>
</g>
<!-- autorecon_resume_wfinputnode&#45;&gt;autorecon_resume_wfautorecon2_vol -->
<g id="edge9" class="edge">
<title>autorecon_resume_wfinputnode:e&#45;&gt;autorecon_resume_wfautorecon2_vol:w</title>
<path fill="none" stroke="#000000" d="M228,-763C264,-763 250.8384,-709.8282 228,-682 175.9664,-618.598 99.0336,-709.402 47,-646 40.0613,-637.5453 35.1897,-623.6765 38.3161,-616.1871"/>
<polygon fill="#000000" stroke="#000000" points="40.2098,-619.1329 47,-611 36.6201,-613.1233 40.2098,-619.1329"/>
</g>
<!-- autorecon_resume_wfinputnode&#45;&gt;autorecon_resume_wfautorecon2_vol -->
<g id="edge10" class="edge">
<title>autorecon_resume_wfinputnode:e&#45;&gt;autorecon_resume_wfautorecon2_vol:w</title>
<path fill="none" stroke="#000000" d="M228,-740C253.7778,-740 244.3534,-701.9264 228,-682 175.9664,-618.598 99.0336,-709.402 47,-646 33.3296,-629.3428 24.5011,-600.0045 37.0302,-590.8262"/>
<polygon fill="#000000" stroke="#000000" points="38.3336,-594.0947 47,-588 36.4245,-587.36 38.3336,-594.0947"/>
</g>
<!-- autorecon_resume_wfautorecon_surfs -->
<g id="node3" class="node">
<title>autorecon_resume_wfautorecon_surfs</title>
<polygon fill="none" stroke="#000000" points="395,-424.5 395,-539.5 735,-539.5 735,-424.5 395,-424.5"/>
<text text-anchor="middle" x="447" y="-524.3" font-family="Times,serif" font-size="14.00" fill="#000000">IN</text>
<polyline fill="none" stroke="#000000" points="395,-516.5 499,-516.5 "/>
<text text-anchor="middle" x="447" y="-501.3" font-family="Times,serif" font-size="14.00" fill="#000000">subject_id</text>
<polyline fill="none" stroke="#000000" points="395,-493.5 499,-493.5 "/>
<text text-anchor="middle" x="447" y="-478.3" font-family="Times,serif" font-size="14.00" fill="#000000">subjects_dir</text>
<polyline fill="none" stroke="#000000" points="395,-470.5 499,-470.5 "/>
<text text-anchor="middle" x="447" y="-455.3" font-family="Times,serif" font-size="14.00" fill="#000000">use_FLAIR</text>
<polyline fill="none" stroke="#000000" points="395,-447.5 499,-447.5 "/>
<text text-anchor="middle" x="447" y="-432.3" font-family="Times,serif" font-size="14.00" fill="#000000">use_T2</text>
<polyline fill="none" stroke="#000000" points="499,-424.5 499,-539.5 "/>
<text text-anchor="middle" x="565" y="-516.8" font-family="Times,serif" font-size="14.00" fill="#000000">autorecon_surfs</text>
<polyline fill="none" stroke="#000000" points="499,-501.5 631,-501.5 "/>
<text text-anchor="middle" x="565" y="-478.8" font-family="Times,serif" font-size="14.00" fill="#000000">freesurfer</text>
<polyline fill="none" stroke="#000000" points="499,-463.5 631,-463.5 "/>
<text text-anchor="middle" x="565" y="-440.3" font-family="Times,serif" font-size="14.00" fill="#000000"> </text>
<polyline fill="none" stroke="#000000" points="631,-424.5 631,-539.5 "/>
<text text-anchor="middle" x="683" y="-516.8" font-family="Times,serif" font-size="14.00" fill="#000000">OUT</text>
<polyline fill="none" stroke="#000000" points="631,-501.5 735,-501.5 "/>
<text text-anchor="middle" x="683" y="-478.8" font-family="Times,serif" font-size="14.00" fill="#000000">subject_id</text>
<polyline fill="none" stroke="#000000" points="631,-463.5 735,-463.5 "/>
<text text-anchor="middle" x="683" y="-440.3" font-family="Times,serif" font-size="14.00" fill="#000000">subjects_dir</text>
</g>
<!-- autorecon_resume_wfinputnode&#45;&gt;autorecon_resume_wfautorecon_surfs -->
<g id="edge11" class="edge">
<title>autorecon_resume_wfinputnode:e&#45;&gt;autorecon_resume_wfautorecon_surfs:w</title>
<path fill="none" stroke="#000000" d="M228,-717C306.6114,-717 346.1178,-711.2235 390,-646 434.3257,-580.1173 322.7044,-469.5043 385.0185,-459.6993"/>
<polygon fill="#000000" stroke="#000000" points="385.2691,-463.1904 395,-459 384.7798,-456.2076 385.2691,-463.1904"/>
</g>
<!-- autorecon_resume_wfinputnode&#45;&gt;autorecon_resume_wfautorecon_surfs -->
<g id="edge12" class="edge">
<title>autorecon_resume_wfinputnode:e&#45;&gt;autorecon_resume_wfautorecon_surfs:w</title>
<path fill="none" stroke="#000000" d="M228,-694C269.6126,-694 383.6254,-678.9808 409,-646 427.971,-621.3423 414.7364,-606.5777 409,-576 405.8346,-559.1271 398.1654,-556.8729 395,-540 387.2098,-498.4744 355.0419,-445.9697 384.8709,-437.2522"/>
<polygon fill="#000000" stroke="#000000" points="385.505,-440.7005 395,-436 384.6461,-433.7534 385.505,-440.7005"/>
</g>
<!-- autorecon_resume_wfautorecon2_vol&#45;&gt;autorecon_resume_wfautorecon_surfs -->
<g id="edge1" class="edge">
<title>autorecon_resume_wfautorecon2_vol:e&#45;&gt;autorecon_resume_wfautorecon_surfs:w</title>
<path fill="none" stroke="#000000" d="M381,-611C401.0476,-611 380.3165,-535.5371 387.6208,-511.955"/>
<polygon fill="#000000" stroke="#000000" points="390.1234,-514.4058 395,-505 385.3222,-509.3118 390.1234,-514.4058"/>
</g>
<!-- autorecon_resume_wfautorecon2_vol&#45;&gt;autorecon_resume_wfautorecon_surfs -->
<g id="edge2" class="edge">
<title>autorecon_resume_wfautorecon2_vol:e&#45;&gt;autorecon_resume_wfautorecon_surfs:w</title>
<path fill="none" stroke="#000000" d="M381,-588C401.0476,-588 380.3165,-512.5371 387.6208,-488.955"/>
<polygon fill="#000000" stroke="#000000" points="390.1234,-491.4058 395,-482 385.3222,-486.3118 390.1234,-491.4058"/>
</g>
<!-- autorecon_resume_wfcortribbon -->
<g id="node4" class="node">
<title>autorecon_resume_wfcortribbon</title>
<polygon fill="none" stroke="#000000" points="735,-318.5 735,-387.5 1035,-387.5 1035,-318.5 735,-318.5"/>
<text text-anchor="middle" x="787" y="-372.3" font-family="Times,serif" font-size="14.00" fill="#000000">IN</text>
<polyline fill="none" stroke="#000000" points="735,-364.5 839,-364.5 "/>
<text text-anchor="middle" x="787" y="-349.3" font-family="Times,serif" font-size="14.00" fill="#000000">subject_id</text>
<polyline fill="none" stroke="#000000" points="735,-341.5 839,-341.5 "/>
<text text-anchor="middle" x="787" y="-326.3" font-family="Times,serif" font-size="14.00" fill="#000000">subjects_dir</text>
<polyline fill="none" stroke="#000000" points="839,-318.5 839,-387.5 "/>
<text text-anchor="middle" x="885" y="-372.3" font-family="Times,serif" font-size="14.00" fill="#000000">cortribbon</text>
<polyline fill="none" stroke="#000000" points="839,-364.5 931,-364.5 "/>
<text text-anchor="middle" x="885" y="-349.3" font-family="Times,serif" font-size="14.00" fill="#000000">freesurfer</text>
<polyline fill="none" stroke="#000000" points="839,-341.5 931,-341.5 "/>
<text text-anchor="middle" x="885" y="-326.3" font-family="Times,serif" font-size="14.00" fill="#000000"> </text>
<polyline fill="none" stroke="#000000" points="931,-318.5 931,-387.5 "/>
<text text-anchor="middle" x="983" y="-372.3" font-family="Times,serif" font-size="14.00" fill="#000000">OUT</text>
<polyline fill="none" stroke="#000000" points="931,-364.5 1035,-364.5 "/>
<text text-anchor="middle" x="983" y="-349.3" font-family="Times,serif" font-size="14.00" fill="#000000">subject_id</text>
<polyline fill="none" stroke="#000000" points="931,-341.5 1035,-341.5 "/>
<text text-anchor="middle" x="983" y="-326.3" font-family="Times,serif" font-size="14.00" fill="#000000">subjects_dir</text>
</g>
<!-- autorecon_resume_wfautorecon_surfs&#45;&gt;autorecon_resume_wfcortribbon -->
<g id="edge5" class="edge">
<title>autorecon_resume_wfautorecon_surfs:e&#45;&gt;autorecon_resume_wfcortribbon:w</title>
<path fill="none" stroke="#000000" d="M735,-483C788.4896,-483 693.4202,-371.5808 724.8581,-355.042"/>
<polygon fill="#000000" stroke="#000000" points="725.8876,-358.405 735,-353 724.5059,-351.5427 725.8876,-358.405"/>
</g>
<!-- autorecon_resume_wfautorecon_surfs&#45;&gt;autorecon_resume_wfcortribbon -->
<g id="edge6" class="edge">
<title>autorecon_resume_wfautorecon_surfs:e&#45;&gt;autorecon_resume_wfcortribbon:w</title>
<path fill="none" stroke="#000000" d="M735,-444C735,-444 735,-368.0168 735,-340.1167"/>
<polygon fill="#000000" stroke="#000000" points="738.5001,-340 735,-330 731.5001,-340 738.5001,-340"/>
</g>
<!-- autorecon_resume_wfparcstats -->
<g id="node5" class="node">
<title>autorecon_resume_wfparcstats</title>
<polygon fill="none" stroke="#000000" points="1035.5,-212.5 1035.5,-281.5 1332.5,-281.5 1332.5,-212.5 1035.5,-212.5"/>
<text text-anchor="middle" x="1087.5" y="-266.3" font-family="Times,serif" font-size="14.00" fill="#000000">IN</text>
<polyline fill="none" stroke="#000000" points="1035.5,-258.5 1139.5,-258.5 "/>
<text text-anchor="middle" x="1087.5" y="-243.3" font-family="Times,serif" font-size="14.00" fill="#000000">subject_id</text>
<polyline fill="none" stroke="#000000" points="1035.5,-235.5 1139.5,-235.5 "/>
<text text-anchor="middle" x="1087.5" y="-220.3" font-family="Times,serif" font-size="14.00" fill="#000000">subjects_dir</text>
<polyline fill="none" stroke="#000000" points="1139.5,-212.5 1139.5,-281.5 "/>
<text text-anchor="middle" x="1184" y="-266.3" font-family="Times,serif" font-size="14.00" fill="#000000">parcstats</text>
<polyline fill="none" stroke="#000000" points="1139.5,-258.5 1228.5,-258.5 "/>
<text text-anchor="middle" x="1184" y="-243.3" font-family="Times,serif" font-size="14.00" fill="#000000">freesurfer</text>
<polyline fill="none" stroke="#000000" points="1139.5,-235.5 1228.5,-235.5 "/>
<text text-anchor="middle" x="1184" y="-220.3" font-family="Times,serif" font-size="14.00" fill="#000000"> </text>
<polyline fill="none" stroke="#000000" points="1228.5,-212.5 1228.5,-281.5 "/>
<text text-anchor="middle" x="1280.5" y="-266.3" font-family="Times,serif" font-size="14.00" fill="#000000">OUT</text>
<polyline fill="none" stroke="#000000" points="1228.5,-258.5 1332.5,-258.5 "/>
<text text-anchor="middle" x="1280.5" y="-243.3" font-family="Times,serif" font-size="14.00" fill="#000000">subject_id</text>
<polyline fill="none" stroke="#000000" points="1228.5,-235.5 1332.5,-235.5 "/>
<text text-anchor="middle" x="1280.5" y="-220.3" font-family="Times,serif" font-size="14.00" fill="#000000">subjects_dir</text>
</g>
<!-- autorecon_resume_wfcortribbon&#45;&gt;autorecon_resume_wfparcstats -->
<g id="edge7" class="edge">
<title>autorecon_resume_wfcortribbon:e&#45;&gt;autorecon_resume_wfparcstats:w</title>
<path fill="none" stroke="#000000" d="M1035,-353C1077.6944,-353 1004.3134,-265.9434 1025.2437,-249.6202"/>
<polygon fill="#000000" stroke="#000000" points="1026.2501,-252.9741 1035,-247 1024.4344,-246.2136 1026.2501,-252.9741"/>
</g>
<!-- autorecon_resume_wfcortribbon&#45;&gt;autorecon_resume_wfparcstats -->
<g id="edge8" class="edge">
<title>autorecon_resume_wfcortribbon:e&#45;&gt;autorecon_resume_wfparcstats:w</title>
<path fill="none" stroke="#000000" d="M1035,-330C1035,-330 1035,-260.6947 1035,-234.1637"/>
<polygon fill="#000000" stroke="#000000" points="1038.5001,-234 1035,-224 1031.5001,-234 1038.5001,-234"/>
</g>
<!-- autorecon_resume_wfautorecon3 -->
<g id="node6" class="node">
<title>autorecon_resume_wfautorecon3</title>
<polygon fill="none" stroke="#000000" points="1333,-106.5 1333,-175.5 1639,-175.5 1639,-106.5 1333,-106.5"/>
<text text-anchor="middle" x="1385" y="-160.3" font-family="Times,serif" font-size="14.00" fill="#000000">IN</text>
<polyline fill="none" stroke="#000000" points="1333,-152.5 1437,-152.5 "/>
<text text-anchor="middle" x="1385" y="-137.3" font-family="Times,serif" font-size="14.00" fill="#000000">subject_id</text>
<polyline fill="none" stroke="#000000" points="1333,-129.5 1437,-129.5 "/>
<text text-anchor="middle" x="1385" y="-114.3" font-family="Times,serif" font-size="14.00" fill="#000000">subjects_dir</text>
<polyline fill="none" stroke="#000000" points="1437,-106.5 1437,-175.5 "/>
<text text-anchor="middle" x="1486" y="-160.3" font-family="Times,serif" font-size="14.00" fill="#000000">autorecon3</text>
<polyline fill="none" stroke="#000000" points="1437,-152.5 1535,-152.5 "/>
<text text-anchor="middle" x="1486" y="-137.3" font-family="Times,serif" font-size="14.00" fill="#000000">freesurfer</text>
<polyline fill="none" stroke="#000000" points="1437,-129.5 1535,-129.5 "/>
<text text-anchor="middle" x="1486" y="-114.3" font-family="Times,serif" font-size="14.00" fill="#000000"> </text>
<polyline fill="none" stroke="#000000" points="1535,-106.5 1535,-175.5 "/>
<text text-anchor="middle" x="1587" y="-160.3" font-family="Times,serif" font-size="14.00" fill="#000000">OUT</text>
<polyline fill="none" stroke="#000000" points="1535,-152.5 1639,-152.5 "/>
<text text-anchor="middle" x="1587" y="-137.3" font-family="Times,serif" font-size="14.00" fill="#000000">subject_id</text>
<polyline fill="none" stroke="#000000" points="1535,-129.5 1639,-129.5 "/>
<text text-anchor="middle" x="1587" y="-114.3" font-family="Times,serif" font-size="14.00" fill="#000000">subjects_dir</text>
</g>
<!-- autorecon_resume_wfparcstats&#45;&gt;autorecon_resume_wfautorecon3 -->
<g id="edge13" class="edge">
<title>autorecon_resume_wfparcstats:e&#45;&gt;autorecon_resume_wfautorecon3:w</title>
<path fill="none" stroke="#000000" d="M1333,-247C1375.6944,-247 1302.3134,-159.9434 1323.2437,-143.6202"/>
<polygon fill="#000000" stroke="#000000" points="1324.2501,-146.9741 1333,-141 1322.4344,-140.2136 1324.2501,-146.9741"/>
</g>
<!-- autorecon_resume_wfparcstats&#45;&gt;autorecon_resume_wfautorecon3 -->
<g id="edge14" class="edge">
<title>autorecon_resume_wfparcstats:e&#45;&gt;autorecon_resume_wfautorecon3:w</title>
<path fill="none" stroke="#000000" d="M1333,-224C1333,-224 1333,-154.6947 1333,-128.1637"/>
<polygon fill="#000000" stroke="#000000" points="1336.5001,-128 1333,-118 1329.5001,-128 1336.5001,-128"/>
</g>
<!-- autorecon_resume_wfoutputnode -->
<g id="node7" class="node">
<title>autorecon_resume_wfoutputnode</title>
<polygon fill="none" stroke="#000000" points="1639,-.5 1639,-69.5 1891,-69.5 1891,-.5 1639,-.5"/>
<text text-anchor="middle" x="1691" y="-54.3" font-family="Times,serif" font-size="14.00" fill="#000000">IN</text>
<polyline fill="none" stroke="#000000" points="1639,-46.5 1743,-46.5 "/>
<text text-anchor="middle" x="1691" y="-31.3" font-family="Times,serif" font-size="14.00" fill="#000000">subject_id</text>
<polyline fill="none" stroke="#000000" points="1639,-23.5 1743,-23.5 "/>
<text text-anchor="middle" x="1691" y="-8.3" font-family="Times,serif" font-size="14.00" fill="#000000">subjects_dir</text>
<polyline fill="none" stroke="#000000" points="1743,-.5 1743,-69.5 "/>
<text text-anchor="middle" x="1792" y="-54.3" font-family="Times,serif" font-size="14.00" fill="#000000">outputnode</text>
<polyline fill="none" stroke="#000000" points="1743,-46.5 1841,-46.5 "/>
<text text-anchor="middle" x="1792" y="-31.3" font-family="Times,serif" font-size="14.00" fill="#000000">utility</text>
<polyline fill="none" stroke="#000000" points="1743,-23.5 1841,-23.5 "/>
<text text-anchor="middle" x="1792" y="-8.3" font-family="Times,serif" font-size="14.00" fill="#000000"> </text>
<polyline fill="none" stroke="#000000" points="1841,-.5 1841,-69.5 "/>
<text text-anchor="middle" x="1866" y="-31.3" font-family="Times,serif" font-size="14.00" fill="#000000">OUT</text>
</g>
<!-- autorecon_resume_wfautorecon3&#45;&gt;autorecon_resume_wfoutputnode -->
<g id="edge3" class="edge">
<title>autorecon_resume_wfautorecon3:e&#45;&gt;autorecon_resume_wfoutputnode:w</title>
<path fill="none" stroke="#000000" d="M1639,-141C1681.6944,-141 1608.3134,-53.9434 1629.2437,-37.6202"/>
<polygon fill="#000000" stroke="#000000" points="1630.2501,-40.9741 1639,-35 1628.4344,-34.2136 1630.2501,-40.9741"/>
</g>
<!-- autorecon_resume_wfautorecon3&#45;&gt;autorecon_resume_wfoutputnode -->
<g id="edge4" class="edge">
<title>autorecon_resume_wfautorecon3:e&#45;&gt;autorecon_resume_wfoutputnode:w</title>
<path fill="none" stroke="#000000" d="M1639,-118C1639,-118 1639,-48.6947 1639,-22.1637"/>
<polygon fill="#000000" stroke="#000000" points="1642.5001,-22 1639,-12 1635.5001,-22 1642.5001,-22"/>
</g>
</g>
</svg>
