<?xml version="1.0" encoding="UTF-8" standalone="no"?>
<!DOCTYPE svg PUBLIC "-//W3C//DTD SVG 1.1//EN"
 "http://www.w3.org/Graphics/SVG/1.1/DTD/svg11.dtd">
<!-- Generated by graphviz version 2.40.1 (20161225.0304)
 -->
<!-- Title: structs Pages: 1 -->
<svg width="1131pt" height="594pt"
 viewBox="0.00 0.00 1131.00 594.00" xmlns="http://www.w3.org/2000/svg" xmlns:xlink="http://www.w3.org/1999/xlink">
<g id="graph0" class="graph" transform="scale(1 1) rotate(0) translate(4 590)">
<title>structs</title>
<polygon fill="#ffffff" stroke="transparent" points="-4,4 -4,-590 1127,-590 1127,4 -4,4"/>
<!-- autorecon_resume_wfinputnode -->
<g id="node1" class="node">
<title>autorecon_resume_wfinputnode</title>
<polygon fill="none" stroke="#000000" points="0,-470.5 0,-585.5 228,-585.5 228,-470.5 0,-470.5"/>
<text text-anchor="middle" x="17.5" y="-524.3" font-family="Times,serif" font-size="14.00" fill="#000000">IN</text>
<polyline fill="none" stroke="#000000" points="35,-470.5 35,-585.5 "/>
<text text-anchor="middle" x="79.5" y="-562.8" font-family="Times,serif" font-size="14.00" fill="#000000">inputnode</text>
<polyline fill="none" stroke="#000000" points="35,-547.5 124,-547.5 "/>
<text text-anchor="middle" x="79.5" y="-524.8" font-family="Times,serif" font-size="14.00" fill="#000000">utility</text>
<polyline fill="none" stroke="#000000" points="35,-509.5 124,-509.5 "/>
<text text-anchor="middle" x="79.5" y="-486.3" font-family="Times,serif" font-size="14.00" fill="#000000"> </text>
<polyline fill="none" stroke="#000000" points="124,-470.5 124,-585.5 "/>
<text text-anchor="middle" x="176" y="-570.3" font-family="Times,serif" font-size="14.00" fill="#000000">OUT</text>
<polyline fill="none" stroke="#000000" points="124,-562.5 228,-562.5 "/>
<text text-anchor="middle" x="176" y="-547.3" font-family="Times,serif" font-size="14.00" fill="#000000">subject_id</text>
<polyline fill="none" stroke="#000000" points="124,-539.5 228,-539.5 "/>
<text text-anchor="middle" x="176" y="-524.3" font-family="Times,serif" font-size="14.00" fill="#000000">subjects_dir</text>
<polyline fill="none" stroke="#000000" points="124,-516.5 228,-516.5 "/>
<text text-anchor="middle" x="176" y="-501.3" font-family="Times,serif" font-size="14.00" fill="#000000">use_FLAIR</text>
<polyline fill="none" stroke="#000000" points="124,-493.5 228,-493.5 "/>
<text text-anchor="middle" x="176" y="-478.3" font-family="Times,serif" font-size="14.00" fill="#000000">use_T2</text>
</g>
<!-- autorecon_resume_wfautorecon2_vol -->
<g id="node2" class="node">
<title>autorecon_resume_wfautorecon2_vol</title>
<polygon fill="none" stroke="#000000" points="47,-364.5 47,-433.5 381,-433.5 381,-364.5 47,-364.5"/>
<text text-anchor="middle" x="99" y="-418.3" font-family="Times,serif" font-size="14.00" fill="#000000">IN</text>
<polyline fill="none" stroke="#000000" points="47,-410.5 151,-410.5 "/>
<text text-anchor="middle" x="99" y="-395.3" font-family="Times,serif" font-size="14.00" fill="#000000">subject_id</text>
<polyline fill="none" stroke="#000000" points="47,-387.5 151,-387.5 "/>
<text text-anchor="middle" x="99" y="-372.3" font-family="Times,serif" font-size="14.00" fill="#000000">subjects_dir</text>
<polyline fill="none" stroke="#000000" points="151,-364.5 151,-433.5 "/>
<text text-anchor="middle" x="214" y="-418.3" font-family="Times,serif" font-size="14.00" fill="#000000">autorecon2_vol</text>
<polyline fill="none" stroke="#000000" points="151,-410.5 277,-410.5 "/>
<text text-anchor="middle" x="214" y="-395.3" font-family="Times,serif" font-size="14.00" fill="#000000">freesurfer</text>
<polyline fill="none" stroke="#000000" points="151,-387.5 277,-387.5 "/>
<text text-anchor="middle" x="214" y="-372.3" font-family="Times,serif" font-size="14.00" fill="#000000"> </text>
<polyline fill="none" stroke="#000000" points="277,-364.5 277,-433.5 "/>
<text text-anchor="middle" x="329" y="-418.3" font-family="Times,serif" font-size="14.00" fill="#000000">OUT</text>
<polyline fill="none" stroke="#000000" points="277,-410.5 381,-410.5 "/>
<text text-anchor="middle" x="329" y="-395.3" font-family="Times,serif" font-size="14.00" fill="#000000">subject_id</text>
<polyline fill="none" stroke="#000000" points="277,-387.5 381,-387.5 "/>
<text text-anchor="middle" x="329" y="-372.3" font-family="Times,serif" font-size="14.00" fill="#000000">subjects_dir</text>
</g>
<!-- autorecon_resume_wfinputnode&#45;&gt;autorecon_resume_wfautorecon2_vol -->
<g id="edge7" class="edge">
<title>autorecon_resume_wfinputnode:e&#45;&gt;autorecon_resume_wfautorecon2_vol:w</title>
<path fill="none" stroke="#000000" d="M228,-551C264,-551 250.8384,-497.8282 228,-470 175.9664,-406.598 99.0336,-497.402 47,-434 40.0613,-425.5453 35.1897,-411.6765 38.3161,-404.1871"/>
<polygon fill="#000000" stroke="#000000" points="40.2098,-407.1329 47,-399 36.6201,-401.1233 40.2098,-407.1329"/>
</g>
<!-- autorecon_resume_wfinputnode&#45;&gt;autorecon_resume_wfautorecon2_vol -->
<g id="edge8" class="edge">
<title>autorecon_resume_wfinputnode:e&#45;&gt;autorecon_resume_wfautorecon2_vol:w</title>
<path fill="none" stroke="#000000" d="M228,-528C253.7778,-528 244.3534,-489.9264 228,-470 175.9664,-406.598 99.0336,-497.402 47,-434 33.3296,-417.3428 24.5011,-388.0045 37.0302,-378.8262"/>
<polygon fill="#000000" stroke="#000000" points="38.3336,-382.0947 47,-376 36.4245,-375.36 38.3336,-382.0947"/>
</g>
<!-- autorecon_resume_wfautorecon3 -->
<g id="node4" class="node">
<title>autorecon_resume_wfautorecon3</title>
<polygon fill="none" stroke="#000000" points="565,-106.5 565,-221.5 871,-221.5 871,-106.5 565,-106.5"/>
<text text-anchor="middle" x="617" y="-206.3" font-family="Times,serif" font-size="14.00" fill="#000000">IN</text>
<polyline fill="none" stroke="#000000" points="565,-198.5 669,-198.5 "/>
<text text-anchor="middle" x="617" y="-183.3" font-family="Times,serif" font-size="14.00" fill="#000000">subject_id</text>
<polyline fill="none" stroke="#000000" points="565,-175.5 669,-175.5 "/>
<text text-anchor="middle" x="617" y="-160.3" font-family="Times,serif" font-size="14.00" fill="#000000">subjects_dir</text>
<polyline fill="none" stroke="#000000" points="565,-152.5 669,-152.5 "/>
<text text-anchor="middle" x="617" y="-137.3" font-family="Times,serif" font-size="14.00" fill="#000000">use_FLAIR</text>
<polyline fill="none" stroke="#000000" points="565,-129.5 669,-129.5 "/>
<text text-anchor="middle" x="617" y="-114.3" font-family="Times,serif" font-size="14.00" fill="#000000">use_T2</text>
<polyline fill="none" stroke="#000000" points="669,-106.5 669,-221.5 "/>
<text text-anchor="middle" x="718" y="-198.8" font-family="Times,serif" font-size="14.00" fill="#000000">autorecon3</text>
<polyline fill="none" stroke="#000000" points="669,-183.5 767,-183.5 "/>
<text text-anchor="middle" x="718" y="-160.8" font-family="Times,serif" font-size="14.00" fill="#000000">freesurfer</text>
<polyline fill="none" stroke="#000000" points="669,-145.5 767,-145.5 "/>
<text text-anchor="middle" x="718" y="-122.3" font-family="Times,serif" font-size="14.00" fill="#000000"> </text>
<polyline fill="none" stroke="#000000" points="767,-106.5 767,-221.5 "/>
<text text-anchor="middle" x="819" y="-198.8" font-family="Times,serif" font-size="14.00" fill="#000000">OUT</text>
<polyline fill="none" stroke="#000000" points="767,-183.5 871,-183.5 "/>
<text text-anchor="middle" x="819" y="-160.8" font-family="Times,serif" font-size="14.00" fill="#000000">subject_id</text>
<polyline fill="none" stroke="#000000" points="767,-145.5 871,-145.5 "/>
<text text-anchor="middle" x="819" y="-122.3" font-family="Times,serif" font-size="14.00" fill="#000000">subjects_dir</text>
</g>
<!-- autorecon_resume_wfinputnode&#45;&gt;autorecon_resume_wfautorecon3 -->
<g id="edge9" class="edge">
<title>autorecon_resume_wfinputnode:e&#45;&gt;autorecon_resume_wfautorecon3:w</title>
<path fill="none" stroke="#000000" d="M228,-505C395.2157,-505 476.9148,-473.1135 560,-328 599.4548,-259.0897 492.2667,-151.2323 554.989,-141.681"/>
<polygon fill="#000000" stroke="#000000" points="555.2606,-145.1707 565,-141 554.7855,-138.1868 555.2606,-145.1707"/>
</g>
<!-- autorecon_resume_wfinputnode&#45;&gt;autorecon_resume_wfautorecon3 -->
<g id="edge10" class="edge">
<title>autorecon_resume_wfinputnode:e&#45;&gt;autorecon_resume_wfautorecon3:w</title>
<path fill="none" stroke="#000000" d="M228,-482C294.1984,-482 468.2498,-472.6412 522,-434 565.2622,-402.8986 565.1788,-379.7159 578,-328 585.4863,-297.803 583.3637,-288.6453 578,-258 575.0672,-241.2435 567.9328,-238.7565 565,-222 557.7159,-180.3826 525.1289,-127.9539 554.8821,-119.2501"/>
<polygon fill="#000000" stroke="#000000" points="555.5047,-122.6999 565,-118 554.6463,-115.7527 555.5047,-122.6999"/>
</g>
<!-- autorecon_resume_wfautorecon_surfs -->
<g id="node3" class="node">
<title>autorecon_resume_wfautorecon_surfs</title>
<polygon fill="none" stroke="#000000" points="211,-258.5 211,-327.5 551,-327.5 551,-258.5 211,-258.5"/>
<text text-anchor="middle" x="263" y="-312.3" font-family="Times,serif" font-size="14.00" fill="#000000">IN</text>
<polyline fill="none" stroke="#000000" points="211,-304.5 315,-304.5 "/>
<text text-anchor="middle" x="263" y="-289.3" font-family="Times,serif" font-size="14.00" fill="#000000">subject_id</text>
<polyline fill="none" stroke="#000000" points="211,-281.5 315,-281.5 "/>
<text text-anchor="middle" x="263" y="-266.3" font-family="Times,serif" font-size="14.00" fill="#000000">subjects_dir</text>
<polyline fill="none" stroke="#000000" points="315,-258.5 315,-327.5 "/>
<text text-anchor="middle" x="381" y="-312.3" font-family="Times,serif" font-size="14.00" fill="#000000">autorecon_surfs</text>
<polyline fill="none" stroke="#000000" points="315,-304.5 447,-304.5 "/>
<text text-anchor="middle" x="381" y="-289.3" font-family="Times,serif" font-size="14.00" fill="#000000">freesurfer</text>
<polyline fill="none" stroke="#000000" points="315,-281.5 447,-281.5 "/>
<text text-anchor="middle" x="381" y="-266.3" font-family="Times,serif" font-size="14.00" fill="#000000"> </text>
<polyline fill="none" stroke="#000000" points="447,-258.5 447,-327.5 "/>
<text text-anchor="middle" x="499" y="-312.3" font-family="Times,serif" font-size="14.00" fill="#000000">OUT</text>
<polyline fill="none" stroke="#000000" points="447,-304.5 551,-304.5 "/>
<text text-anchor="middle" x="499" y="-289.3" font-family="Times,serif" font-size="14.00" fill="#000000">subject_id</text>
<polyline fill="none" stroke="#000000" points="447,-281.5 551,-281.5 "/>
<text text-anchor="middle" x="499" y="-266.3" font-family="Times,serif" font-size="14.00" fill="#000000">subjects_dir</text>
</g>
<!-- autorecon_resume_wfautorecon2_vol&#45;&gt;autorecon_resume_wfautorecon_surfs -->
<g id="edge1" class="edge">
<title>autorecon_resume_wfautorecon2_vol:e&#45;&gt;autorecon_resume_wfautorecon_surfs:w</title>
<path fill="none" stroke="#000000" d="M381,-399C396.5556,-399 390.794,-376.0852 381,-364 332.3742,-303.9986 259.6258,-388.0014 211,-328 204.1136,-319.5026 199.2208,-305.6512 202.3299,-298.1758"/>
<polygon fill="#000000" stroke="#000000" points="204.2077,-301.1311 211,-293 200.6196,-295.1207 204.2077,-301.1311"/>
</g>
<!-- autorecon_resume_wfautorecon2_vol&#45;&gt;autorecon_resume_wfautorecon_surfs -->
<g id="edge2" class="edge">
<title>autorecon_resume_wfautorecon2_vol:e&#45;&gt;autorecon_resume_wfautorecon_surfs:w</title>
<path fill="none" stroke="#000000" d="M381,-376C386.3333,-376 384.3579,-368.1435 381,-364 332.3742,-303.9986 259.6258,-388.0014 211,-328 197.4327,-311.2587 188.5349,-281.9769 201.0385,-272.8194"/>
<polygon fill="#000000" stroke="#000000" points="202.3311,-276.0911 211,-270 200.4248,-269.3557 202.3311,-276.0911"/>
</g>
<!-- autorecon_resume_wfautorecon_surfs&#45;&gt;autorecon_resume_wfautorecon3 -->
<g id="edge5" class="edge">
<title>autorecon_resume_wfautorecon_surfs:e&#45;&gt;autorecon_resume_wfautorecon3:w</title>
<path fill="none" stroke="#000000" d="M551,-293C571.0476,-293 550.3165,-217.5371 557.6208,-193.955"/>
<polygon fill="#000000" stroke="#000000" points="560.1234,-196.4058 565,-187 555.3222,-191.3118 560.1234,-196.4058"/>
</g>
<!-- autorecon_resume_wfautorecon_surfs&#45;&gt;autorecon_resume_wfautorecon3 -->
<g id="edge6" class="edge">
<title>autorecon_resume_wfautorecon_surfs:e&#45;&gt;autorecon_resume_wfautorecon3:w</title>
<path fill="none" stroke="#000000" d="M551,-270C571.0476,-270 550.3165,-194.5371 557.6208,-170.955"/>
<polygon fill="#000000" stroke="#000000" points="560.1234,-173.4058 565,-164 555.3222,-168.3118 560.1234,-173.4058"/>
</g>
<!-- autorecon_resume_wfoutputnode -->
<g id="node5" class="node">
<title>autorecon_resume_wfoutputnode</title>
<polygon fill="none" stroke="#000000" points="871,-.5 871,-69.5 1123,-69.5 1123,-.5 871,-.5"/>
<text text-anchor="middle" x="923" y="-54.3" font-family="Times,serif" font-size="14.00" fill="#000000">IN</text>
<polyline fill="none" stroke="#000000" points="871,-46.5 975,-46.5 "/>
<text text-anchor="middle" x="923" y="-31.3" font-family="Times,serif" font-size="14.00" fill="#000000">subject_id</text>
<polyline fill="none" stroke="#000000" points="871,-23.5 975,-23.5 "/>
<text text-anchor="middle" x="923" y="-8.3" font-family="Times,serif" font-size="14.00" fill="#000000">subjects_dir</text>
<polyline fill="none" stroke="#000000" points="975,-.5 975,-69.5 "/>
<text text-anchor="middle" x="1024" y="-54.3" font-family="Times,serif" font-size="14.00" fill="#000000">outputnode</text>
<polyline fill="none" stroke="#000000" points="975,-46.5 1073,-46.5 "/>
<text text-anchor="middle" x="1024" y="-31.3" font-family="Times,serif" font-size="14.00" fill="#000000">utility</text>
<polyline fill="none" stroke="#000000" points="975,-23.5 1073,-23.5 "/>
<text text-anchor="middle" x="1024" y="-8.3" font-family="Times,serif" font-size="14.00" fill="#000000"> </text>
<polyline fill="none" stroke="#000000" points="1073,-.5 1073,-69.5 "/>
<text text-anchor="middle" x="1098" y="-31.3" font-family="Times,serif" font-size="14.00" fill="#000000">OUT</text>
</g>
<!-- autorecon_resume_wfautorecon3&#45;&gt;autorecon_resume_wfoutputnode -->
<g id="edge3" class="edge">
<title>autorecon_resume_wfautorecon3:e&#45;&gt;autorecon_resume_wfoutputnode:w</title>
<path fill="none" stroke="#000000" d="M871,-165C924.4896,-165 829.4202,-53.5808 860.8581,-37.042"/>
<polygon fill="#000000" stroke="#000000" points="861.8876,-40.405 871,-35 860.5059,-33.5427 861.8876,-40.405"/>
</g>
<!-- autorecon_resume_wfautorecon3&#45;&gt;autorecon_resume_wfoutputnode -->
<g id="edge4" class="edge">
<title>autorecon_resume_wfautorecon3:e&#45;&gt;autorecon_resume_wfoutputnode:w</title>
<path fill="none" stroke="#000000" d="M871,-126C871,-126 871,-50.0168 871,-22.1167"/>
<polygon fill="#000000" stroke="#000000" points="874.5001,-22 871,-12 867.5001,-22 874.5001,-22"/>
</g>
</g>
</svg>
