<?xml version="1.0" encoding="UTF-8" standalone="no"?>
<!DOCTYPE svg PUBLIC "-//W3C//DTD SVG 1.1//EN"
 "http://www.w3.org/Graphics/SVG/1.1/DTD/svg11.dtd">
<!-- Generated by graphviz version 2.40.1 (20161225.0304)
 -->
<!-- Title: %3 Pages: 1 -->
<svg width="815pt" height="404pt"
 viewBox="0.00 0.00 814.83 404.00" xmlns="http://www.w3.org/2000/svg" xmlns:xlink="http://www.w3.org/1999/xlink">
<g id="graph0" class="graph" transform="scale(1 1) rotate(0) translate(4 400)">
<title>%3</title>
<polygon fill="#ffffff" stroke="transparent" points="-4,4 -4,-400 810.8309,-400 810.8309,4 -4,4"/>
<!-- inputnode (utility) -->
<g id="node1" class="node">
<title>inputnode (utility)</title>
<ellipse fill="none" stroke="#000000" cx="340.6884" cy="-378" rx="94.7833" ry="18"/>
<text text-anchor="middle" x="340.6884" y="-374.3" font-family="Times,serif" font-size="14.00" fill="#000000">inputnode (utility)</text>
</g>
<!-- tf_select (templateflow) -->
<g id="node2" class="node">
<title>tf_select (templateflow)</title>
<ellipse fill="none" stroke="#000000" cx="509.6884" cy="-234" rx="121.5784" ry="18"/>
<text text-anchor="middle" x="509.6884" y="-230.3" font-family="Times,serif" font-size="14.00" fill="#000000">tf_select (templateflow)</text>
</g>
<!-- inputnode (utility)&#45;&gt;tf_select (templateflow) -->
<g id="edge1" class="edge">
<title>inputnode (utility)&#45;&gt;tf_select (templateflow)</title>
<path fill="none" stroke="#000000" d="M361.4111,-360.3428C391.4395,-334.7565 447.1576,-287.2807 481.0819,-258.3748"/>
<polygon fill="#000000" stroke="#000000" points="483.4546,-260.9514 488.7962,-251.8017 478.9146,-255.6232 483.4546,-260.9514"/>
</g>
<!-- registration (mni) -->
<g id="node3" class="node">
<title>registration (mni)</title>
<ellipse fill="none" stroke="#000000" cx="238.6884" cy="-234" rx="92.8835" ry="18"/>
<text text-anchor="middle" x="238.6884" y="-230.3" font-family="Times,serif" font-size="14.00" fill="#000000">registration (mni)</text>
</g>
<!-- inputnode (utility)&#45;&gt;registration (mni) -->
<g id="edge2" class="edge">
<title>inputnode (utility)&#45;&gt;registration (mni)</title>
<path fill="none" stroke="#000000" d="M335.7774,-359.8107C330.0045,-340.6612 319.0813,-310.2614 302.6884,-288 294.3766,-276.7126 283.2467,-266.2673 272.6008,-257.631"/>
<polygon fill="#000000" stroke="#000000" points="274.646,-254.7875 264.6088,-251.3955 270.34,-260.3064 274.646,-254.7875"/>
</g>
<!-- trunc_mov (ants) -->
<g id="node4" class="node">
<title>trunc_mov (ants)</title>
<ellipse fill="none" stroke="#000000" cx="203.6884" cy="-306" rx="90.1842" ry="18"/>
<text text-anchor="middle" x="203.6884" y="-302.3" font-family="Times,serif" font-size="14.00" fill="#000000">trunc_mov (ants)</text>
</g>
<!-- inputnode (utility)&#45;&gt;trunc_mov (ants) -->
<g id="edge3" class="edge">
<title>inputnode (utility)&#45;&gt;trunc_mov (ants)</title>
<path fill="none" stroke="#000000" d="M308.2213,-360.937C289.2829,-350.984 265.2075,-338.3312 244.9364,-327.6778"/>
<polygon fill="#000000" stroke="#000000" points="246.4027,-324.4945 235.9225,-322.9405 243.1462,-330.6909 246.4027,-324.4945"/>
</g>
<!-- tpl_moving (fixes) -->
<g id="node5" class="node">
<title>tpl_moving (fixes)</title>
<ellipse fill="none" stroke="#000000" cx="108.6884" cy="-162" rx="94.4839" ry="18"/>
<text text-anchor="middle" x="108.6884" y="-158.3" font-family="Times,serif" font-size="14.00" fill="#000000">tpl_moving (fixes)</text>
</g>
<!-- inputnode (utility)&#45;&gt;tpl_moving (fixes) -->
<g id="edge4" class="edge">
<title>inputnode (utility)&#45;&gt;tpl_moving (fixes)</title>
<path fill="none" stroke="#000000" d="M256.1501,-369.7065C196.3673,-361.891 123.6158,-347.7474 104.6884,-324 74.2853,-285.8545 86.9002,-225.0681 98.2085,-189.8072"/>
<polygon fill="#000000" stroke="#000000" points="101.5838,-190.752 101.4765,-180.1577 94.9537,-188.5065 101.5838,-190.752"/>
</g>
<!-- std_mask (fixes) -->
<g id="node6" class="node">
<title>std_mask (fixes)</title>
<ellipse fill="none" stroke="#000000" cx="345.6884" cy="-162" rx="87.1846" ry="18"/>
<text text-anchor="middle" x="345.6884" y="-158.3" font-family="Times,serif" font-size="14.00" fill="#000000">std_mask (fixes)</text>
</g>
<!-- inputnode (utility)&#45;&gt;std_mask (fixes) -->
<g id="edge5" class="edge">
<title>inputnode (utility)&#45;&gt;std_mask (fixes)</title>
<path fill="none" stroke="#000000" d="M341.1061,-359.9555C341.9756,-322.3938 343.9858,-235.5541 345.0308,-190.4103"/>
<polygon fill="#000000" stroke="#000000" points="348.5359,-190.2234 345.2684,-180.1451 341.5378,-190.0614 348.5359,-190.2234"/>
</g>
<!-- std_dseg (fixes) -->
<g id="node7" class="node">
<title>std_dseg (fixes)</title>
<ellipse fill="none" stroke="#000000" cx="534.6884" cy="-162" rx="83.6854" ry="18"/>
<text text-anchor="middle" x="534.6884" y="-158.3" font-family="Times,serif" font-size="14.00" fill="#000000">std_dseg (fixes)</text>
</g>
<!-- inputnode (utility)&#45;&gt;std_dseg (fixes) -->
<g id="edge6" class="edge">
<title>inputnode (utility)&#45;&gt;std_dseg (fixes)</title>
<path fill="none" stroke="#000000" d="M421.9889,-368.5647C493.1107,-355.5327 592.3784,-324.6883 640.6884,-252 649.5447,-238.6746 649.0489,-229.6419 640.6884,-216 630.7633,-199.8049 614.2887,-188.2767 597.2516,-180.1524"/>
<polygon fill="#000000" stroke="#000000" points="598.3296,-176.803 587.7666,-175.9811 595.5115,-183.2107 598.3296,-176.803"/>
</g>
<!-- std_tpms (fixes) -->
<g id="node8" class="node">
<title>std_tpms (fixes)</title>
<ellipse fill="none" stroke="#000000" cx="721.6884" cy="-162" rx="85.2851" ry="18"/>
<text text-anchor="middle" x="721.6884" y="-158.3" font-family="Times,serif" font-size="14.00" fill="#000000">std_tpms (fixes)</text>
</g>
<!-- inputnode (utility)&#45;&gt;std_tpms (fixes) -->
<g id="edge7" class="edge">
<title>inputnode (utility)&#45;&gt;std_tpms (fixes)</title>
<path fill="none" stroke="#000000" d="M417.4873,-367.407C481.5138,-357.5624 566.896,-341.7737 596.6884,-324 650.8781,-291.6713 690.0476,-226.213 708.9518,-189.1635"/>
<polygon fill="#000000" stroke="#000000" points="712.2119,-190.4681 713.5304,-179.9556 705.944,-187.3513 712.2119,-190.4681"/>
</g>
<!-- poutputnode (utility) -->
<g id="node9" class="node">
<title>poutputnode (utility)</title>
<ellipse fill="none" stroke="#000000" cx="287.6884" cy="-90" rx="107.4815" ry="18"/>
<text text-anchor="middle" x="287.6884" y="-86.3" font-family="Times,serif" font-size="14.00" fill="#000000">poutputnode (utility)</text>
</g>
<!-- inputnode (utility)&#45;&gt;poutputnode (utility) -->
<g id="edge8" class="edge">
<title>inputnode (utility)&#45;&gt;poutputnode (utility)</title>
<path fill="none" stroke="#000000" d="M259.7343,-368.4952C195.1804,-359.5672 111.1918,-344.509 83.6884,-324 25.3393,-280.4895 23.5698,-250.5552 5.6884,-180 1.7577,-164.4903 -4.506,-156.3318 5.6884,-144 27.5221,-117.5888 107.2429,-103.9709 176.3751,-97.0228"/>
<polygon fill="#000000" stroke="#000000" points="176.873,-100.491 186.49,-96.0453 176.1996,-93.5235 176.873,-100.491"/>
</g>
<!-- tf_select (templateflow)&#45;&gt;tpl_moving (fixes) -->
<g id="edge9" class="edge">
<title>tf_select (templateflow)&#45;&gt;tpl_moving (fixes)</title>
<path fill="none" stroke="#000000" d="M431.8961,-220.0323C361.561,-207.4036 258.4916,-188.8973 187.7624,-176.1978"/>
<polygon fill="#000000" stroke="#000000" points="188.0305,-172.6901 177.5693,-174.3676 186.7934,-179.5799 188.0305,-172.6901"/>
</g>
<!-- tf_select (templateflow)&#45;&gt;std_mask (fixes) -->
<g id="edge10" class="edge">
<title>tf_select (templateflow)&#45;&gt;std_mask (fixes)</title>
<path fill="none" stroke="#000000" d="M470.8227,-216.937C447.2213,-206.5754 416.9554,-193.2879 392.1012,-182.3763"/>
<polygon fill="#000000" stroke="#000000" points="393.4292,-179.1369 382.8657,-178.3217 390.6152,-185.5465 393.4292,-179.1369"/>
</g>
<!-- tf_select (templateflow)&#45;&gt;std_dseg (fixes) -->
<g id="edge11" class="edge">
<title>tf_select (templateflow)&#45;&gt;std_dseg (fixes)</title>
<path fill="none" stroke="#000000" d="M515.997,-215.8314C518.7001,-208.0463 521.92,-198.7729 524.9194,-190.1347"/>
<polygon fill="#000000" stroke="#000000" points="528.3211,-191.0081 528.2949,-180.4133 521.7084,-188.7119 528.3211,-191.0081"/>
</g>
<!-- tf_select (templateflow)&#45;&gt;std_tpms (fixes) -->
<g id="edge12" class="edge">
<title>tf_select (templateflow)&#45;&gt;std_tpms (fixes)</title>
<path fill="none" stroke="#000000" d="M558.3255,-217.4817C590.7029,-206.4857 633.298,-192.0194 666.8756,-180.6157"/>
<polygon fill="#000000" stroke="#000000" points="668.1939,-183.8644 676.5371,-177.3344 665.9427,-177.2362 668.1939,-183.8644"/>
</g>
<!-- registration (mni)&#45;&gt;tpl_moving (fixes) -->
<g id="edge13" class="edge">
<title>registration (mni)&#45;&gt;tpl_moving (fixes)</title>
<path fill="none" stroke="#000000" d="M207.8802,-216.937C190.1201,-207.1006 167.5989,-194.6274 148.5065,-184.0531"/>
<polygon fill="#000000" stroke="#000000" points="150.1697,-180.9733 139.726,-179.19 146.7781,-187.0969 150.1697,-180.9733"/>
</g>
<!-- registration (mni)&#45;&gt;std_mask (fixes) -->
<g id="edge14" class="edge">
<title>registration (mni)&#45;&gt;std_mask (fixes)</title>
<path fill="none" stroke="#000000" d="M264.5901,-216.5708C278.6532,-207.1078 296.2197,-195.2874 311.4044,-185.0696"/>
<polygon fill="#000000" stroke="#000000" points="313.6826,-187.7553 320.0252,-179.2687 309.7747,-181.9477 313.6826,-187.7553"/>
</g>
<!-- registration (mni)&#45;&gt;std_dseg (fixes) -->
<g id="edge15" class="edge">
<title>registration (mni)&#45;&gt;std_dseg (fixes)</title>
<path fill="none" stroke="#000000" d="M296.8153,-219.861C346.4811,-207.7801 417.8786,-190.4132 469.4798,-177.8615"/>
<polygon fill="#000000" stroke="#000000" points="470.3096,-181.2619 479.199,-175.4974 468.6551,-174.4602 470.3096,-181.2619"/>
</g>
<!-- registration (mni)&#45;&gt;std_tpms (fixes) -->
<g id="edge16" class="edge">
<title>registration (mni)&#45;&gt;std_tpms (fixes)</title>
<path fill="none" stroke="#000000" d="M315.666,-223.791C411.3974,-211.0114 569.3297,-189.6316 627.6884,-180 634.7891,-178.8281 642.1779,-177.5375 649.5539,-176.2019"/>
<polygon fill="#000000" stroke="#000000" points="650.3736,-179.6099 659.5761,-174.3596 649.1081,-172.7253 650.3736,-179.6099"/>
</g>
<!-- registration (mni)&#45;&gt;poutputnode (utility) -->
<g id="edge17" class="edge">
<title>registration (mni)&#45;&gt;poutputnode (utility)</title>
<path fill="none" stroke="#000000" d="M238.3477,-215.7882C238.5812,-197.1513 240.585,-167.652 249.6884,-144 253.4169,-134.3128 259.2618,-124.7228 265.2595,-116.3731"/>
<polygon fill="#000000" stroke="#000000" points="268.2278,-118.2512 271.4827,-108.1687 262.6507,-114.0208 268.2278,-118.2512"/>
</g>
<!-- trunc_mov (ants)&#45;&gt;registration (mni) -->
<g id="edge18" class="edge">
<title>trunc_mov (ants)&#45;&gt;registration (mni)</title>
<path fill="none" stroke="#000000" d="M212.5204,-287.8314C216.3871,-279.8771 221.009,-270.369 225.2852,-261.5723"/>
<polygon fill="#000000" stroke="#000000" points="228.5133,-262.9371 229.7375,-252.4133 222.2178,-259.8768 228.5133,-262.9371"/>
</g>
<!-- tpl_moving (fixes)&#45;&gt;poutputnode (utility) -->
<g id="edge19" class="edge">
<title>tpl_moving (fixes)&#45;&gt;poutputnode (utility)</title>
<path fill="none" stroke="#000000" d="M149.3063,-145.6621C175.2343,-135.233 209.0576,-121.6281 236.7745,-110.4793"/>
<polygon fill="#000000" stroke="#000000" points="238.3293,-113.6265 246.3008,-106.6476 235.717,-107.1322 238.3293,-113.6265"/>
</g>
<!-- std_mask (fixes)&#45;&gt;poutputnode (utility) -->
<g id="edge20" class="edge">
<title>std_mask (fixes)&#45;&gt;poutputnode (utility)</title>
<path fill="none" stroke="#000000" d="M331.3513,-144.2022C324.4498,-135.6348 316.0447,-125.2009 308.4588,-115.7839"/>
<polygon fill="#000000" stroke="#000000" points="311.0606,-113.4344 302.0616,-107.8425 305.6093,-117.8258 311.0606,-113.4344"/>
</g>
<!-- std_dseg (fixes)&#45;&gt;poutputnode (utility) -->
<g id="edge21" class="edge">
<title>std_dseg (fixes)&#45;&gt;poutputnode (utility)</title>
<path fill="none" stroke="#000000" d="M484.7043,-147.4297C446.2059,-136.2075 392.7223,-120.6172 351.1938,-108.5117"/>
<polygon fill="#000000" stroke="#000000" points="352.0302,-105.1099 341.4503,-105.6715 350.0712,-111.8302 352.0302,-105.1099"/>
</g>
<!-- std_tpms (fixes)&#45;&gt;poutputnode (utility) -->
<g id="edge22" class="edge">
<title>std_tpms (fixes)&#45;&gt;poutputnode (utility)</title>
<path fill="none" stroke="#000000" d="M659.0409,-149.7173C648.5818,-147.749 637.8359,-145.7769 627.6884,-144 543.0993,-129.1875 446.3579,-113.9915 377.7526,-103.5087"/>
<polygon fill="#000000" stroke="#000000" points="378.2529,-100.0446 367.8395,-101.9969 377.1975,-106.9646 378.2529,-100.0446"/>
</g>
<!-- outputnode (utility) -->
<g id="node10" class="node">
<title>outputnode (utility)</title>
<ellipse fill="none" stroke="#000000" cx="287.6884" cy="-18" rx="101.2821" ry="18"/>
<text text-anchor="middle" x="287.6884" y="-14.3" font-family="Times,serif" font-size="14.00" fill="#000000">outputnode (utility)</text>
</g>
<!-- poutputnode (utility)&#45;&gt;outputnode (utility) -->
<g id="edge23" class="edge">
<title>poutputnode (utility)&#45;&gt;outputnode (utility)</title>
<path fill="none" stroke="#000000" d="M287.6884,-71.8314C287.6884,-64.131 287.6884,-54.9743 287.6884,-46.4166"/>
<polygon fill="#000000" stroke="#000000" points="291.1885,-46.4132 287.6884,-36.4133 284.1885,-46.4133 291.1885,-46.4132"/>
</g>
</g>
</svg>
