<?xml version="1.0" encoding="UTF-8" standalone="no"?>
<!DOCTYPE svg PUBLIC "-//W3C//DTD SVG 1.1//EN"
 "http://www.w3.org/Graphics/SVG/1.1/DTD/svg11.dtd">
<!-- Generated by graphviz version 2.40.1 (20161225.0304)
 -->
<!-- Title: %3 Pages: 1 -->
<svg width="850pt" height="692pt"
 viewBox="0.00 0.00 850.44 692.00" xmlns="http://www.w3.org/2000/svg" xmlns:xlink="http://www.w3.org/1999/xlink">
<g id="graph0" class="graph" transform="scale(1 1) rotate(0) translate(4 688)">
<title>%3</title>
<polygon fill="#ffffff" stroke="transparent" points="-4,4 -4,-688 846.4423,-688 846.4423,4 -4,4"/>
<!-- outputnode (utility) -->
<g id="node1" class="node">
<title>outputnode (utility)</title>
<ellipse fill="none" stroke="#000000" cx="238.4423" cy="-90" rx="101.2821" ry="18"/>
<text text-anchor="middle" x="238.4423" y="-86.3" font-family="Times,serif" font-size="14.00" fill="#000000">outputnode (utility)</text>
</g>
<!-- anat_reports_wf -->
<g id="node2" class="node">
<title>anat_reports_wf</title>
<ellipse fill="none" stroke="#000000" cx="86.4423" cy="-18" rx="86.3847" ry="18"/>
<text text-anchor="middle" x="86.4423" y="-14.3" font-family="Times,serif" font-size="14.00" fill="#000000">anat_reports_wf</text>
</g>
<!-- outputnode (utility)&#45;&gt;anat_reports_wf -->
<g id="edge1" class="edge">
<title>outputnode (utility)&#45;&gt;anat_reports_wf</title>
<path fill="none" stroke="#000000" d="M202.8051,-73.1192C181.211,-62.8904 153.4926,-49.7606 130.5259,-38.8817"/>
<polygon fill="#000000" stroke="#000000" points="131.8678,-35.6446 121.3321,-34.5267 128.8711,-41.9707 131.8678,-35.6446"/>
</g>
<!-- anat_derivatives_wf -->
<g id="node3" class="node">
<title>anat_derivatives_wf</title>
<ellipse fill="none" stroke="#000000" cx="708.4423" cy="-18" rx="103.9815" ry="18"/>
<text text-anchor="middle" x="708.4423" y="-14.3" font-family="Times,serif" font-size="14.00" fill="#000000">anat_derivatives_wf</text>
</g>
<!-- outputnode (utility)&#45;&gt;anat_derivatives_wf -->
<g id="edge2" class="edge">
<title>outputnode (utility)&#45;&gt;anat_derivatives_wf</title>
<path fill="none" stroke="#000000" d="M315.2643,-78.2315C398.9692,-65.4087 532.6481,-44.9302 620.4941,-31.4729"/>
<polygon fill="#000000" stroke="#000000" points="621.0863,-34.9231 630.441,-29.9491 620.0263,-28.0038 621.0863,-34.9231"/>
</g>
<!-- inputnode (utility) -->
<g id="node4" class="node">
<title>inputnode (utility)</title>
<ellipse fill="none" stroke="#000000" cx="409.4423" cy="-666" rx="94.7833" ry="18"/>
<text text-anchor="middle" x="409.4423" y="-662.3" font-family="Times,serif" font-size="14.00" fill="#000000">inputnode (utility)</text>
</g>
<!-- inputnode (utility)&#45;&gt;anat_reports_wf -->
<g id="edge5" class="edge">
<title>inputnode (utility)&#45;&gt;anat_reports_wf</title>
<path fill="none" stroke="#000000" d="M334.8615,-654.7137C219.3765,-635.1084 10.4423,-590.2128 10.4423,-522 10.4423,-522 10.4423,-522 10.4423,-162 10.4423,-116.3998 40.6189,-71.0908 62.9419,-43.812"/>
<polygon fill="#000000" stroke="#000000" points="65.805,-45.8459 69.5755,-35.9447 60.4535,-41.3336 65.805,-45.8459"/>
</g>
<!-- anat_template_wf -->
<g id="node5" class="node">
<title>anat_template_wf</title>
<ellipse fill="none" stroke="#000000" cx="318.4423" cy="-594" rx="93.6835" ry="18"/>
<text text-anchor="middle" x="318.4423" y="-590.3" font-family="Times,serif" font-size="14.00" fill="#000000">anat_template_wf</text>
</g>
<!-- inputnode (utility)&#45;&gt;anat_template_wf -->
<g id="edge3" class="edge">
<title>inputnode (utility)&#45;&gt;anat_template_wf</title>
<path fill="none" stroke="#000000" d="M386.9479,-648.2022C375.3771,-639.0473 361.1125,-627.761 348.6009,-617.8617"/>
<polygon fill="#000000" stroke="#000000" points="350.6919,-615.0531 340.678,-611.593 346.3485,-620.5427 350.6919,-615.0531"/>
</g>
<!-- anat_norm_wf -->
<g id="node6" class="node">
<title>anat_norm_wf</title>
<ellipse fill="none" stroke="#000000" cx="507.4423" cy="-162" rx="76.8869" ry="18"/>
<text text-anchor="middle" x="507.4423" y="-158.3" font-family="Times,serif" font-size="14.00" fill="#000000">anat_norm_wf</text>
</g>
<!-- inputnode (utility)&#45;&gt;anat_norm_wf -->
<g id="edge4" class="edge">
<title>inputnode (utility)&#45;&gt;anat_norm_wf</title>
<path fill="none" stroke="#000000" d="M476.5913,-653.18C580.0055,-631.4916 766.4423,-583.8189 766.4423,-522 766.4423,-522 766.4423,-522 766.4423,-306 766.4423,-262.9187 763.0028,-244.2102 730.4423,-216 708.5125,-197.0001 639.3248,-182.1373 583.7675,-172.856"/>
<polygon fill="#000000" stroke="#000000" points="584.0005,-169.3477 573.5668,-171.1881 582.871,-176.2559 584.0005,-169.3477"/>
</g>
<!-- surface_recon_wf -->
<g id="node7" class="node">
<title>surface_recon_wf</title>
<ellipse fill="none" stroke="#000000" cx="464.4423" cy="-378" rx="92.8835" ry="18"/>
<text text-anchor="middle" x="464.4423" y="-374.3" font-family="Times,serif" font-size="14.00" fill="#000000">surface_recon_wf</text>
</g>
<!-- inputnode (utility)&#45;&gt;surface_recon_wf -->
<g id="edge6" class="edge">
<title>inputnode (utility)&#45;&gt;surface_recon_wf</title>
<path fill="none" stroke="#000000" d="M415.1779,-647.8198C422.6618,-623.4896 435.7113,-578.8895 443.4423,-540 452.683,-493.5168 458.8079,-438.6896 461.9472,-406.2187"/>
<polygon fill="#000000" stroke="#000000" points="465.4463,-406.392 462.8976,-396.1083 458.477,-405.7368 465.4463,-406.392"/>
</g>
<!-- anat_template_wf&#45;&gt;outputnode (utility) -->
<g id="edge8" class="edge">
<title>anat_template_wf&#45;&gt;outputnode (utility)</title>
<path fill="none" stroke="#000000" d="M250.0895,-581.6966C181.6552,-564.9771 86.4423,-527.7453 86.4423,-450 86.4423,-450 86.4423,-450 86.4423,-378 86.4423,-267.3512 107.1131,-234.0272 171.4423,-144 179.6788,-132.4733 191.0065,-122.0766 202.0053,-113.5544"/>
<polygon fill="#000000" stroke="#000000" points="204.342,-116.1792 210.2953,-107.4151 200.1761,-110.5538 204.342,-116.1792"/>
</g>
<!-- anat_template_wf&#45;&gt;anat_reports_wf -->
<g id="edge9" class="edge">
<title>anat_template_wf&#45;&gt;anat_reports_wf</title>
<path fill="none" stroke="#000000" d="M247.2745,-582.2679C193.5644,-572.3125 125.3475,-556.9713 102.4423,-540 64.9619,-512.2292 48.4423,-496.6476 48.4423,-450 48.4423,-450 48.4423,-450 48.4423,-162 48.4423,-120.3681 63.4751,-74.14 74.6304,-45.567"/>
<polygon fill="#000000" stroke="#000000" points="77.9001,-46.817 78.3835,-36.2332 71.4055,-44.2055 77.9001,-46.817"/>
</g>
<!-- anat_template_wf&#45;&gt;anat_derivatives_wf -->
<g id="edge10" class="edge">
<title>anat_template_wf&#45;&gt;anat_derivatives_wf</title>
<path fill="none" stroke="#000000" d="M400.4423,-585.1792C485.8123,-572.2834 619.3958,-541.2424 709.4423,-468 802.2448,-392.516 842.4423,-353.6249 842.4423,-234 842.4423,-234 842.4423,-234 842.4423,-162 842.4423,-107.2336 789.8555,-64.5727 750.5678,-40.3429"/>
<polygon fill="#000000" stroke="#000000" points="752.2891,-37.2942 741.9105,-35.1644 748.6957,-43.3015 752.2891,-37.2942"/>
</g>
<!-- anat_validate (images) -->
<g id="node8" class="node">
<title>anat_validate (images)</title>
<ellipse fill="none" stroke="#000000" cx="318.4423" cy="-522" rx="116.1796" ry="18"/>
<text text-anchor="middle" x="318.4423" y="-518.3" font-family="Times,serif" font-size="14.00" fill="#000000">anat_validate (images)</text>
</g>
<!-- anat_template_wf&#45;&gt;anat_validate (images) -->
<g id="edge7" class="edge">
<title>anat_template_wf&#45;&gt;anat_validate (images)</title>
<path fill="none" stroke="#000000" d="M318.4423,-575.8314C318.4423,-568.131 318.4423,-558.9743 318.4423,-550.4166"/>
<polygon fill="#000000" stroke="#000000" points="321.9424,-550.4132 318.4423,-540.4133 314.9424,-550.4133 321.9424,-550.4132"/>
</g>
<!-- anat_norm_wf&#45;&gt;outputnode (utility) -->
<g id="edge11" class="edge">
<title>anat_norm_wf&#45;&gt;outputnode (utility)</title>
<path fill="none" stroke="#000000" d="M456.8455,-148.4574C413.7933,-136.9341 351.6452,-120.2997 304.6439,-107.7194"/>
<polygon fill="#000000" stroke="#000000" points="305.4215,-104.3044 294.8566,-105.0997 303.6116,-111.0664 305.4215,-104.3044"/>
</g>
<!-- anat_norm_wf&#45;&gt;anat_reports_wf -->
<g id="edge12" class="edge">
<title>anat_norm_wf&#45;&gt;anat_reports_wf</title>
<path fill="none" stroke="#000000" d="M482.7584,-144.7706C452.4759,-124.4226 398.9247,-90.9537 348.4423,-72 291.1555,-50.4916 223.4347,-36.8187 171.1953,-28.6132"/>
<polygon fill="#000000" stroke="#000000" points="171.71,-25.1513 161.2948,-27.0942 170.6484,-32.0704 171.71,-25.1513"/>
</g>
<!-- anat_norm_wf&#45;&gt;anat_derivatives_wf -->
<g id="edge13" class="edge">
<title>anat_norm_wf&#45;&gt;anat_derivatives_wf</title>
<path fill="none" stroke="#000000" d="M531.6876,-144.6302C567.6578,-118.8606 635.2435,-70.4409 675.6158,-41.5175"/>
<polygon fill="#000000" stroke="#000000" points="677.7058,-44.3258 683.7966,-35.6567 673.6291,-38.6354 677.7058,-44.3258"/>
</g>
<!-- surface_recon_wf&#45;&gt;outputnode (utility) -->
<g id="edge16" class="edge">
<title>surface_recon_wf&#45;&gt;outputnode (utility)</title>
<path fill="none" stroke="#000000" d="M381.0686,-370.0451C320.4393,-362.3345 245.7423,-348.1695 226.4423,-324 178.4551,-263.9052 207.8881,-164.9538 226.5642,-117.3096"/>
<polygon fill="#000000" stroke="#000000" points="229.8434,-118.5365 230.3544,-107.954 223.3556,-115.9081 229.8434,-118.5365"/>
</g>
<!-- surface_recon_wf&#45;&gt;anat_reports_wf -->
<g id="edge18" class="edge">
<title>surface_recon_wf&#45;&gt;anat_reports_wf</title>
<path fill="none" stroke="#000000" d="M382.1702,-369.5249C316.3858,-361.2149 230.9358,-346.4861 204.4423,-324 118.2394,-250.8359 94.77,-107.0578 88.5784,-46.2378"/>
<polygon fill="#000000" stroke="#000000" points="92.0569,-45.8434 87.6402,-36.2131 85.0873,-46.4958 92.0569,-45.8434"/>
</g>
<!-- surface_recon_wf&#45;&gt;anat_derivatives_wf -->
<g id="edge19" class="edge">
<title>surface_recon_wf&#45;&gt;anat_derivatives_wf</title>
<path fill="none" stroke="#000000" d="M545.9019,-369.33C592.9943,-361.9297 652.268,-348.4194 700.4423,-324 754.9646,-296.3628 804.4423,-295.1269 804.4423,-234 804.4423,-234 804.4423,-234 804.4423,-162 804.4423,-113.6631 766.5311,-69.2108 738.3568,-42.8495"/>
<polygon fill="#000000" stroke="#000000" points="740.4646,-40.036 730.708,-35.9058 735.7595,-45.2189 740.4646,-40.036"/>
</g>
<!-- applyrefined (fsl) -->
<g id="node10" class="node">
<title>applyrefined (fsl)</title>
<ellipse fill="none" stroke="#000000" cx="601.4423" cy="-306" rx="90.1842" ry="18"/>
<text text-anchor="middle" x="601.4423" y="-302.3" font-family="Times,serif" font-size="14.00" fill="#000000">applyrefined (fsl)</text>
</g>
<!-- surface_recon_wf&#45;&gt;applyrefined (fsl) -->
<g id="edge14" class="edge">
<title>surface_recon_wf&#45;&gt;applyrefined (fsl)</title>
<path fill="none" stroke="#000000" d="M496.9094,-360.937C515.8478,-350.984 539.9233,-338.3312 560.1944,-327.6778"/>
<polygon fill="#000000" stroke="#000000" points="561.9846,-330.6909 569.2083,-322.9405 558.728,-324.4945 561.9846,-330.6909"/>
</g>
<!-- buffernode (utility) -->
<g id="node11" class="node">
<title>buffernode (utility)</title>
<ellipse fill="none" stroke="#000000" cx="601.4423" cy="-234" rx="98.5829" ry="18"/>
<text text-anchor="middle" x="601.4423" y="-230.3" font-family="Times,serif" font-size="14.00" fill="#000000">buffernode (utility)</text>
</g>
<!-- surface_recon_wf&#45;&gt;buffernode (utility) -->
<g id="edge17" class="edge">
<title>surface_recon_wf&#45;&gt;buffernode (utility)</title>
<path fill="none" stroke="#000000" d="M468.3158,-359.8345C473.3075,-340.1406 483.6659,-308.7511 502.4423,-288 515.0219,-274.0974 532.0438,-263.0396 548.4241,-254.6437"/>
<polygon fill="#000000" stroke="#000000" points="549.9731,-257.7824 557.4259,-250.252 546.9038,-251.4912 549.9731,-257.7824"/>
</g>
<!-- lut_t1w_dseg (utility) -->
<g id="node12" class="node">
<title>lut_t1w_dseg (utility)</title>
<ellipse fill="none" stroke="#000000" cx="345.4423" cy="-306" rx="110.4804" ry="18"/>
<text text-anchor="middle" x="345.4423" y="-302.3" font-family="Times,serif" font-size="14.00" fill="#000000">lut_t1w_dseg (utility)</text>
</g>
<!-- surface_recon_wf&#45;&gt;lut_t1w_dseg (utility) -->
<g id="edge15" class="edge">
<title>surface_recon_wf&#45;&gt;lut_t1w_dseg (utility)</title>
<path fill="none" stroke="#000000" d="M435.9389,-360.7542C420.1294,-351.1888 400.2694,-339.1727 383.1849,-328.8358"/>
<polygon fill="#000000" stroke="#000000" points="384.9076,-325.7874 374.5399,-323.6053 381.2839,-331.7765 384.9076,-325.7874"/>
</g>
<!-- anat_validate (images)&#45;&gt;surface_recon_wf -->
<g id="edge21" class="edge">
<title>anat_validate (images)&#45;&gt;surface_recon_wf</title>
<path fill="none" stroke="#000000" d="M336.6381,-504.0535C362.4609,-478.5844 409.8446,-431.8499 439.0965,-402.9986"/>
<polygon fill="#000000" stroke="#000000" points="441.8139,-405.2344 446.4759,-395.7204 436.8984,-400.2506 441.8139,-405.2344"/>
</g>
<!-- brain_extraction_wf -->
<g id="node9" class="node">
<title>brain_extraction_wf</title>
<ellipse fill="none" stroke="#000000" cx="596.4423" cy="-450" rx="103.9815" ry="18"/>
<text text-anchor="middle" x="596.4423" y="-446.3" font-family="Times,serif" font-size="14.00" fill="#000000">brain_extraction_wf</text>
</g>
<!-- anat_validate (images)&#45;&gt;brain_extraction_wf -->
<g id="edge20" class="edge">
<title>anat_validate (images)&#45;&gt;brain_extraction_wf</title>
<path fill="none" stroke="#000000" d="M378.4219,-506.4657C422.5878,-495.0271 482.6917,-479.4606 528.6081,-467.5686"/>
<polygon fill="#000000" stroke="#000000" points="529.6714,-470.9088 538.4744,-465.0133 527.9163,-464.1323 529.6714,-470.9088"/>
</g>
<!-- brain_extraction_wf&#45;&gt;outputnode (utility) -->
<g id="edge22" class="edge">
<title>brain_extraction_wf&#45;&gt;outputnode (utility)</title>
<path fill="none" stroke="#000000" d="M511.9905,-439.4561C385.7345,-421.3 162.4423,-378.8867 162.4423,-306 162.4423,-306 162.4423,-306 162.4423,-234 162.4423,-188.3998 192.6189,-143.0908 214.9419,-115.812"/>
<polygon fill="#000000" stroke="#000000" points="217.805,-117.8459 221.5755,-107.9447 212.4535,-113.3336 217.805,-117.8459"/>
</g>
<!-- brain_extraction_wf&#45;&gt;anat_norm_wf -->
<g id="edge23" class="edge">
<title>brain_extraction_wf&#45;&gt;anat_norm_wf</title>
<path fill="none" stroke="#000000" d="M617.4955,-432.1978C663.5097,-391.159 764.665,-287.9243 709.4423,-216 693.8984,-195.7549 634.4783,-181.4573 584.0763,-172.682"/>
<polygon fill="#000000" stroke="#000000" points="584.5754,-169.2168 574.1317,-171.0005 583.4082,-176.1188 584.5754,-169.2168"/>
</g>
<!-- brain_extraction_wf&#45;&gt;surface_recon_wf -->
<g id="edge24" class="edge">
<title>brain_extraction_wf&#45;&gt;surface_recon_wf</title>
<path fill="none" stroke="#000000" d="M564.825,-432.7542C546.7838,-422.9136 523.9872,-410.479 504.6796,-399.9476"/>
<polygon fill="#000000" stroke="#000000" points="506.2566,-396.821 495.8016,-395.1051 502.9046,-402.9663 506.2566,-396.821"/>
</g>
<!-- brain_extraction_wf&#45;&gt;applyrefined (fsl) -->
<g id="edge25" class="edge">
<title>brain_extraction_wf&#45;&gt;applyrefined (fsl)</title>
<path fill="none" stroke="#000000" d="M597.0756,-431.7623C597.9284,-407.201 599.4546,-363.2474 600.4578,-334.3541"/>
<polygon fill="#000000" stroke="#000000" points="603.965,-334.2051 600.8142,-324.0896 596.9692,-333.9621 603.965,-334.2051"/>
</g>
<!-- applyrefined (fsl)&#45;&gt;buffernode (utility) -->
<g id="edge26" class="edge">
<title>applyrefined (fsl)&#45;&gt;buffernode (utility)</title>
<path fill="none" stroke="#000000" d="M601.4423,-287.8314C601.4423,-280.131 601.4423,-270.9743 601.4423,-262.4166"/>
<polygon fill="#000000" stroke="#000000" points="604.9424,-262.4132 601.4423,-252.4133 597.9424,-262.4133 604.9424,-262.4132"/>
</g>
<!-- buffernode (utility)&#45;&gt;outputnode (utility) -->
<g id="edge27" class="edge">
<title>buffernode (utility)&#45;&gt;outputnode (utility)</title>
<path fill="none" stroke="#000000" d="M543.8739,-219.3471C508.1312,-209.6094 461.5274,-195.7444 421.4423,-180 370.7081,-160.0728 314.8116,-131.5641 278.3103,-112.0022"/>
<polygon fill="#000000" stroke="#000000" points="279.9263,-108.8972 269.4631,-107.2322 276.6043,-115.0587 279.9263,-108.8972"/>
</g>
<!-- buffernode (utility)&#45;&gt;anat_norm_wf -->
<g id="edge28" class="edge">
<title>buffernode (utility)&#45;&gt;anat_norm_wf</title>
<path fill="none" stroke="#000000" d="M578.2064,-216.2022C566.1648,-206.9789 551.2992,-195.5925 538.3061,-185.6403"/>
<polygon fill="#000000" stroke="#000000" points="540.1537,-182.6468 530.0866,-179.3446 535.8972,-188.204 540.1537,-182.6468"/>
</g>
<!-- lut_t1w_dseg (utility)&#45;&gt;outputnode (utility) -->
<g id="edge30" class="edge">
<title>lut_t1w_dseg (utility)&#45;&gt;outputnode (utility)</title>
<path fill="none" stroke="#000000" d="M302.1236,-289.3184C285.4774,-280.6976 267.9624,-268.4641 257.4423,-252 231.4391,-211.3043 231.6495,-152.9345 234.6876,-118.4998"/>
<polygon fill="#000000" stroke="#000000" points="238.204,-118.5187 235.7437,-108.2135 231.2406,-117.8037 238.204,-118.5187"/>
</g>
<!-- lut_t1w_dseg (utility)&#45;&gt;anat_norm_wf -->
<g id="edge29" class="edge">
<title>lut_t1w_dseg (utility)&#45;&gt;anat_norm_wf</title>
<path fill="none" stroke="#000000" d="M393.3499,-289.7577C414.1805,-280.9699 437.8013,-268.4875 455.4423,-252 474.1644,-234.5021 488.1166,-208.7229 496.8297,-189.2343"/>
<polygon fill="#000000" stroke="#000000" points="500.0796,-190.5361 500.7951,-179.9655 493.6438,-187.7827 500.0796,-190.5361"/>
</g>
<!-- split_seg (utility) -->
<g id="node13" class="node">
<title>split_seg (utility)</title>
<ellipse fill="none" stroke="#000000" cx="356.4423" cy="-234" rx="89.8845" ry="18"/>
<text text-anchor="middle" x="356.4423" y="-230.3" font-family="Times,serif" font-size="14.00" fill="#000000">split_seg (utility)</text>
</g>
<!-- lut_t1w_dseg (utility)&#45;&gt;split_seg (utility) -->
<g id="edge31" class="edge">
<title>lut_t1w_dseg (utility)&#45;&gt;split_seg (utility)</title>
<path fill="none" stroke="#000000" d="M348.2181,-287.8314C349.3945,-280.131 350.7935,-270.9743 352.1009,-262.4166"/>
<polygon fill="#000000" stroke="#000000" points="355.5787,-262.8272 353.6292,-252.4133 348.659,-261.7699 355.5787,-262.8272"/>
</g>
<!-- split_seg (utility)&#45;&gt;outputnode (utility) -->
<g id="edge33" class="edge">
<title>split_seg (utility)&#45;&gt;outputnode (utility)</title>
<path fill="none" stroke="#000000" d="M341.7361,-216.0535C321.1558,-190.9384 283.6305,-145.1449 259.9215,-116.2119"/>
<polygon fill="#000000" stroke="#000000" points="262.3793,-113.6891 253.3339,-108.1727 256.9649,-118.1259 262.3793,-113.6891"/>
</g>
<!-- split_seg (utility)&#45;&gt;anat_norm_wf -->
<g id="edge32" class="edge">
<title>split_seg (utility)&#45;&gt;anat_norm_wf</title>
<path fill="none" stroke="#000000" d="M391.4643,-217.3008C413.1344,-206.968 441.121,-193.6234 464.1727,-182.6319"/>
<polygon fill="#000000" stroke="#000000" points="465.8703,-185.7 473.3903,-178.2368 462.8574,-179.3815 465.8703,-185.7"/>
</g>
</g>
</svg>
