<?xml version="1.0" encoding="UTF-8" standalone="no"?>
<!DOCTYPE svg PUBLIC "-//W3C//DTD SVG 1.1//EN"
 "http://www.w3.org/Graphics/SVG/1.1/DTD/svg11.dtd">
<!-- Generated by graphviz version 2.40.1 (20161225.0304)
 -->
<!-- Title: %3 Pages: 1 -->
<svg width="372pt" height="476pt"
 viewBox="0.00 0.00 371.78 476.00" xmlns="http://www.w3.org/2000/svg" xmlns:xlink="http://www.w3.org/1999/xlink">
<g id="graph0" class="graph" transform="scale(1 1) rotate(0) translate(4 472)">
<title>%3</title>
<polygon fill="#ffffff" stroke="transparent" points="-4,4 -4,-472 367.7751,-472 367.7751,4 -4,4"/>
<!-- inputnode (utility) -->
<g id="node1" class="node">
<title>inputnode (utility)</title>
<ellipse fill="none" stroke="#000000" cx="142.3374" cy="-450" rx="94.7833" ry="18"/>
<text text-anchor="middle" x="142.3374" y="-446.3" font-family="Times,serif" font-size="14.00" fill="#000000">inputnode (utility)</text>
</g>
<!-- autorecon_surfs (freesurfer) -->
<g id="node2" class="node">
<title>autorecon_surfs (freesurfer)</title>
<ellipse fill="none" stroke="#000000" cx="142.3374" cy="-306" rx="142.1749" ry="18"/>
<text text-anchor="middle" x="142.3374" y="-302.3" font-family="Times,serif" font-size="14.00" fill="#000000">autorecon_surfs (freesurfer)</text>
</g>
<!-- inputnode (utility)&#45;&gt;autorecon_surfs (freesurfer) -->
<g id="edge1" class="edge">
<title>inputnode (utility)&#45;&gt;autorecon_surfs (freesurfer)</title>
<path fill="none" stroke="#000000" d="M111.8905,-432.6992C99.0128,-423.5986 85.3823,-411.1617 78.3374,-396 71.5952,-381.4899 71.5952,-374.5101 78.3374,-360 83.7996,-348.2446 93.2207,-338.1271 103.1804,-329.9327"/>
<polygon fill="#000000" stroke="#000000" points="105.4058,-332.6369 111.218,-323.7786 101.1503,-327.0789 105.4058,-332.6369"/>
</g>
<!-- autorecon2_vol (freesurfer) -->
<g id="node3" class="node">
<title>autorecon2_vol (freesurfer)</title>
<ellipse fill="none" stroke="#000000" cx="225.3374" cy="-378" rx="138.3755" ry="18"/>
<text text-anchor="middle" x="225.3374" y="-374.3" font-family="Times,serif" font-size="14.00" fill="#000000">autorecon2_vol (freesurfer)</text>
</g>
<!-- inputnode (utility)&#45;&gt;autorecon2_vol (freesurfer) -->
<g id="edge2" class="edge">
<title>inputnode (utility)&#45;&gt;autorecon2_vol (freesurfer)</title>
<path fill="none" stroke="#000000" d="M162.8542,-432.2022C173.1296,-423.2887 185.734,-412.3548 196.9242,-402.6476"/>
<polygon fill="#000000" stroke="#000000" points="199.5084,-405.0392 204.7689,-395.8425 194.9215,-399.7515 199.5084,-405.0392"/>
</g>
<!-- cortribbon (freesurfer) -->
<g id="node4" class="node">
<title>cortribbon (freesurfer)</title>
<ellipse fill="none" stroke="#000000" cx="142.3374" cy="-234" rx="116.1796" ry="18"/>
<text text-anchor="middle" x="142.3374" y="-230.3" font-family="Times,serif" font-size="14.00" fill="#000000">cortribbon (freesurfer)</text>
</g>
<!-- autorecon_surfs (freesurfer)&#45;&gt;cortribbon (freesurfer) -->
<g id="edge3" class="edge">
<title>autorecon_surfs (freesurfer)&#45;&gt;cortribbon (freesurfer)</title>
<path fill="none" stroke="#000000" d="M142.3374,-287.8314C142.3374,-280.131 142.3374,-270.9743 142.3374,-262.4166"/>
<polygon fill="#000000" stroke="#000000" points="145.8375,-262.4132 142.3374,-252.4133 138.8375,-262.4133 145.8375,-262.4132"/>
</g>
<!-- autorecon2_vol (freesurfer)&#45;&gt;autorecon_surfs (freesurfer) -->
<g id="edge4" class="edge">
<title>autorecon2_vol (freesurfer)&#45;&gt;autorecon_surfs (freesurfer)</title>
<path fill="none" stroke="#000000" d="M204.393,-359.8314C194.191,-350.9814 181.7717,-340.2081 170.7314,-330.631"/>
<polygon fill="#000000" stroke="#000000" points="172.8349,-327.8223 162.9876,-323.9134 168.248,-333.1101 172.8349,-327.8223"/>
</g>
<!-- parcstats (freesurfer) -->
<g id="node5" class="node">
<title>parcstats (freesurfer)</title>
<ellipse fill="none" stroke="#000000" cx="142.3374" cy="-162" rx="111.2805" ry="18"/>
<text text-anchor="middle" x="142.3374" y="-158.3" font-family="Times,serif" font-size="14.00" fill="#000000">parcstats (freesurfer)</text>
</g>
<!-- cortribbon (freesurfer)&#45;&gt;parcstats (freesurfer) -->
<g id="edge5" class="edge">
<title>cortribbon (freesurfer)&#45;&gt;parcstats (freesurfer)</title>
<path fill="none" stroke="#000000" d="M142.3374,-215.8314C142.3374,-208.131 142.3374,-198.9743 142.3374,-190.4166"/>
<polygon fill="#000000" stroke="#000000" points="145.8375,-190.4132 142.3374,-180.4133 138.8375,-190.4133 145.8375,-190.4132"/>
</g>
<!-- autorecon3 (freesurfer) -->
<g id="node6" class="node">
<title>autorecon3 (freesurfer)</title>
<ellipse fill="none" stroke="#000000" cx="142.3374" cy="-90" rx="120.4791" ry="18"/>
<text text-anchor="middle" x="142.3374" y="-86.3" font-family="Times,serif" font-size="14.00" fill="#000000">autorecon3 (freesurfer)</text>
</g>
<!-- parcstats (freesurfer)&#45;&gt;autorecon3 (freesurfer) -->
<g id="edge6" class="edge">
<title>parcstats (freesurfer)&#45;&gt;autorecon3 (freesurfer)</title>
<path fill="none" stroke="#000000" d="M142.3374,-143.8314C142.3374,-136.131 142.3374,-126.9743 142.3374,-118.4166"/>
<polygon fill="#000000" stroke="#000000" points="145.8375,-118.4132 142.3374,-108.4133 138.8375,-118.4133 145.8375,-118.4132"/>
</g>
<!-- outputnode (utility) -->
<g id="node7" class="node">
<title>outputnode (utility)</title>
<ellipse fill="none" stroke="#000000" cx="142.3374" cy="-18" rx="101.2821" ry="18"/>
<text text-anchor="middle" x="142.3374" y="-14.3" font-family="Times,serif" font-size="14.00" fill="#000000">outputnode (utility)</text>
</g>
<!-- autorecon3 (freesurfer)&#45;&gt;outputnode (utility) -->
<g id="edge7" class="edge">
<title>autorecon3 (freesurfer)&#45;&gt;outputnode (utility)</title>
<path fill="none" stroke="#000000" d="M142.3374,-71.8314C142.3374,-64.131 142.3374,-54.9743 142.3374,-46.4166"/>
<polygon fill="#000000" stroke="#000000" points="145.8375,-46.4132 142.3374,-36.4133 138.8375,-46.4133 145.8375,-46.4132"/>
</g>
</g>
</svg>
