<?xml version="1.0" encoding="UTF-8" standalone="no"?>
<!DOCTYPE svg PUBLIC "-//W3C//DTD SVG 1.1//EN"
 "http://www.w3.org/Graphics/SVG/1.1/DTD/svg11.dtd">
<!-- Generated by graphviz version 2.40.1 (20161225.0304)
 -->
<!-- Title: %3 Pages: 1 -->
<svg width="624pt" height="764pt"
 viewBox="0.00 0.00 624.43 764.00" xmlns="http://www.w3.org/2000/svg" xmlns:xlink="http://www.w3.org/1999/xlink">
<g id="graph0" class="graph" transform="scale(1 1) rotate(0) translate(4 760)">
<title>%3</title>
<polygon fill="#ffffff" stroke="transparent" points="-4,4 -4,-760 620.4331,-760 620.4331,4 -4,4"/>
<!-- outputnode (utility) -->
<g id="node1" class="node">
<title>outputnode (utility)</title>
<ellipse fill="none" stroke="#000000" cx="236.4423" cy="-90" rx="101.2821" ry="18"/>
<text text-anchor="middle" x="236.4423" y="-86.3" font-family="Times,serif" font-size="14.00" fill="#000000">outputnode (utility)</text>
</g>
<!-- anat_reports_wf -->
<g id="node2" class="node">
<title>anat_reports_wf</title>
<ellipse fill="none" stroke="#000000" cx="86.4423" cy="-18" rx="86.3847" ry="18"/>
<text text-anchor="middle" x="86.4423" y="-14.3" font-family="Times,serif" font-size="14.00" fill="#000000">anat_reports_wf</text>
</g>
<!-- outputnode (utility)&#45;&gt;anat_reports_wf -->
<g id="edge1" class="edge">
<title>outputnode (utility)&#45;&gt;anat_reports_wf</title>
<path fill="none" stroke="#000000" d="M200.8944,-72.937C179.6503,-62.7398 152.5024,-49.7088 129.9787,-38.8975"/>
<polygon fill="#000000" stroke="#000000" points="131.4896,-35.7404 120.9598,-34.5684 128.4605,-42.0511 131.4896,-35.7404"/>
</g>
<!-- anat_derivatives_wf -->
<g id="node3" class="node">
<title>anat_derivatives_wf</title>
<ellipse fill="none" stroke="#000000" cx="512.4423" cy="-18" rx="103.9815" ry="18"/>
<text text-anchor="middle" x="512.4423" y="-14.3" font-family="Times,serif" font-size="14.00" fill="#000000">anat_derivatives_wf</text>
</g>
<!-- outputnode (utility)&#45;&gt;anat_derivatives_wf -->
<g id="edge2" class="edge">
<title>outputnode (utility)&#45;&gt;anat_derivatives_wf</title>
<path fill="none" stroke="#000000" d="M293.6297,-75.0816C337.613,-63.6077 398.5065,-47.7224 444.8905,-35.6222"/>
<polygon fill="#000000" stroke="#000000" points="446.0614,-38.934 454.8541,-33.023 444.2944,-32.1607 446.0614,-38.934"/>
</g>
<!-- buffernode (utility) -->
<g id="node4" class="node">
<title>buffernode (utility)</title>
<ellipse fill="none" stroke="#000000" cx="305.4423" cy="-306" rx="98.5829" ry="18"/>
<text text-anchor="middle" x="305.4423" y="-302.3" font-family="Times,serif" font-size="14.00" fill="#000000">buffernode (utility)</text>
</g>
<!-- buffernode (utility)&#45;&gt;outputnode (utility) -->
<g id="edge4" class="edge">
<title>buffernode (utility)&#45;&gt;outputnode (utility)</title>
<path fill="none" stroke="#000000" d="M262.6262,-289.5533C246.3906,-280.9704 229.6189,-268.7016 220.4423,-252 197.2555,-209.7993 212.0184,-152.0159 224.488,-118.0831"/>
<polygon fill="#000000" stroke="#000000" points="227.9045,-118.9511 228.2397,-108.3616 221.374,-116.4308 227.9045,-118.9511"/>
</g>
<!-- t1w_dseg (fsl) -->
<g id="node5" class="node">
<title>t1w_dseg (fsl)</title>
<ellipse fill="none" stroke="#000000" cx="305.4423" cy="-234" rx="76.0865" ry="18"/>
<text text-anchor="middle" x="305.4423" y="-230.3" font-family="Times,serif" font-size="14.00" fill="#000000">t1w_dseg (fsl)</text>
</g>
<!-- buffernode (utility)&#45;&gt;t1w_dseg (fsl) -->
<g id="edge3" class="edge">
<title>buffernode (utility)&#45;&gt;t1w_dseg (fsl)</title>
<path fill="none" stroke="#000000" d="M305.4423,-287.8314C305.4423,-280.131 305.4423,-270.9743 305.4423,-262.4166"/>
<polygon fill="#000000" stroke="#000000" points="308.9424,-262.4132 305.4423,-252.4133 301.9424,-262.4133 308.9424,-262.4132"/>
</g>
<!-- anat_norm_wf -->
<g id="node6" class="node">
<title>anat_norm_wf</title>
<ellipse fill="none" stroke="#000000" cx="456.4423" cy="-162" rx="76.8869" ry="18"/>
<text text-anchor="middle" x="456.4423" y="-158.3" font-family="Times,serif" font-size="14.00" fill="#000000">anat_norm_wf</text>
</g>
<!-- buffernode (utility)&#45;&gt;anat_norm_wf -->
<g id="edge5" class="edge">
<title>buffernode (utility)&#45;&gt;anat_norm_wf</title>
<path fill="none" stroke="#000000" d="M338.536,-288.8433C355.1585,-279.3049 374.9928,-266.4508 390.4423,-252 410.4767,-233.2608 428.5377,-207.7219 440.6806,-188.6357"/>
<polygon fill="#000000" stroke="#000000" points="443.6768,-190.4453 445.9888,-180.1058 437.7336,-186.7468 443.6768,-190.4453"/>
</g>
<!-- t1w_dseg (fsl)&#45;&gt;outputnode (utility) -->
<g id="edge6" class="edge">
<title>t1w_dseg (fsl)&#45;&gt;outputnode (utility)</title>
<path fill="none" stroke="#000000" d="M296.8429,-216.0535C284.9636,-191.2618 263.4293,-146.3207 249.5417,-117.3378"/>
<polygon fill="#000000" stroke="#000000" points="252.6277,-115.6784 245.1501,-108.1727 246.315,-118.7033 252.6277,-115.6784"/>
</g>
<!-- t1w_dseg (fsl)&#45;&gt;anat_norm_wf -->
<g id="edge7" class="edge">
<title>t1w_dseg (fsl)&#45;&gt;anat_norm_wf</title>
<path fill="none" stroke="#000000" d="M339.3297,-217.8418C361.2071,-207.4102 389.8637,-193.7461 413.3538,-182.5455"/>
<polygon fill="#000000" stroke="#000000" points="414.8872,-185.692 422.4072,-178.2287 411.8744,-179.3735 414.8872,-185.692"/>
</g>
<!-- anat_norm_wf&#45;&gt;outputnode (utility) -->
<g id="edge8" class="edge">
<title>anat_norm_wf&#45;&gt;outputnode (utility)</title>
<path fill="none" stroke="#000000" d="M411.6569,-147.3429C377.8657,-136.284 331.2242,-121.0195 294.5587,-109.0199"/>
<polygon fill="#000000" stroke="#000000" points="295.5771,-105.6706 284.9845,-105.8865 293.3998,-112.3234 295.5771,-105.6706"/>
</g>
<!-- anat_norm_wf&#45;&gt;anat_reports_wf -->
<g id="edge9" class="edge">
<title>anat_norm_wf&#45;&gt;anat_reports_wf</title>
<path fill="none" stroke="#000000" d="M440.004,-144.1044C419.9608,-123.4297 384.0769,-89.9599 346.4423,-72 293.3931,-46.684 228.6927,-33.1904 177.1057,-26.0226"/>
<polygon fill="#000000" stroke="#000000" points="177.3452,-22.5237 166.9705,-24.6718 176.4204,-29.4623 177.3452,-22.5237"/>
</g>
<!-- anat_norm_wf&#45;&gt;anat_derivatives_wf -->
<g id="edge10" class="edge">
<title>anat_norm_wf&#45;&gt;anat_derivatives_wf</title>
<path fill="none" stroke="#000000" d="M463.4215,-144.0535C473.0208,-119.3696 490.388,-74.7111 501.6636,-45.7167"/>
<polygon fill="#000000" stroke="#000000" points="505.0127,-46.7613 505.3752,-36.1727 498.4886,-44.2242 505.0127,-46.7613"/>
</g>
<!-- inputnode (utility) -->
<g id="node7" class="node">
<title>inputnode (utility)</title>
<ellipse fill="none" stroke="#000000" cx="420.4423" cy="-738" rx="94.7833" ry="18"/>
<text text-anchor="middle" x="420.4423" y="-734.3" font-family="Times,serif" font-size="14.00" fill="#000000">inputnode (utility)</text>
</g>
<!-- inputnode (utility)&#45;&gt;anat_reports_wf -->
<g id="edge13" class="edge">
<title>inputnode (utility)&#45;&gt;anat_reports_wf</title>
<path fill="none" stroke="#000000" d="M344.2853,-727.1726C225.7164,-708.1486 10.4423,-663.9735 10.4423,-594 10.4423,-594 10.4423,-594 10.4423,-162 10.4423,-116.3998 40.6189,-71.0908 62.9419,-43.812"/>
<polygon fill="#000000" stroke="#000000" points="65.805,-45.8459 69.5755,-35.9447 60.4535,-41.3336 65.805,-45.8459"/>
</g>
<!-- inputnode (utility)&#45;&gt;anat_norm_wf -->
<g id="edge12" class="edge">
<title>inputnode (utility)&#45;&gt;anat_norm_wf</title>
<path fill="none" stroke="#000000" d="M465.0222,-722.0906C514.793,-701.1302 588.4423,-659.113 588.4423,-594 588.4423,-594 588.4423,-594 588.4423,-450 588.4423,-339.7993 563.2899,-310.4063 506.4423,-216 500.1212,-205.5026 491.5188,-195.2917 483.2316,-186.6258"/>
<polygon fill="#000000" stroke="#000000" points="485.6252,-184.0691 476.0952,-179.4398 480.6583,-189.0017 485.6252,-184.0691"/>
</g>
<!-- anat_template_wf -->
<g id="node8" class="node">
<title>anat_template_wf</title>
<ellipse fill="none" stroke="#000000" cx="294.4423" cy="-666" rx="93.6835" ry="18"/>
<text text-anchor="middle" x="294.4423" y="-662.3" font-family="Times,serif" font-size="14.00" fill="#000000">anat_template_wf</text>
</g>
<!-- inputnode (utility)&#45;&gt;anat_template_wf -->
<g id="edge11" class="edge">
<title>inputnode (utility)&#45;&gt;anat_template_wf</title>
<path fill="none" stroke="#000000" d="M390.2622,-720.7542C373.119,-710.9581 351.4774,-698.5915 333.101,-688.0907"/>
<polygon fill="#000000" stroke="#000000" points="334.7952,-685.0277 324.3762,-683.1051 331.3221,-691.1054 334.7952,-685.0277"/>
</g>
<!-- surface_recon_wf -->
<g id="node9" class="node">
<title>surface_recon_wf</title>
<ellipse fill="none" stroke="#000000" cx="391.4423" cy="-450" rx="92.8835" ry="18"/>
<text text-anchor="middle" x="391.4423" y="-446.3" font-family="Times,serif" font-size="14.00" fill="#000000">surface_recon_wf</text>
</g>
<!-- inputnode (utility)&#45;&gt;surface_recon_wf -->
<g id="edge14" class="edge">
<title>inputnode (utility)&#45;&gt;surface_recon_wf</title>
<path fill="none" stroke="#000000" d="M421.5753,-719.9468C423.1797,-689.947 425.3111,-627.9833 419.4423,-576 415.5757,-541.7512 406.248,-503.1735 399.4171,-477.8317"/>
<polygon fill="#000000" stroke="#000000" points="402.7829,-476.8709 396.7567,-468.1568 396.0334,-478.7269 402.7829,-476.8709"/>
</g>
<!-- anat_template_wf&#45;&gt;outputnode (utility) -->
<g id="edge16" class="edge">
<title>anat_template_wf&#45;&gt;outputnode (utility)</title>
<path fill="none" stroke="#000000" d="M235.1162,-652.071C173.6371,-633.6941 86.4423,-594.7983 86.4423,-522 86.4423,-522 86.4423,-522 86.4423,-306 86.4423,-223.6927 160.8304,-150.1909 204.8359,-113.9105"/>
<polygon fill="#000000" stroke="#000000" points="207.0968,-116.5834 212.6744,-107.5755 202.6968,-111.1391 207.0968,-116.5834"/>
</g>
<!-- anat_template_wf&#45;&gt;anat_reports_wf -->
<g id="edge17" class="edge">
<title>anat_template_wf&#45;&gt;anat_reports_wf</title>
<path fill="none" stroke="#000000" d="M214.1593,-656.5908C177.845,-649.1488 136.0798,-635.8297 104.4423,-612 66.8115,-583.6561 48.4423,-569.1111 48.4423,-522 48.4423,-522 48.4423,-522 48.4423,-162 48.4423,-120.3681 63.4751,-74.14 74.6304,-45.567"/>
<polygon fill="#000000" stroke="#000000" points="77.9001,-46.817 78.3835,-36.2332 71.4055,-44.2055 77.9001,-46.817"/>
</g>
<!-- anat_template_wf&#45;&gt;anat_derivatives_wf -->
<g id="edge18" class="edge">
<title>anat_template_wf&#45;&gt;anat_derivatives_wf</title>
<path fill="none" stroke="#000000" d="M346.4291,-650.9973C370.4164,-642.3005 398.2109,-629.5414 419.4423,-612 479.1231,-562.6919 485.3264,-538.439 517.4423,-468 577.6811,-335.8798 565.4768,-289.0794 559.4423,-144 558.1078,-111.9168 564.9424,-101.981 553.4423,-72 549.585,-61.9439 543.2473,-52.1778 536.6951,-43.7791"/>
<polygon fill="#000000" stroke="#000000" points="539.2271,-41.349 530.1553,-35.8761 533.8341,-45.8117 539.2271,-41.349"/>
</g>
<!-- anat_validate (images) -->
<g id="node10" class="node">
<title>anat_validate (images)</title>
<ellipse fill="none" stroke="#000000" cx="294.4423" cy="-594" rx="116.1796" ry="18"/>
<text text-anchor="middle" x="294.4423" y="-590.3" font-family="Times,serif" font-size="14.00" fill="#000000">anat_validate (images)</text>
</g>
<!-- anat_template_wf&#45;&gt;anat_validate (images) -->
<g id="edge15" class="edge">
<title>anat_template_wf&#45;&gt;anat_validate (images)</title>
<path fill="none" stroke="#000000" d="M294.4423,-647.8314C294.4423,-640.131 294.4423,-630.9743 294.4423,-622.4166"/>
<polygon fill="#000000" stroke="#000000" points="297.9424,-622.4132 294.4423,-612.4133 290.9424,-622.4133 297.9424,-622.4132"/>
</g>
<!-- surface_recon_wf&#45;&gt;outputnode (utility) -->
<g id="edge20" class="edge">
<title>surface_recon_wf&#45;&gt;outputnode (utility)</title>
<path fill="none" stroke="#000000" d="M397.5839,-431.9035C410.6596,-389.7956 436.4701,-283.6943 390.4423,-216 360.2705,-171.6255 310.0139,-134.7112 275.1553,-112.5415"/>
<polygon fill="#000000" stroke="#000000" points="276.9821,-109.5559 266.6463,-107.2273 273.274,-115.4931 276.9821,-109.5559"/>
</g>
<!-- surface_recon_wf&#45;&gt;anat_reports_wf -->
<g id="edge22" class="edge">
<title>surface_recon_wf&#45;&gt;anat_reports_wf</title>
<path fill="none" stroke="#000000" d="M386.2259,-431.886C379.3562,-411.3249 365.2688,-378.2766 341.4423,-360 289.0986,-319.8486 246.4295,-368.1844 197.4423,-324 114.2833,-248.9941 93.3565,-106.7522 88.1454,-46.3115"/>
<polygon fill="#000000" stroke="#000000" points="91.6094,-45.7107 87.3438,-36.0124 84.6305,-46.2539 91.6094,-45.7107"/>
</g>
<!-- surface_recon_wf&#45;&gt;anat_derivatives_wf -->
<g id="edge23" class="edge">
<title>surface_recon_wf&#45;&gt;anat_derivatives_wf</title>
<path fill="none" stroke="#000000" d="M405.9263,-432.1501C438.3472,-390.88 515.9876,-284.3836 542.4423,-180 554.2872,-133.2634 537.527,-77.8384 524.6963,-45.4295"/>
<polygon fill="#000000" stroke="#000000" points="527.9182,-44.0617 520.8765,-36.1456 521.4447,-46.7252 527.9182,-44.0617"/>
</g>
<!-- surface_recon_wf&#45;&gt;buffernode (utility) -->
<g id="edge21" class="edge">
<title>surface_recon_wf&#45;&gt;buffernode (utility)</title>
<path fill="none" stroke="#000000" d="M391.6768,-431.7631C391.1248,-412.5738 387.9174,-382.141 374.4423,-360 367.1321,-347.9885 356.1047,-337.6107 344.9978,-329.2529"/>
<polygon fill="#000000" stroke="#000000" points="346.7308,-326.1911 336.5489,-323.2617 342.6817,-331.9012 346.7308,-326.1911"/>
</g>
<!-- applyrefined (fsl) -->
<g id="node12" class="node">
<title>applyrefined (fsl)</title>
<ellipse fill="none" stroke="#000000" cx="242.4423" cy="-378" rx="90.1842" ry="18"/>
<text text-anchor="middle" x="242.4423" y="-374.3" font-family="Times,serif" font-size="14.00" fill="#000000">applyrefined (fsl)</text>
</g>
<!-- surface_recon_wf&#45;&gt;applyrefined (fsl) -->
<g id="edge19" class="edge">
<title>surface_recon_wf&#45;&gt;applyrefined (fsl)</title>
<path fill="none" stroke="#000000" d="M356.5084,-433.1192C335.5099,-422.9723 308.6036,-409.9705 286.197,-399.1432"/>
<polygon fill="#000000" stroke="#000000" points="287.4268,-395.8503 276.9001,-394.6507 284.3812,-402.153 287.4268,-395.8503"/>
</g>
<!-- anat_validate (images)&#45;&gt;surface_recon_wf -->
<g id="edge25" class="edge">
<title>anat_validate (images)&#45;&gt;surface_recon_wf</title>
<path fill="none" stroke="#000000" d="M330.6222,-576.7844C345.7347,-567.8371 362.1395,-555.4995 372.4423,-540 384.6185,-521.6823 389.1924,-497.023 390.8199,-478.1484"/>
<polygon fill="#000000" stroke="#000000" points="394.3193,-478.2678 391.4618,-468.0656 387.3334,-477.823 394.3193,-478.2678"/>
</g>
<!-- brain_extraction_wf -->
<g id="node11" class="node">
<title>brain_extraction_wf</title>
<ellipse fill="none" stroke="#000000" cx="259.4423" cy="-522" rx="103.9815" ry="18"/>
<text text-anchor="middle" x="259.4423" y="-518.3" font-family="Times,serif" font-size="14.00" fill="#000000">brain_extraction_wf</text>
</g>
<!-- anat_validate (images)&#45;&gt;brain_extraction_wf -->
<g id="edge24" class="edge">
<title>anat_validate (images)&#45;&gt;brain_extraction_wf</title>
<path fill="none" stroke="#000000" d="M285.6104,-575.8314C281.7437,-567.8771 277.1217,-558.369 272.8455,-549.5723"/>
<polygon fill="#000000" stroke="#000000" points="275.913,-547.8768 268.3932,-540.4133 269.6174,-550.9371 275.913,-547.8768"/>
</g>
<!-- brain_extraction_wf&#45;&gt;outputnode (utility) -->
<g id="edge26" class="edge">
<title>brain_extraction_wf&#45;&gt;outputnode (utility)</title>
<path fill="none" stroke="#000000" d="M234.6857,-504.4538C206.4118,-482.7291 161.7095,-442.812 143.4423,-396 103.9593,-294.8194 179.1128,-169.6045 216.7669,-116.1592"/>
<polygon fill="#000000" stroke="#000000" points="219.6947,-118.0825 222.6807,-107.9172 214.0072,-114.0017 219.6947,-118.0825"/>
</g>
<!-- brain_extraction_wf&#45;&gt;anat_norm_wf -->
<g id="edge27" class="edge">
<title>brain_extraction_wf&#45;&gt;anat_norm_wf</title>
<path fill="none" stroke="#000000" d="M349.1575,-512.8112C407.2374,-504.7981 475.3057,-490.7987 493.4423,-468 559.5546,-384.8936 500.9311,-246.7481 471.2335,-188.8385"/>
<polygon fill="#000000" stroke="#000000" points="474.3106,-187.1698 466.5692,-179.9364 468.1101,-190.4186 474.3106,-187.1698"/>
</g>
<!-- brain_extraction_wf&#45;&gt;surface_recon_wf -->
<g id="edge28" class="edge">
<title>brain_extraction_wf&#45;&gt;surface_recon_wf</title>
<path fill="none" stroke="#000000" d="M291.0596,-504.7542C309.1008,-494.9136 331.8975,-482.479 351.205,-471.9476"/>
<polygon fill="#000000" stroke="#000000" points="352.9801,-474.9663 360.083,-467.1051 349.6281,-468.821 352.9801,-474.9663"/>
</g>
<!-- brain_extraction_wf&#45;&gt;applyrefined (fsl) -->
<g id="edge29" class="edge">
<title>brain_extraction_wf&#45;&gt;applyrefined (fsl)</title>
<path fill="none" stroke="#000000" d="M257.2893,-503.7623C254.3897,-479.201 249.2007,-435.2474 245.7897,-406.3541"/>
<polygon fill="#000000" stroke="#000000" points="249.2263,-405.6103 244.5779,-396.0896 242.2745,-406.431 249.2263,-405.6103"/>
</g>
<!-- applyrefined (fsl)&#45;&gt;buffernode (utility) -->
<g id="edge30" class="edge">
<title>applyrefined (fsl)&#45;&gt;buffernode (utility)</title>
<path fill="none" stroke="#000000" d="M258.0154,-360.2022C265.5876,-351.5483 274.8261,-340.99 283.1308,-331.4988"/>
<polygon fill="#000000" stroke="#000000" points="285.879,-333.6731 289.8301,-323.8425 280.611,-329.0636 285.879,-333.6731"/>
</g>
</g>
</svg>
