<?xml version="1.0" encoding="UTF-8" standalone="no"?>
<!DOCTYPE svg PUBLIC "-//W3C//DTD SVG 1.1//EN"
 "http://www.w3.org/Graphics/SVG/1.1/DTD/svg11.dtd">
<!-- Generated by graphviz version 2.40.1 (20161225.0304)
 -->
<!-- Title: %3 Pages: 1 -->
<svg width="281pt" height="332pt"
 viewBox="0.00 0.00 280.68 332.00" xmlns="http://www.w3.org/2000/svg" xmlns:xlink="http://www.w3.org/1999/xlink">
<g id="graph0" class="graph" transform="scale(1 1) rotate(0) translate(4 328)">
<title>%3</title>
<polygon fill="#ffffff" stroke="transparent" points="-4,4 -4,-328 276.6817,-328 276.6817,4 -4,4"/>
<!-- inputnode (utility) -->
<g id="node1" class="node">
<title>inputnode (utility)</title>
<ellipse fill="none" stroke="#000000" cx="172.2907" cy="-306" rx="94.7833" ry="18"/>
<text text-anchor="middle" x="172.2907" y="-302.3" font-family="Times,serif" font-size="14.00" fill="#000000">inputnode (utility)</text>
</g>
<!-- fs_datasource (io) -->
<g id="node2" class="node">
<title>fs_datasource (io)</title>
<ellipse fill="none" stroke="#000000" cx="111.2907" cy="-234" rx="93.6835" ry="18"/>
<text text-anchor="middle" x="111.2907" y="-230.3" font-family="Times,serif" font-size="14.00" fill="#000000">fs_datasource (io)</text>
</g>
<!-- inputnode (utility)&#45;&gt;fs_datasource (io) -->
<g id="edge1" class="edge">
<title>inputnode (utility)&#45;&gt;fs_datasource (io)</title>
<path fill="none" stroke="#000000" d="M157.212,-288.2022C149.8802,-279.5483 140.9349,-268.99 132.8938,-259.4988"/>
<polygon fill="#000000" stroke="#000000" points="135.5419,-257.2099 126.4073,-251.8425 130.201,-261.7349 135.5419,-257.2099"/>
</g>
<!-- tonii (freesurfer) -->
<g id="node3" class="node">
<title>tonii (freesurfer)</title>
<ellipse fill="none" stroke="#000000" cx="171.2907" cy="-90" rx="88.2844" ry="18"/>
<text text-anchor="middle" x="171.2907" y="-86.3" font-family="Times,serif" font-size="14.00" fill="#000000">tonii (freesurfer)</text>
</g>
<!-- inputnode (utility)&#45;&gt;tonii (freesurfer) -->
<g id="edge2" class="edge">
<title>inputnode (utility)&#45;&gt;tonii (freesurfer)</title>
<path fill="none" stroke="#000000" d="M190.5128,-288.2276C199.3348,-278.4327 209.116,-265.5342 214.2907,-252 231.451,-207.1173 236.3672,-188.9147 219.2907,-144 215.1952,-133.2281 207.857,-123.2328 200.131,-114.8441"/>
<polygon fill="#000000" stroke="#000000" points="202.5204,-112.2823 193.0087,-107.6157 197.5342,-117.1954 202.5204,-112.2823"/>
</g>
<!-- tonative (freesurfer) -->
<g id="node4" class="node">
<title>tonative (freesurfer)</title>
<ellipse fill="none" stroke="#000000" cx="105.2907" cy="-162" rx="105.0817" ry="18"/>
<text text-anchor="middle" x="105.2907" y="-158.3" font-family="Times,serif" font-size="14.00" fill="#000000">tonative (freesurfer)</text>
</g>
<!-- fs_datasource (io)&#45;&gt;tonative (freesurfer) -->
<g id="edge3" class="edge">
<title>fs_datasource (io)&#45;&gt;tonative (freesurfer)</title>
<path fill="none" stroke="#000000" d="M109.7766,-215.8314C109.1349,-208.131 108.3719,-198.9743 107.6587,-190.4166"/>
<polygon fill="#000000" stroke="#000000" points="111.1436,-190.088 106.8251,-180.4133 104.1677,-190.6694 111.1436,-190.088"/>
</g>
<!-- outputnode (utility) -->
<g id="node5" class="node">
<title>outputnode (utility)</title>
<ellipse fill="none" stroke="#000000" cx="171.2907" cy="-18" rx="101.2821" ry="18"/>
<text text-anchor="middle" x="171.2907" y="-14.3" font-family="Times,serif" font-size="14.00" fill="#000000">outputnode (utility)</text>
</g>
<!-- tonii (freesurfer)&#45;&gt;outputnode (utility) -->
<g id="edge4" class="edge">
<title>tonii (freesurfer)&#45;&gt;outputnode (utility)</title>
<path fill="none" stroke="#000000" d="M171.2907,-71.8314C171.2907,-64.131 171.2907,-54.9743 171.2907,-46.4166"/>
<polygon fill="#000000" stroke="#000000" points="174.7908,-46.4132 171.2907,-36.4133 167.7908,-46.4133 174.7908,-46.4132"/>
</g>
<!-- tonative (freesurfer)&#45;&gt;tonii (freesurfer) -->
<g id="edge5" class="edge">
<title>tonative (freesurfer)&#45;&gt;tonii (freesurfer)</title>
<path fill="none" stroke="#000000" d="M121.6053,-144.2022C129.6174,-135.4617 139.4103,-124.7786 148.1774,-115.2144"/>
<polygon fill="#000000" stroke="#000000" points="150.7578,-117.5792 154.935,-107.8425 145.5977,-112.8491 150.7578,-117.5792"/>
</g>
</g>
</svg>
