<?xml version="1.0" encoding="UTF-8" standalone="no"?>
<!DOCTYPE svg PUBLIC "-//W3C//DTD SVG 1.1//EN"
 "http://www.w3.org/Graphics/SVG/1.1/DTD/svg11.dtd">
<!-- Generated by graphviz version 2.40.1 (20161225.0304)
 -->
<!-- Title: %3 Pages: 1 -->
<svg width="356pt" height="332pt"
 viewBox="0.00 0.00 355.58 332.00" xmlns="http://www.w3.org/2000/svg" xmlns:xlink="http://www.w3.org/1999/xlink">
<g id="graph0" class="graph" transform="scale(1 1) rotate(0) translate(4 328)">
<title>%3</title>
<polygon fill="#ffffff" stroke="transparent" points="-4,4 -4,-328 351.5767,-328 351.5767,4 -4,4"/>
<!-- inputnode (utility) -->
<g id="node1" class="node">
<title>inputnode (utility)</title>
<ellipse fill="none" stroke="#000000" cx="119.2393" cy="-306" rx="94.7833" ry="18"/>
<text text-anchor="middle" x="119.2393" y="-302.3" font-family="Times,serif" font-size="14.00" fill="#000000">inputnode (utility)</text>
</g>
<!-- autorecon3 (freesurfer) -->
<g id="node2" class="node">
<title>autorecon3 (freesurfer)</title>
<ellipse fill="none" stroke="#000000" cx="120.2393" cy="-90" rx="120.4791" ry="18"/>
<text text-anchor="middle" x="120.2393" y="-86.3" font-family="Times,serif" font-size="14.00" fill="#000000">autorecon3 (freesurfer)</text>
</g>
<!-- inputnode (utility)&#45;&gt;autorecon3 (freesurfer) -->
<g id="edge1" class="edge">
<title>inputnode (utility)&#45;&gt;autorecon3 (freesurfer)</title>
<path fill="none" stroke="#000000" d="M89.776,-288.7472C77.0416,-279.5847 63.432,-267.0832 56.2393,-252 35.5751,-208.6666 33.6808,-187.3836 54.2393,-144 59.8922,-132.071 69.6139,-121.9009 79.8842,-113.7115"/>
<polygon fill="#000000" stroke="#000000" points="82.2192,-116.3376 88.1713,-107.5728 78.0524,-110.7128 82.2192,-116.3376"/>
</g>
<!-- autorecon2_vol (freesurfer) -->
<g id="node3" class="node">
<title>autorecon2_vol (freesurfer)</title>
<ellipse fill="none" stroke="#000000" cx="203.2393" cy="-234" rx="138.3755" ry="18"/>
<text text-anchor="middle" x="203.2393" y="-230.3" font-family="Times,serif" font-size="14.00" fill="#000000">autorecon2_vol (freesurfer)</text>
</g>
<!-- inputnode (utility)&#45;&gt;autorecon2_vol (freesurfer) -->
<g id="edge2" class="edge">
<title>inputnode (utility)&#45;&gt;autorecon2_vol (freesurfer)</title>
<path fill="none" stroke="#000000" d="M140.0034,-288.2022C150.5035,-279.2021 163.4067,-268.1423 174.8132,-258.3652"/>
<polygon fill="#000000" stroke="#000000" points="177.1082,-261.0079 182.423,-251.8425 172.5527,-255.6931 177.1082,-261.0079"/>
</g>
<!-- outputnode (utility) -->
<g id="node4" class="node">
<title>outputnode (utility)</title>
<ellipse fill="none" stroke="#000000" cx="120.2393" cy="-18" rx="101.2821" ry="18"/>
<text text-anchor="middle" x="120.2393" y="-14.3" font-family="Times,serif" font-size="14.00" fill="#000000">outputnode (utility)</text>
</g>
<!-- autorecon3 (freesurfer)&#45;&gt;outputnode (utility) -->
<g id="edge3" class="edge">
<title>autorecon3 (freesurfer)&#45;&gt;outputnode (utility)</title>
<path fill="none" stroke="#000000" d="M120.2393,-71.8314C120.2393,-64.131 120.2393,-54.9743 120.2393,-46.4166"/>
<polygon fill="#000000" stroke="#000000" points="123.7394,-46.4132 120.2393,-36.4133 116.7394,-46.4133 123.7394,-46.4132"/>
</g>
<!-- autorecon_surfs (freesurfer) -->
<g id="node5" class="node">
<title>autorecon_surfs (freesurfer)</title>
<ellipse fill="none" stroke="#000000" cx="205.2393" cy="-162" rx="142.1749" ry="18"/>
<text text-anchor="middle" x="205.2393" y="-158.3" font-family="Times,serif" font-size="14.00" fill="#000000">autorecon_surfs (freesurfer)</text>
</g>
<!-- autorecon2_vol (freesurfer)&#45;&gt;autorecon_surfs (freesurfer) -->
<g id="edge4" class="edge">
<title>autorecon2_vol (freesurfer)&#45;&gt;autorecon_surfs (freesurfer)</title>
<path fill="none" stroke="#000000" d="M203.744,-215.8314C203.9579,-208.131 204.2123,-198.9743 204.45,-190.4166"/>
<polygon fill="#000000" stroke="#000000" points="207.9487,-190.5066 204.7279,-180.4133 200.9514,-190.3122 207.9487,-190.5066"/>
</g>
<!-- autorecon_surfs (freesurfer)&#45;&gt;autorecon3 (freesurfer) -->
<g id="edge5" class="edge">
<title>autorecon_surfs (freesurfer)&#45;&gt;autorecon3 (freesurfer)</title>
<path fill="none" stroke="#000000" d="M183.7902,-143.8314C173.3424,-134.9814 160.6239,-124.2081 149.3176,-114.631"/>
<polygon fill="#000000" stroke="#000000" points="151.2798,-111.7062 141.3871,-107.9134 146.7554,-117.0476 151.2798,-111.7062"/>
</g>
</g>
</svg>
