<?xml version="1.0" encoding="UTF-8" standalone="no"?>
<!DOCTYPE svg PUBLIC "-//W3C//DTD SVG 1.1//EN"
 "http://www.w3.org/Graphics/SVG/1.1/DTD/svg11.dtd">
<!-- Generated by graphviz version 2.40.1 (20161225.0304)
 -->
<!-- Title: structs Pages: 1 -->
<svg width="1679pt" height="1022pt"
 viewBox="0.00 0.00 1678.72 1022.00" xmlns="http://www.w3.org/2000/svg" xmlns:xlink="http://www.w3.org/1999/xlink">
<g id="graph0" class="graph" transform="scale(1 1) rotate(0) translate(4 1018)">
<title>structs</title>
<polygon fill="#ffffff" stroke="transparent" points="-4,4 -4,-1018 1674.7151,-1018 1674.7151,4 -4,4"/>
<!-- anat_norm_wfinputnode -->
<g id="node1" class="node">
<title>anat_norm_wfinputnode</title>
<polygon fill="none" stroke="#000000" points="230.0377,-852.5 230.0377,-1013.5 528.0377,-1013.5 528.0377,-852.5 230.0377,-852.5"/>
<text text-anchor="middle" x="247.5377" y="-929.3" font-family="Times,serif" font-size="14.00" fill="#000000">IN</text>
<polyline fill="none" stroke="#000000" points="265.0377,-852.5 265.0377,-1013.5 "/>
<text text-anchor="middle" x="309.5377" y="-983.3" font-family="Times,serif" font-size="14.00" fill="#000000">inputnode</text>
<polyline fill="none" stroke="#000000" points="265.0377,-960.5 354.0377,-960.5 "/>
<text text-anchor="middle" x="309.5377" y="-929.8" font-family="Times,serif" font-size="14.00" fill="#000000">utility</text>
<polyline fill="none" stroke="#000000" points="265.0377,-906.5 354.0377,-906.5 "/>
<text text-anchor="middle" x="309.5377" y="-875.8" font-family="Times,serif" font-size="14.00" fill="#000000"> </text>
<polyline fill="none" stroke="#000000" points="354.0377,-852.5 354.0377,-1013.5 "/>
<text text-anchor="middle" x="441.0377" y="-998.3" font-family="Times,serif" font-size="14.00" fill="#000000">OUT</text>
<polyline fill="none" stroke="#000000" points="354.0377,-990.5 528.0377,-990.5 "/>
<text text-anchor="middle" x="441.0377" y="-975.3" font-family="Times,serif" font-size="14.00" fill="#000000">lesion_mask</text>
<polyline fill="none" stroke="#000000" points="354.0377,-967.5 528.0377,-967.5 "/>
<text text-anchor="middle" x="441.0377" y="-952.3" font-family="Times,serif" font-size="14.00" fill="#000000">moving_image</text>
<polyline fill="none" stroke="#000000" points="354.0377,-944.5 528.0377,-944.5 "/>
<text text-anchor="middle" x="441.0377" y="-929.3" font-family="Times,serif" font-size="14.00" fill="#000000">moving_mask</text>
<polyline fill="none" stroke="#000000" points="354.0377,-921.5 528.0377,-921.5 "/>
<text text-anchor="middle" x="441.0377" y="-906.3" font-family="Times,serif" font-size="14.00" fill="#000000">moving_segmentation</text>
<polyline fill="none" stroke="#000000" points="354.0377,-898.5 528.0377,-898.5 "/>
<text text-anchor="middle" x="441.0377" y="-883.3" font-family="Times,serif" font-size="14.00" fill="#000000">moving_tpms</text>
<polyline fill="none" stroke="#000000" points="354.0377,-875.5 528.0377,-875.5 "/>
<text text-anchor="middle" x="441.0377" y="-860.3" font-family="Times,serif" font-size="14.00" fill="#000000">template</text>
</g>
<!-- anat_norm_wftrunc_mov -->
<g id="node2" class="node">
<title>anat_norm_wftrunc_mov</title>
<polygon fill="none" stroke="#000000" points="138.5377,-746.5 138.5377,-815.5 389.5377,-815.5 389.5377,-746.5 138.5377,-746.5"/>
<text text-anchor="middle" x="160.0377" y="-794.8" font-family="Times,serif" font-size="14.00" fill="#000000">IN</text>
<polyline fill="none" stroke="#000000" points="138.5377,-781.5 181.5377,-781.5 "/>
<text text-anchor="middle" x="160.0377" y="-760.3" font-family="Times,serif" font-size="14.00" fill="#000000">op1</text>
<polyline fill="none" stroke="#000000" points="181.5377,-746.5 181.5377,-815.5 "/>
<text text-anchor="middle" x="228.0377" y="-800.3" font-family="Times,serif" font-size="14.00" fill="#000000">trunc_mov</text>
<polyline fill="none" stroke="#000000" points="181.5377,-792.5 274.5377,-792.5 "/>
<text text-anchor="middle" x="228.0377" y="-777.3" font-family="Times,serif" font-size="14.00" fill="#000000">ants</text>
<polyline fill="none" stroke="#000000" points="181.5377,-769.5 274.5377,-769.5 "/>
<text text-anchor="middle" x="228.0377" y="-754.3" font-family="Times,serif" font-size="14.00" fill="#000000"> </text>
<polyline fill="none" stroke="#000000" points="274.5377,-746.5 274.5377,-815.5 "/>
<text text-anchor="middle" x="332.0377" y="-794.8" font-family="Times,serif" font-size="14.00" fill="#000000">OUT</text>
<polyline fill="none" stroke="#000000" points="274.5377,-781.5 389.5377,-781.5 "/>
<text text-anchor="middle" x="332.0377" y="-760.3" font-family="Times,serif" font-size="14.00" fill="#000000">output_image</text>
</g>
<!-- anat_norm_wfinputnode&#45;&gt;anat_norm_wftrunc_mov -->
<g id="edge3" class="edge">
<title>anat_norm_wfinputnode:e&#45;&gt;anat_norm_wftrunc_mov:w</title>
<path fill="none" stroke="#000000" d="M528.0377,-956C574.2599,-956 559.1835,-886.1531 528.0377,-852 469.3912,-787.6906 196.6843,-880.3094 138.0377,-816 125.2631,-801.9919 117.8951,-775.9744 128.417,-767.0766"/>
<polygon fill="#000000" stroke="#000000" points="129.579,-770.3797 138.0377,-764 127.4468,-763.7123 129.579,-770.3797"/>
</g>
<!-- anat_norm_wfregistration -->
<g id="node3" class="node">
<title>anat_norm_wfregistration</title>
<polygon fill="none" stroke="#000000" points="79.5377,-571.5 79.5377,-709.5 530.5377,-709.5 530.5377,-571.5 79.5377,-571.5"/>
<text text-anchor="middle" x="140.0377" y="-694.3" font-family="Times,serif" font-size="14.00" fill="#000000">IN</text>
<polyline fill="none" stroke="#000000" points="79.5377,-686.5 200.5377,-686.5 "/>
<text text-anchor="middle" x="140.0377" y="-671.3" font-family="Times,serif" font-size="14.00" fill="#000000">lesion_mask</text>
<polyline fill="none" stroke="#000000" points="79.5377,-663.5 200.5377,-663.5 "/>
<text text-anchor="middle" x="140.0377" y="-648.3" font-family="Times,serif" font-size="14.00" fill="#000000">moving_image</text>
<polyline fill="none" stroke="#000000" points="79.5377,-640.5 200.5377,-640.5 "/>
<text text-anchor="middle" x="140.0377" y="-625.3" font-family="Times,serif" font-size="14.00" fill="#000000">moving_mask</text>
<polyline fill="none" stroke="#000000" points="79.5377,-617.5 200.5377,-617.5 "/>
<text text-anchor="middle" x="140.0377" y="-602.3" font-family="Times,serif" font-size="14.00" fill="#000000">template</text>
<polyline fill="none" stroke="#000000" points="79.5377,-594.5 200.5377,-594.5 "/>
<text text-anchor="middle" x="140.0377" y="-579.3" font-family="Times,serif" font-size="14.00" fill="#000000">template_spec</text>
<polyline fill="none" stroke="#000000" points="200.5377,-571.5 200.5377,-709.5 "/>
<text text-anchor="middle" x="251.0377" y="-682.8" font-family="Times,serif" font-size="14.00" fill="#000000">registration</text>
<polyline fill="none" stroke="#000000" points="200.5377,-663.5 301.5377,-663.5 "/>
<text text-anchor="middle" x="251.0377" y="-636.8" font-family="Times,serif" font-size="14.00" fill="#000000">mni</text>
<polyline fill="none" stroke="#000000" points="200.5377,-617.5 301.5377,-617.5 "/>
<text text-anchor="middle" x="251.0377" y="-590.8" font-family="Times,serif" font-size="14.00" fill="#000000"> </text>
<polyline fill="none" stroke="#000000" points="301.5377,-571.5 301.5377,-709.5 "/>
<text text-anchor="middle" x="416.0377" y="-682.8" font-family="Times,serif" font-size="14.00" fill="#000000">OUT</text>
<polyline fill="none" stroke="#000000" points="301.5377,-663.5 530.5377,-663.5 "/>
<text text-anchor="middle" x="416.0377" y="-636.8" font-family="Times,serif" font-size="14.00" fill="#000000">composite_transform</text>
<polyline fill="none" stroke="#000000" points="301.5377,-617.5 530.5377,-617.5 "/>
<text text-anchor="middle" x="416.0377" y="-590.8" font-family="Times,serif" font-size="14.00" fill="#000000">inverse_composite_transform</text>
</g>
<!-- anat_norm_wfinputnode&#45;&gt;anat_norm_wfregistration -->
<g id="edge1" class="edge">
<title>anat_norm_wfinputnode:e&#45;&gt;anat_norm_wfregistration:w</title>
<path fill="none" stroke="#000000" d="M528.0377,-979C584.4822,-979 566.1098,-893.6712 528.0377,-852 468.1379,-786.4376 203.0157,-866.6028 130.0377,-816 106.2607,-799.513 60.0046,-705.1374 70.4294,-681.0802"/>
<polygon fill="#000000" stroke="#000000" points="72.5503,-683.8764 79.0377,-675.5 68.7427,-678.0026 72.5503,-683.8764"/>
</g>
<!-- anat_norm_wfinputnode&#45;&gt;anat_norm_wfregistration -->
<g id="edge4" class="edge">
<title>anat_norm_wfinputnode:e&#45;&gt;anat_norm_wfregistration:w</title>
<path fill="none" stroke="#000000" d="M528.0377,-933C564.0377,-933 547.0481,-882.5713 528.0377,-852 508.9349,-821.2799 483.2323,-838.6651 455.0377,-816 423.9855,-791.0377 433.9246,-765.2423 399.0377,-746 336.3774,-711.4389 126.7258,-763.3539 79.0377,-710 69.2313,-699.0285 63.4042,-652.083 71.2781,-634.8641"/>
<polygon fill="#000000" stroke="#000000" points="73.5252,-637.5478 79.0377,-628.5 69.0861,-632.1353 73.5252,-637.5478"/>
</g>
<!-- anat_norm_wfinputnode&#45;&gt;anat_norm_wfregistration -->
<g id="edge9" class="edge">
<title>anat_norm_wfinputnode:e&#45;&gt;anat_norm_wfregistration:w</title>
<path fill="none" stroke="#000000" d="M528.0377,-864C533.3711,-864 529.9712,-856.9705 528.0377,-852 520.1691,-831.7714 509.0124,-832.6078 495.0377,-816 469.7395,-785.9351 475.3985,-765.0589 441.0377,-746 370.3432,-706.7879 133.299,-769.9251 79.0377,-710 72.7055,-703.0068 68.998,-638.3912 74.0582,-614.4062"/>
<polygon fill="#000000" stroke="#000000" points="77.2126,-615.9365 79.0377,-605.5 71.1027,-612.5204 77.2126,-615.9365"/>
</g>
<!-- anat_norm_wfinputnode&#45;&gt;anat_norm_wfregistration -->
<g id="edge10" class="edge">
<title>anat_norm_wfinputnode:e&#45;&gt;anat_norm_wfregistration:w</title>
<path fill="none" stroke="#000000" d="M528.0377,-864C532.9668,-864 525.5349,-777.3975 482.0377,-746 409.1342,-693.3761 139.7209,-776.3457 79.0377,-710 71.0451,-701.2615 66.5156,-618.0368 73.5199,-590.9639"/>
<polygon fill="#000000" stroke="#000000" points="76.5084,-592.7885 79.0377,-582.5 70.6445,-588.9656 76.5084,-592.7885"/>
</g>
<!-- anat_norm_wftf_select -->
<g id="node4" class="node">
<title>anat_norm_wftf_select</title>
<polygon fill="none" stroke="#000000" points="586.5377,-606 586.5377,-675 891.5377,-675 891.5377,-606 586.5377,-606"/>
<text text-anchor="middle" x="647.0377" y="-659.8" font-family="Times,serif" font-size="14.00" fill="#000000">IN</text>
<polyline fill="none" stroke="#000000" points="586.5377,-652 707.5377,-652 "/>
<text text-anchor="middle" x="647.0377" y="-636.8" font-family="Times,serif" font-size="14.00" fill="#000000">template</text>
<polyline fill="none" stroke="#000000" points="586.5377,-629 707.5377,-629 "/>
<text text-anchor="middle" x="647.0377" y="-613.8" font-family="Times,serif" font-size="14.00" fill="#000000">template_spec</text>
<polyline fill="none" stroke="#000000" points="707.5377,-606 707.5377,-675 "/>
<text text-anchor="middle" x="762.5377" y="-659.8" font-family="Times,serif" font-size="14.00" fill="#000000">tf_select</text>
<polyline fill="none" stroke="#000000" points="707.5377,-652 817.5377,-652 "/>
<text text-anchor="middle" x="762.5377" y="-636.8" font-family="Times,serif" font-size="14.00" fill="#000000">templateflow</text>
<polyline fill="none" stroke="#000000" points="707.5377,-629 817.5377,-629 "/>
<text text-anchor="middle" x="762.5377" y="-613.8" font-family="Times,serif" font-size="14.00" fill="#000000"> </text>
<polyline fill="none" stroke="#000000" points="817.5377,-606 817.5377,-675 "/>
<text text-anchor="middle" x="854.5377" y="-654.3" font-family="Times,serif" font-size="14.00" fill="#000000">OUT</text>
<polyline fill="none" stroke="#000000" points="817.5377,-641 891.5377,-641 "/>
<text text-anchor="middle" x="854.5377" y="-619.8" font-family="Times,serif" font-size="14.00" fill="#000000">t1w_file</text>
</g>
<!-- anat_norm_wfinputnode&#45;&gt;anat_norm_wftf_select -->
<g id="edge11" class="edge">
<title>anat_norm_wfinputnode:e&#45;&gt;anat_norm_wftf_select:w</title>
<path fill="none" stroke="#000000" d="M528.0377,-864C554.1807,-864 552.4354,-840.3157 562.0377,-816 565.1298,-808.17 573.2937,-685.301 581.7498,-649.9478"/>
<polygon fill="#000000" stroke="#000000" points="585.0919,-651.0525 586.0377,-640.5 578.7177,-648.1595 585.0919,-651.0525"/>
</g>
<!-- anat_norm_wfinputnode&#45;&gt;anat_norm_wftf_select -->
<g id="edge12" class="edge">
<title>anat_norm_wfinputnode:e&#45;&gt;anat_norm_wftf_select:w</title>
<path fill="none" stroke="#000000" d="M528.0377,-864C559.1647,-864 566.1901,-844.3518 579.0377,-816 586.9726,-798.4896 569.6488,-660.8629 579.6382,-625.672"/>
<polygon fill="#000000" stroke="#000000" points="582.6278,-627.5311 586.0377,-617.5 577.1166,-623.2153 582.6278,-627.5311"/>
</g>
<!-- anat_norm_wfstd_tpms -->
<g id="node5" class="node">
<title>anat_norm_wfstd_tpms</title>
<polygon fill="none" stroke="#000000" points="1247.5377,-442.5 1247.5377,-534.5 1582.5377,-534.5 1582.5377,-442.5 1247.5377,-442.5"/>
<text text-anchor="middle" x="1316.0377" y="-519.3" font-family="Times,serif" font-size="14.00" fill="#000000">IN</text>
<polyline fill="none" stroke="#000000" points="1247.5377,-511.5 1384.5377,-511.5 "/>
<text text-anchor="middle" x="1316.0377" y="-496.3" font-family="Times,serif" font-size="14.00" fill="#000000">input_image</text>
<polyline fill="none" stroke="#000000" points="1247.5377,-488.5 1384.5377,-488.5 "/>
<text text-anchor="middle" x="1316.0377" y="-473.3" font-family="Times,serif" font-size="14.00" fill="#000000">reference_image</text>
<polyline fill="none" stroke="#000000" points="1247.5377,-465.5 1384.5377,-465.5 "/>
<text text-anchor="middle" x="1316.0377" y="-450.3" font-family="Times,serif" font-size="14.00" fill="#000000">transforms</text>
<polyline fill="none" stroke="#000000" points="1384.5377,-442.5 1384.5377,-534.5 "/>
<text text-anchor="middle" x="1426.0377" y="-515.8" font-family="Times,serif" font-size="14.00" fill="#000000">std_tpms</text>
<polyline fill="none" stroke="#000000" points="1384.5377,-504.5 1467.5377,-504.5 "/>
<text text-anchor="middle" x="1426.0377" y="-485.3" font-family="Times,serif" font-size="14.00" fill="#000000">fixes</text>
<polyline fill="none" stroke="#000000" points="1384.5377,-473.5 1467.5377,-473.5 "/>
<text text-anchor="middle" x="1426.0377" y="-454.3" font-family="Times,serif" font-size="14.00" fill="#000000"> </text>
<polyline fill="none" stroke="#000000" points="1467.5377,-442.5 1467.5377,-534.5 "/>
<text text-anchor="middle" x="1525.0377" y="-507.8" font-family="Times,serif" font-size="14.00" fill="#000000">OUT</text>
<polyline fill="none" stroke="#000000" points="1467.5377,-488.5 1582.5377,-488.5 "/>
<text text-anchor="middle" x="1525.0377" y="-461.8" font-family="Times,serif" font-size="14.00" fill="#000000">output_image</text>
</g>
<!-- anat_norm_wfinputnode&#45;&gt;anat_norm_wfstd_tpms -->
<g id="edge7" class="edge">
<title>anat_norm_wfinputnode:e&#45;&gt;anat_norm_wfstd_tpms:w</title>
<path fill="none" stroke="#000000" d="M528.0377,-887C682.4085,-887 727.5306,-879.938 868.0377,-816 1056.3082,-730.3273 1126.5104,-708.5603 1239.0377,-535 1244.4564,-526.6423 1239.9175,-515.0467 1239.8424,-507.6581"/>
<polygon fill="#000000" stroke="#000000" points="1242.4168,-510.034 1247.0377,-500.5 1237.4799,-505.0714 1242.4168,-510.034"/>
</g>
<!-- anat_norm_wfstd_dseg -->
<g id="node6" class="node">
<title>anat_norm_wfstd_dseg</title>
<polygon fill="none" stroke="#000000" points="542.0377,-442.5 542.0377,-534.5 874.0377,-534.5 874.0377,-442.5 542.0377,-442.5"/>
<text text-anchor="middle" x="610.5377" y="-519.3" font-family="Times,serif" font-size="14.00" fill="#000000">IN</text>
<polyline fill="none" stroke="#000000" points="542.0377,-511.5 679.0377,-511.5 "/>
<text text-anchor="middle" x="610.5377" y="-496.3" font-family="Times,serif" font-size="14.00" fill="#000000">input_image</text>
<polyline fill="none" stroke="#000000" points="542.0377,-488.5 679.0377,-488.5 "/>
<text text-anchor="middle" x="610.5377" y="-473.3" font-family="Times,serif" font-size="14.00" fill="#000000">reference_image</text>
<polyline fill="none" stroke="#000000" points="542.0377,-465.5 679.0377,-465.5 "/>
<text text-anchor="middle" x="610.5377" y="-450.3" font-family="Times,serif" font-size="14.00" fill="#000000">transforms</text>
<polyline fill="none" stroke="#000000" points="679.0377,-442.5 679.0377,-534.5 "/>
<text text-anchor="middle" x="719.0377" y="-515.8" font-family="Times,serif" font-size="14.00" fill="#000000">std_dseg</text>
<polyline fill="none" stroke="#000000" points="679.0377,-504.5 759.0377,-504.5 "/>
<text text-anchor="middle" x="719.0377" y="-485.3" font-family="Times,serif" font-size="14.00" fill="#000000">fixes</text>
<polyline fill="none" stroke="#000000" points="679.0377,-473.5 759.0377,-473.5 "/>
<text text-anchor="middle" x="719.0377" y="-454.3" font-family="Times,serif" font-size="14.00" fill="#000000"> </text>
<polyline fill="none" stroke="#000000" points="759.0377,-442.5 759.0377,-534.5 "/>
<text text-anchor="middle" x="816.5377" y="-507.8" font-family="Times,serif" font-size="14.00" fill="#000000">OUT</text>
<polyline fill="none" stroke="#000000" points="759.0377,-488.5 874.0377,-488.5 "/>
<text text-anchor="middle" x="816.5377" y="-461.8" font-family="Times,serif" font-size="14.00" fill="#000000">output_image</text>
</g>
<!-- anat_norm_wfinputnode&#45;&gt;anat_norm_wfstd_dseg -->
<g id="edge6" class="edge">
<title>anat_norm_wfinputnode:e&#45;&gt;anat_norm_wfstd_dseg:w</title>
<path fill="none" stroke="#000000" d="M528.0377,-910C617.0865,-910 536.945,-798.995 540.0377,-710 540.0815,-708.7391 540.4593,-552.1181 541.5076,-510.5379"/>
<polygon fill="#000000" stroke="#000000" points="545.0054,-510.6707 542.0377,-500.5 538.0152,-510.3015 545.0054,-510.6707"/>
</g>
<!-- anat_norm_wfstd_mask -->
<g id="node7" class="node">
<title>anat_norm_wfstd_mask</title>
<polygon fill="none" stroke="#000000" points="892.5377,-442.5 892.5377,-534.5 1229.5377,-534.5 1229.5377,-442.5 892.5377,-442.5"/>
<text text-anchor="middle" x="961.0377" y="-519.3" font-family="Times,serif" font-size="14.00" fill="#000000">IN</text>
<polyline fill="none" stroke="#000000" points="892.5377,-511.5 1029.5377,-511.5 "/>
<text text-anchor="middle" x="961.0377" y="-496.3" font-family="Times,serif" font-size="14.00" fill="#000000">input_image</text>
<polyline fill="none" stroke="#000000" points="892.5377,-488.5 1029.5377,-488.5 "/>
<text text-anchor="middle" x="961.0377" y="-473.3" font-family="Times,serif" font-size="14.00" fill="#000000">reference_image</text>
<polyline fill="none" stroke="#000000" points="892.5377,-465.5 1029.5377,-465.5 "/>
<text text-anchor="middle" x="961.0377" y="-450.3" font-family="Times,serif" font-size="14.00" fill="#000000">transforms</text>
<polyline fill="none" stroke="#000000" points="1029.5377,-442.5 1029.5377,-534.5 "/>
<text text-anchor="middle" x="1072.0377" y="-515.8" font-family="Times,serif" font-size="14.00" fill="#000000">std_mask</text>
<polyline fill="none" stroke="#000000" points="1029.5377,-504.5 1114.5377,-504.5 "/>
<text text-anchor="middle" x="1072.0377" y="-485.3" font-family="Times,serif" font-size="14.00" fill="#000000">fixes</text>
<polyline fill="none" stroke="#000000" points="1029.5377,-473.5 1114.5377,-473.5 "/>
<text text-anchor="middle" x="1072.0377" y="-454.3" font-family="Times,serif" font-size="14.00" fill="#000000"> </text>
<polyline fill="none" stroke="#000000" points="1114.5377,-442.5 1114.5377,-534.5 "/>
<text text-anchor="middle" x="1172.0377" y="-507.8" font-family="Times,serif" font-size="14.00" fill="#000000">OUT</text>
<polyline fill="none" stroke="#000000" points="1114.5377,-488.5 1229.5377,-488.5 "/>
<text text-anchor="middle" x="1172.0377" y="-461.8" font-family="Times,serif" font-size="14.00" fill="#000000">output_image</text>
</g>
<!-- anat_norm_wfinputnode&#45;&gt;anat_norm_wfstd_mask -->
<g id="edge5" class="edge">
<title>anat_norm_wfinputnode:e&#45;&gt;anat_norm_wfstd_mask:w</title>
<path fill="none" stroke="#000000" d="M528.0377,-933C721.1835,-933 805.7424,-878.0003 901.0377,-710 931.518,-656.265 908.5859,-632.3149 901.0377,-571 899.5904,-559.2434 886.3676,-525.4654 886.5096,-509.3113"/>
<polygon fill="#000000" stroke="#000000" points="889.6879,-510.831 892.0377,-500.5 883.7583,-507.1108 889.6879,-510.831"/>
</g>
<!-- anat_norm_wftpl_moving -->
<g id="node8" class="node">
<title>anat_norm_wftpl_moving</title>
<polygon fill="none" stroke="#000000" points="100.0377,-442.5 100.0377,-534.5 448.0377,-534.5 448.0377,-442.5 100.0377,-442.5"/>
<text text-anchor="middle" x="168.5377" y="-519.3" font-family="Times,serif" font-size="14.00" fill="#000000">IN</text>
<polyline fill="none" stroke="#000000" points="100.0377,-511.5 237.0377,-511.5 "/>
<text text-anchor="middle" x="168.5377" y="-496.3" font-family="Times,serif" font-size="14.00" fill="#000000">input_image</text>
<polyline fill="none" stroke="#000000" points="100.0377,-488.5 237.0377,-488.5 "/>
<text text-anchor="middle" x="168.5377" y="-473.3" font-family="Times,serif" font-size="14.00" fill="#000000">reference_image</text>
<polyline fill="none" stroke="#000000" points="100.0377,-465.5 237.0377,-465.5 "/>
<text text-anchor="middle" x="168.5377" y="-450.3" font-family="Times,serif" font-size="14.00" fill="#000000">transforms</text>
<polyline fill="none" stroke="#000000" points="237.0377,-442.5 237.0377,-534.5 "/>
<text text-anchor="middle" x="285.0377" y="-515.8" font-family="Times,serif" font-size="14.00" fill="#000000">tpl_moving</text>
<polyline fill="none" stroke="#000000" points="237.0377,-504.5 333.0377,-504.5 "/>
<text text-anchor="middle" x="285.0377" y="-485.3" font-family="Times,serif" font-size="14.00" fill="#000000">fixes</text>
<polyline fill="none" stroke="#000000" points="237.0377,-473.5 333.0377,-473.5 "/>
<text text-anchor="middle" x="285.0377" y="-454.3" font-family="Times,serif" font-size="14.00" fill="#000000"> </text>
<polyline fill="none" stroke="#000000" points="333.0377,-442.5 333.0377,-534.5 "/>
<text text-anchor="middle" x="390.5377" y="-507.8" font-family="Times,serif" font-size="14.00" fill="#000000">OUT</text>
<polyline fill="none" stroke="#000000" points="333.0377,-488.5 448.0377,-488.5 "/>
<text text-anchor="middle" x="390.5377" y="-461.8" font-family="Times,serif" font-size="14.00" fill="#000000">output_image</text>
</g>
<!-- anat_norm_wfinputnode&#45;&gt;anat_norm_wftpl_moving -->
<g id="edge2" class="edge">
<title>anat_norm_wfinputnode:e&#45;&gt;anat_norm_wftpl_moving:w</title>
<path fill="none" stroke="#000000" d="M528.0377,-956C574.2599,-956 559.3824,-885.9706 528.0377,-852 460.4586,-778.7595 151.9854,-885.9824 81.0377,-816 -16.5303,-719.7593 -39.3435,-511.018 90.0373,-500.8829"/>
<polygon fill="#000000" stroke="#000000" points="90.179,-504.3801 100.0377,-500.5 89.9111,-497.3852 90.179,-504.3801"/>
</g>
<!-- anat_norm_wfpoutputnode -->
<g id="node9" class="node">
<title>anat_norm_wfpoutputnode</title>
<polygon fill="none" stroke="#000000" points="874.5377,-221.5 874.5377,-405.5 1209.5377,-405.5 1209.5377,-221.5 874.5377,-221.5"/>
<text text-anchor="middle" x="931.5377" y="-390.3" font-family="Times,serif" font-size="14.00" fill="#000000">IN</text>
<polyline fill="none" stroke="#000000" points="874.5377,-382.5 988.5377,-382.5 "/>
<text text-anchor="middle" x="931.5377" y="-367.3" font-family="Times,serif" font-size="14.00" fill="#000000">anat2std_xfm</text>
<polyline fill="none" stroke="#000000" points="874.5377,-359.5 988.5377,-359.5 "/>
<text text-anchor="middle" x="931.5377" y="-344.3" font-family="Times,serif" font-size="14.00" fill="#000000">standardized</text>
<polyline fill="none" stroke="#000000" points="874.5377,-336.5 988.5377,-336.5 "/>
<text text-anchor="middle" x="931.5377" y="-321.3" font-family="Times,serif" font-size="14.00" fill="#000000">std2anat_xfm</text>
<polyline fill="none" stroke="#000000" points="874.5377,-313.5 988.5377,-313.5 "/>
<text text-anchor="middle" x="931.5377" y="-298.3" font-family="Times,serif" font-size="14.00" fill="#000000">std_dseg</text>
<polyline fill="none" stroke="#000000" points="874.5377,-290.5 988.5377,-290.5 "/>
<text text-anchor="middle" x="931.5377" y="-275.3" font-family="Times,serif" font-size="14.00" fill="#000000">std_mask</text>
<polyline fill="none" stroke="#000000" points="874.5377,-267.5 988.5377,-267.5 "/>
<text text-anchor="middle" x="931.5377" y="-252.3" font-family="Times,serif" font-size="14.00" fill="#000000">std_tpms</text>
<polyline fill="none" stroke="#000000" points="874.5377,-244.5 988.5377,-244.5 "/>
<text text-anchor="middle" x="931.5377" y="-229.3" font-family="Times,serif" font-size="14.00" fill="#000000">template</text>
<polyline fill="none" stroke="#000000" points="988.5377,-221.5 988.5377,-405.5 "/>
<text text-anchor="middle" x="1042.0377" y="-371.3" font-family="Times,serif" font-size="14.00" fill="#000000">poutputnode</text>
<polyline fill="none" stroke="#000000" points="988.5377,-344.5 1095.5377,-344.5 "/>
<text text-anchor="middle" x="1042.0377" y="-310.3" font-family="Times,serif" font-size="14.00" fill="#000000">utility</text>
<polyline fill="none" stroke="#000000" points="988.5377,-283.5 1095.5377,-283.5 "/>
<text text-anchor="middle" x="1042.0377" y="-248.8" font-family="Times,serif" font-size="14.00" fill="#000000"> </text>
<polyline fill="none" stroke="#000000" points="1095.5377,-221.5 1095.5377,-405.5 "/>
<text text-anchor="middle" x="1152.5377" y="-390.3" font-family="Times,serif" font-size="14.00" fill="#000000">OUT</text>
<polyline fill="none" stroke="#000000" points="1095.5377,-382.5 1209.5377,-382.5 "/>
<text text-anchor="middle" x="1152.5377" y="-367.3" font-family="Times,serif" font-size="14.00" fill="#000000">anat2std_xfm</text>
<polyline fill="none" stroke="#000000" points="1095.5377,-359.5 1209.5377,-359.5 "/>
<text text-anchor="middle" x="1152.5377" y="-344.3" font-family="Times,serif" font-size="14.00" fill="#000000">standardized</text>
<polyline fill="none" stroke="#000000" points="1095.5377,-336.5 1209.5377,-336.5 "/>
<text text-anchor="middle" x="1152.5377" y="-321.3" font-family="Times,serif" font-size="14.00" fill="#000000">std2anat_xfm</text>
<polyline fill="none" stroke="#000000" points="1095.5377,-313.5 1209.5377,-313.5 "/>
<text text-anchor="middle" x="1152.5377" y="-298.3" font-family="Times,serif" font-size="14.00" fill="#000000">std_dseg</text>
<polyline fill="none" stroke="#000000" points="1095.5377,-290.5 1209.5377,-290.5 "/>
<text text-anchor="middle" x="1152.5377" y="-275.3" font-family="Times,serif" font-size="14.00" fill="#000000">std_mask</text>
<polyline fill="none" stroke="#000000" points="1095.5377,-267.5 1209.5377,-267.5 "/>
<text text-anchor="middle" x="1152.5377" y="-252.3" font-family="Times,serif" font-size="14.00" fill="#000000">std_tpms</text>
<polyline fill="none" stroke="#000000" points="1095.5377,-244.5 1209.5377,-244.5 "/>
<text text-anchor="middle" x="1152.5377" y="-229.3" font-family="Times,serif" font-size="14.00" fill="#000000">template</text>
</g>
<!-- anat_norm_wfinputnode&#45;&gt;anat_norm_wfpoutputnode -->
<g id="edge8" class="edge">
<title>anat_norm_wfinputnode:e&#45;&gt;anat_norm_wfpoutputnode:w</title>
<path fill="none" stroke="#000000" d="M528.0377,-864C1036.7626,-864 1942.6381,-810.6196 1592.0377,-442 1536.9878,-384.1208 929.0876,-463.8792 874.0377,-406 823.3858,-352.7448 799.2377,-243.3917 863.8529,-233.2569"/>
<polygon fill="#000000" stroke="#000000" points="864.3246,-236.7316 874.0377,-232.5 863.8058,-229.7508 864.3246,-236.7316"/>
</g>
<!-- anat_norm_wftrunc_mov&#45;&gt;anat_norm_wfregistration -->
<g id="edge34" class="edge">
<title>anat_norm_wftrunc_mov:e&#45;&gt;anat_norm_wfregistration:w</title>
<path fill="none" stroke="#000000" d="M390.0377,-764C398.0377,-764 395.3594,-751.9732 390.0377,-746 297.4768,-642.1065 171.5987,-813.8935 79.0377,-710 72.6628,-702.8446 68.6628,-674.0785 72.4518,-660.1427"/>
<polygon fill="#000000" stroke="#000000" points="75.1612,-662.3602 79.0377,-652.5 69.8584,-657.7906 75.1612,-662.3602"/>
</g>
<!-- anat_norm_wfregistration&#45;&gt;anat_norm_wfstd_tpms -->
<g id="edge23" class="edge">
<title>anat_norm_wfregistration:e&#45;&gt;anat_norm_wfstd_tpms:w</title>
<path fill="none" stroke="#000000" d="M531.0377,-640.5C568.3267,-640.5 545.5908,-589.3757 578.0377,-571 642.0399,-534.7535 1185.9105,-585.8683 1239.0377,-535 1249.4609,-525.0201 1236.941,-479.6205 1240.3841,-461.25"/>
<polygon fill="#000000" stroke="#000000" points="1243.1793,-463.3673 1247.0377,-453.5 1237.8681,-458.8075 1243.1793,-463.3673"/>
</g>
<!-- anat_norm_wfregistration&#45;&gt;anat_norm_wfstd_dseg -->
<g id="edge21" class="edge">
<title>anat_norm_wfregistration:e&#45;&gt;anat_norm_wfstd_dseg:w</title>
<path fill="none" stroke="#000000" d="M531.0377,-640.5C549.1684,-640.5 528.2654,-498.6036 536.3327,-462.0209"/>
<polygon fill="#000000" stroke="#000000" points="539.3825,-463.7567 542.0377,-453.5 533.5659,-459.8623 539.3825,-463.7567"/>
</g>
<!-- anat_norm_wfregistration&#45;&gt;anat_norm_wfstd_mask -->
<g id="edge22" class="edge">
<title>anat_norm_wfregistration:e&#45;&gt;anat_norm_wfstd_mask:w</title>
<path fill="none" stroke="#000000" d="M531.0377,-640.5C568.3267,-640.5 546.1864,-590.3898 578.0377,-571 636.3336,-535.5118 834.9603,-583.4396 883.0377,-535 893.2663,-524.6943 881.3375,-479.06 885.2898,-460.9463"/>
<polygon fill="#000000" stroke="#000000" points="887.9162,-463.2603 892.0377,-453.5 882.7291,-458.5598 887.9162,-463.2603"/>
</g>
<!-- anat_norm_wfregistration&#45;&gt;anat_norm_wftpl_moving -->
<g id="edge24" class="edge">
<title>anat_norm_wfregistration:e&#45;&gt;anat_norm_wftpl_moving:w</title>
<path fill="none" stroke="#000000" d="M531.0377,-640.5C546.4822,-640.5 541.4942,-582.3663 531.0377,-571 465.9666,-500.2671 165.1088,-605.7329 100.0377,-535 78.1004,-511.1539 66.4258,-464.7548 90.1348,-455.2327"/>
<polygon fill="#000000" stroke="#000000" points="90.7906,-458.6712 100.0377,-453.5 89.5841,-451.776 90.7906,-458.6712"/>
</g>
<!-- anat_norm_wfregistration&#45;&gt;anat_norm_wfpoutputnode -->
<g id="edge20" class="edge">
<title>anat_norm_wfregistration:e&#45;&gt;anat_norm_wfpoutputnode:w</title>
<path fill="none" stroke="#000000" d="M531.0377,-640.5C546.4822,-640.5 536.4127,-585.479 531.0377,-571 523.6895,-551.2053 507.386,-554.7947 500.0377,-535 485.653,-496.2505 473.6562,-473.8192 500.0377,-442 552.0155,-379.3088 772.2384,-371.9825 864.0159,-371.5251"/>
<polygon fill="#000000" stroke="#000000" points="864.0465,-375.0251 874.0377,-371.5 864.029,-368.0251 864.0465,-375.0251"/>
</g>
<!-- anat_norm_wfregistration&#45;&gt;anat_norm_wfpoutputnode -->
<g id="edge25" class="edge">
<title>anat_norm_wfregistration:e&#45;&gt;anat_norm_wfpoutputnode:w</title>
<path fill="none" stroke="#000000" d="M531.0377,-594.5C535.2742,-594.5 530.5509,-445.4298 533.0377,-442 578.1616,-379.7656 777.0972,-329.6587 863.7946,-325.746"/>
<polygon fill="#000000" stroke="#000000" points="864.1247,-329.2392 874.0377,-325.5 863.9565,-322.2412 864.1247,-329.2392"/>
</g>
<!-- anat_norm_wftf_select&#45;&gt;anat_norm_wfstd_tpms -->
<g id="edge31" class="edge">
<title>anat_norm_wftf_select:e&#45;&gt;anat_norm_wfstd_tpms:w</title>
<path fill="none" stroke="#000000" d="M892.0377,-623.5C982.6491,-623.5 1001.1985,-593.2415 1089.0377,-571 1155.5,-554.1713 1193.0329,-585.8331 1239.0377,-535 1245.5035,-527.8557 1239.7109,-499.6551 1241.374,-485.1777"/>
<polygon fill="#000000" stroke="#000000" points="1244.503,-486.7872 1247.0377,-476.5 1238.6411,-482.9612 1244.503,-486.7872"/>
</g>
<!-- anat_norm_wftf_select&#45;&gt;anat_norm_wfstd_dseg -->
<g id="edge29" class="edge">
<title>anat_norm_wftf_select:e&#45;&gt;anat_norm_wfstd_dseg:w</title>
<path fill="none" stroke="#000000" d="M892.0377,-623.5C900.0377,-623.5 897.1054,-611.6902 892.0377,-605.5 791.5207,-482.7171 642.5547,-657.7829 542.0377,-535 535.8615,-527.4557 531.6371,-498.3216 535.3953,-484.2261"/>
<polygon fill="#000000" stroke="#000000" points="538.1724,-486.3646 542.0377,-476.5 532.8644,-481.8011 538.1724,-486.3646"/>
</g>
<!-- anat_norm_wftf_select&#45;&gt;anat_norm_wfstd_mask -->
<g id="edge30" class="edge">
<title>anat_norm_wftf_select:e&#45;&gt;anat_norm_wfstd_mask:w</title>
<path fill="none" stroke="#000000" d="M892.0377,-623.5C905.8828,-623.5 884.5203,-517.8774 887.6381,-485.6955"/>
<polygon fill="#000000" stroke="#000000" points="890.8789,-487.0313 892.0377,-476.5 884.5644,-484.01 890.8789,-487.0313"/>
</g>
<!-- anat_norm_wftf_select&#45;&gt;anat_norm_wftpl_moving -->
<g id="edge32" class="edge">
<title>anat_norm_wftf_select:e&#45;&gt;anat_norm_wftpl_moving:w</title>
<path fill="none" stroke="#000000" d="M892.0377,-623.5C900.0377,-623.5 897.4116,-611.4263 892.0377,-605.5 786.445,-489.052 696.6003,-585.0764 540.0377,-571 491.1825,-566.6075 133.2786,-571.0717 100.0377,-535 85.1715,-518.8678 76.8823,-488.3117 90.2724,-479.1568"/>
<polygon fill="#000000" stroke="#000000" points="91.3073,-482.5025 100.0377,-476.5 89.4696,-475.7481 91.3073,-482.5025"/>
</g>
<!-- anat_norm_wfstd_tpms&#45;&gt;anat_norm_wfpoutputnode -->
<g id="edge28" class="edge">
<title>anat_norm_wfstd_tpms:e&#45;&gt;anat_norm_wfpoutputnode:w</title>
<path fill="none" stroke="#000000" d="M1583.0377,-465.5C1593.4822,-465.5 1590.2334,-449.5703 1583.0377,-442 1528.6943,-384.8272 928.3812,-463.1728 874.0377,-406 830.4751,-360.1694 809.5001,-266.4981 863.8404,-256.3899"/>
<polygon fill="#000000" stroke="#000000" points="864.3799,-259.8562 874.0377,-255.5 863.7713,-252.8827 864.3799,-259.8562"/>
</g>
<!-- anat_norm_wfstd_dseg&#45;&gt;anat_norm_wfpoutputnode -->
<g id="edge26" class="edge">
<title>anat_norm_wfstd_dseg:e&#45;&gt;anat_norm_wfpoutputnode:w</title>
<path fill="none" stroke="#000000" d="M874.0377,-465.5C874.0377,-465.5 874.0377,-347.6625 874.0377,-311.7589"/>
<polygon fill="#000000" stroke="#000000" points="877.5378,-311.5 874.0377,-301.5 870.5378,-311.5 877.5378,-311.5"/>
</g>
<!-- anat_norm_wfstd_mask&#45;&gt;anat_norm_wfpoutputnode -->
<g id="edge27" class="edge">
<title>anat_norm_wfstd_mask:e&#45;&gt;anat_norm_wfpoutputnode:w</title>
<path fill="none" stroke="#000000" d="M1230.0377,-465.5C1240.4822,-465.5 1237.0417,-449.748 1230.0377,-442 1176.7158,-383.0141 927.3596,-464.9859 874.0377,-406 838.4867,-366.6726 819.8576,-289.3363 864.0045,-279.5306"/>
<polygon fill="#000000" stroke="#000000" points="864.4477,-283.0036 874.0377,-278.5 863.7324,-276.0402 864.4477,-283.0036"/>
</g>
<!-- anat_norm_wftpl_moving&#45;&gt;anat_norm_wfpoutputnode -->
<g id="edge33" class="edge">
<title>anat_norm_wftpl_moving:e&#45;&gt;anat_norm_wfpoutputnode:w</title>
<path fill="none" stroke="#000000" d="M448.0377,-465.5C460.1951,-465.5 452.2023,-449.1461 462.0377,-442 535.3941,-388.7014 763.7941,-351.1389 863.9039,-348.6334"/>
<polygon fill="#000000" stroke="#000000" points="864.0847,-352.1314 874.0377,-348.5 863.9925,-345.1321 864.0847,-352.1314"/>
</g>
<!-- anat_norm_wfoutputnode -->
<g id="node10" class="node">
<title>anat_norm_wfoutputnode</title>
<polygon fill="none" stroke="#000000" points="1210.0377,-.5 1210.0377,-184.5 1472.0377,-184.5 1472.0377,-.5 1210.0377,-.5"/>
<text text-anchor="middle" x="1267.0377" y="-169.3" font-family="Times,serif" font-size="14.00" fill="#000000">IN</text>
<polyline fill="none" stroke="#000000" points="1210.0377,-161.5 1324.0377,-161.5 "/>
<text text-anchor="middle" x="1267.0377" y="-146.3" font-family="Times,serif" font-size="14.00" fill="#000000">anat2std_xfm</text>
<polyline fill="none" stroke="#000000" points="1210.0377,-138.5 1324.0377,-138.5 "/>
<text text-anchor="middle" x="1267.0377" y="-123.3" font-family="Times,serif" font-size="14.00" fill="#000000">standardized</text>
<polyline fill="none" stroke="#000000" points="1210.0377,-115.5 1324.0377,-115.5 "/>
<text text-anchor="middle" x="1267.0377" y="-100.3" font-family="Times,serif" font-size="14.00" fill="#000000">std2anat_xfm</text>
<polyline fill="none" stroke="#000000" points="1210.0377,-92.5 1324.0377,-92.5 "/>
<text text-anchor="middle" x="1267.0377" y="-77.3" font-family="Times,serif" font-size="14.00" fill="#000000">std_dseg</text>
<polyline fill="none" stroke="#000000" points="1210.0377,-69.5 1324.0377,-69.5 "/>
<text text-anchor="middle" x="1267.0377" y="-54.3" font-family="Times,serif" font-size="14.00" fill="#000000">std_mask</text>
<polyline fill="none" stroke="#000000" points="1210.0377,-46.5 1324.0377,-46.5 "/>
<text text-anchor="middle" x="1267.0377" y="-31.3" font-family="Times,serif" font-size="14.00" fill="#000000">std_tpms</text>
<polyline fill="none" stroke="#000000" points="1210.0377,-23.5 1324.0377,-23.5 "/>
<text text-anchor="middle" x="1267.0377" y="-8.3" font-family="Times,serif" font-size="14.00" fill="#000000">template</text>
<polyline fill="none" stroke="#000000" points="1324.0377,-.5 1324.0377,-184.5 "/>
<text text-anchor="middle" x="1373.0377" y="-150.3" font-family="Times,serif" font-size="14.00" fill="#000000">outputnode</text>
<polyline fill="none" stroke="#000000" points="1324.0377,-123.5 1422.0377,-123.5 "/>
<text text-anchor="middle" x="1373.0377" y="-89.3" font-family="Times,serif" font-size="14.00" fill="#000000">utility</text>
<polyline fill="none" stroke="#000000" points="1324.0377,-62.5 1422.0377,-62.5 "/>
<text text-anchor="middle" x="1373.0377" y="-27.8" font-family="Times,serif" font-size="14.00" fill="#000000"> </text>
<polyline fill="none" stroke="#000000" points="1422.0377,-.5 1422.0377,-184.5 "/>
<text text-anchor="middle" x="1447.0377" y="-88.8" font-family="Times,serif" font-size="14.00" fill="#000000">OUT</text>
</g>
<!-- anat_norm_wfpoutputnode&#45;&gt;anat_norm_wfoutputnode -->
<g id="edge13" class="edge">
<title>anat_norm_wfpoutputnode:e&#45;&gt;anat_norm_wfoutputnode:w</title>
<path fill="none" stroke="#000000" d="M1210.0377,-371.5C1210.0377,-371.5 1210.0377,-203.8042 1210.0377,-160.5702"/>
<polygon fill="#000000" stroke="#000000" points="1213.5378,-160.5 1210.0377,-150.5 1206.5378,-160.5 1213.5378,-160.5"/>
</g>
<!-- anat_norm_wfpoutputnode&#45;&gt;anat_norm_wfoutputnode -->
<g id="edge14" class="edge">
<title>anat_norm_wfpoutputnode:e&#45;&gt;anat_norm_wfoutputnode:w</title>
<path fill="none" stroke="#000000" d="M1210.0377,-348.5C1210.0377,-348.5 1210.0377,-180.8042 1210.0377,-137.5702"/>
<polygon fill="#000000" stroke="#000000" points="1213.5378,-137.5 1210.0377,-127.5 1206.5378,-137.5 1213.5378,-137.5"/>
</g>
<!-- anat_norm_wfpoutputnode&#45;&gt;anat_norm_wfoutputnode -->
<g id="edge15" class="edge">
<title>anat_norm_wfpoutputnode:e&#45;&gt;anat_norm_wfoutputnode:w</title>
<path fill="none" stroke="#000000" d="M1210.0377,-325.5C1304.4231,-325.5 1126.7131,-121.4284 1199.8411,-105.4853"/>
<polygon fill="#000000" stroke="#000000" points="1200.4208,-108.9457 1210.0377,-104.5 1199.7474,-101.9781 1200.4208,-108.9457"/>
</g>
<!-- anat_norm_wfpoutputnode&#45;&gt;anat_norm_wfoutputnode -->
<g id="edge16" class="edge">
<title>anat_norm_wfpoutputnode:e&#45;&gt;anat_norm_wfoutputnode:w</title>
<path fill="none" stroke="#000000" d="M1210.0377,-301.5C1304.4231,-301.5 1126.7131,-97.4284 1199.8411,-81.4853"/>
<polygon fill="#000000" stroke="#000000" points="1200.4208,-84.9457 1210.0377,-80.5 1199.7474,-77.9781 1200.4208,-84.9457"/>
</g>
<!-- anat_norm_wfpoutputnode&#45;&gt;anat_norm_wfoutputnode -->
<g id="edge17" class="edge">
<title>anat_norm_wfpoutputnode:e&#45;&gt;anat_norm_wfoutputnode:w</title>
<path fill="none" stroke="#000000" d="M1210.0377,-278.5C1210.0377,-278.5 1210.0377,-110.8042 1210.0377,-67.5702"/>
<polygon fill="#000000" stroke="#000000" points="1213.5378,-67.5 1210.0377,-57.5 1206.5378,-67.5 1213.5378,-67.5"/>
</g>
<!-- anat_norm_wfpoutputnode&#45;&gt;anat_norm_wfoutputnode -->
<g id="edge18" class="edge">
<title>anat_norm_wfpoutputnode:e&#45;&gt;anat_norm_wfoutputnode:w</title>
<path fill="none" stroke="#000000" d="M1210.0377,-255.5C1210.0377,-255.5 1210.0377,-87.8042 1210.0377,-44.5702"/>
<polygon fill="#000000" stroke="#000000" points="1213.5378,-44.5 1210.0377,-34.5 1206.5378,-44.5 1213.5378,-44.5"/>
</g>
<!-- anat_norm_wfpoutputnode&#45;&gt;anat_norm_wfoutputnode -->
<g id="edge19" class="edge">
<title>anat_norm_wfpoutputnode:e&#45;&gt;anat_norm_wfoutputnode:w</title>
<path fill="none" stroke="#000000" d="M1210.0377,-232.5C1210.0377,-232.5 1210.0377,-64.8042 1210.0377,-21.5702"/>
<polygon fill="#000000" stroke="#000000" points="1213.5378,-21.5 1210.0377,-11.5 1206.5378,-21.5 1213.5378,-21.5"/>
</g>
</g>
</svg>
