<?xml version="1.0" encoding="UTF-8" standalone="no"?>
<!DOCTYPE svg PUBLIC "-//W3C//DTD SVG 1.1//EN"
 "http://www.w3.org/Graphics/SVG/1.1/DTD/svg11.dtd">
<!-- Generated by graphviz version 2.40.1 (20161225.0304)
 -->
<!-- Title: structs Pages: 1 -->
<svg width="1325pt" height="548pt"
 viewBox="0.00 0.00 1325.00 548.00" xmlns="http://www.w3.org/2000/svg" xmlns:xlink="http://www.w3.org/1999/xlink">
<g id="graph0" class="graph" transform="scale(1 1) rotate(0) translate(4 544)">
<title>structs</title>
<polygon fill="#ffffff" stroke="transparent" points="-4,4 -4,-544 1321,-544 1321,4 -4,4"/>
<!-- segs_to_native_aseginputnode -->
<g id="node1" class="node">
<title>segs_to_native_aseginputnode</title>
<polygon fill="none" stroke="#000000" points="0,-447.5 0,-539.5 228,-539.5 228,-447.5 0,-447.5"/>
<text text-anchor="middle" x="17.5" y="-489.8" font-family="Times,serif" font-size="14.00" fill="#000000">IN</text>
<polyline fill="none" stroke="#000000" points="35,-447.5 35,-539.5 "/>
<text text-anchor="middle" x="79.5" y="-520.8" font-family="Times,serif" font-size="14.00" fill="#000000">inputnode</text>
<polyline fill="none" stroke="#000000" points="35,-509.5 124,-509.5 "/>
<text text-anchor="middle" x="79.5" y="-490.3" font-family="Times,serif" font-size="14.00" fill="#000000">utility</text>
<polyline fill="none" stroke="#000000" points="35,-478.5 124,-478.5 "/>
<text text-anchor="middle" x="79.5" y="-459.3" font-family="Times,serif" font-size="14.00" fill="#000000"> </text>
<polyline fill="none" stroke="#000000" points="124,-447.5 124,-539.5 "/>
<text text-anchor="middle" x="176" y="-524.3" font-family="Times,serif" font-size="14.00" fill="#000000">OUT</text>
<polyline fill="none" stroke="#000000" points="124,-516.5 228,-516.5 "/>
<text text-anchor="middle" x="176" y="-501.3" font-family="Times,serif" font-size="14.00" fill="#000000">in_file</text>
<polyline fill="none" stroke="#000000" points="124,-493.5 228,-493.5 "/>
<text text-anchor="middle" x="176" y="-478.3" font-family="Times,serif" font-size="14.00" fill="#000000">subject_id</text>
<polyline fill="none" stroke="#000000" points="124,-470.5 228,-470.5 "/>
<text text-anchor="middle" x="176" y="-455.3" font-family="Times,serif" font-size="14.00" fill="#000000">subjects_dir</text>
</g>
<!-- segs_to_native_asegfs_datasource -->
<g id="node2" class="node">
<title>segs_to_native_asegfs_datasource</title>
<polygon fill="none" stroke="#000000" points="228.5,-341.5 228.5,-410.5 517.5,-410.5 517.5,-341.5 228.5,-341.5"/>
<text text-anchor="middle" x="280.5" y="-395.3" font-family="Times,serif" font-size="14.00" fill="#000000">IN</text>
<polyline fill="none" stroke="#000000" points="228.5,-387.5 332.5,-387.5 "/>
<text text-anchor="middle" x="280.5" y="-372.3" font-family="Times,serif" font-size="14.00" fill="#000000">subject_id</text>
<polyline fill="none" stroke="#000000" points="228.5,-364.5 332.5,-364.5 "/>
<text text-anchor="middle" x="280.5" y="-349.3" font-family="Times,serif" font-size="14.00" fill="#000000">subjects_dir</text>
<polyline fill="none" stroke="#000000" points="332.5,-341.5 332.5,-410.5 "/>
<text text-anchor="middle" x="390.5" y="-395.3" font-family="Times,serif" font-size="14.00" fill="#000000">fs_datasource</text>
<polyline fill="none" stroke="#000000" points="332.5,-387.5 448.5,-387.5 "/>
<text text-anchor="middle" x="390.5" y="-372.3" font-family="Times,serif" font-size="14.00" fill="#000000">io</text>
<polyline fill="none" stroke="#000000" points="332.5,-364.5 448.5,-364.5 "/>
<text text-anchor="middle" x="390.5" y="-349.3" font-family="Times,serif" font-size="14.00" fill="#000000"> </text>
<polyline fill="none" stroke="#000000" points="448.5,-341.5 448.5,-410.5 "/>
<text text-anchor="middle" x="483" y="-395.3" font-family="Times,serif" font-size="14.00" fill="#000000">OUT</text>
<polyline fill="none" stroke="#000000" points="448.5,-387.5 517.5,-387.5 "/>
<text text-anchor="middle" x="483" y="-372.3" font-family="Times,serif" font-size="14.00" fill="#000000">aseg</text>
<polyline fill="none" stroke="#000000" points="448.5,-364.5 517.5,-364.5 "/>
<text text-anchor="middle" x="483" y="-349.3" font-family="Times,serif" font-size="14.00" fill="#000000">rawavg</text>
</g>
<!-- segs_to_native_aseginputnode&#45;&gt;segs_to_native_asegfs_datasource -->
<g id="edge5" class="edge">
<title>segs_to_native_aseginputnode:e&#45;&gt;segs_to_native_asegfs_datasource:w</title>
<path fill="none" stroke="#000000" d="M228,-481.5C270.4931,-481.5 197.4581,-394.854 218.2897,-378.6079"/>
<polygon fill="#000000" stroke="#000000" points="219.2501,-381.9741 228,-376 217.4344,-375.2136 219.2501,-381.9741"/>
</g>
<!-- segs_to_native_aseginputnode&#45;&gt;segs_to_native_asegfs_datasource -->
<g id="edge6" class="edge">
<title>segs_to_native_aseginputnode:e&#45;&gt;segs_to_native_asegfs_datasource:w</title>
<path fill="none" stroke="#000000" d="M228,-458.5C228,-458.5 228,-389.5216 228,-363.1158"/>
<polygon fill="#000000" stroke="#000000" points="231.5001,-363 228,-353 224.5001,-363 231.5001,-363"/>
</g>
<!-- segs_to_native_asegtonii -->
<g id="node4" class="node">
<title>segs_to_native_asegtonii</title>
<polygon fill="none" stroke="#000000" points="841.5,-106.5 841.5,-175.5 1098.5,-175.5 1098.5,-106.5 841.5,-106.5"/>
<text text-anchor="middle" x="890.5" y="-160.3" font-family="Times,serif" font-size="14.00" fill="#000000">IN</text>
<polyline fill="none" stroke="#000000" points="841.5,-152.5 939.5,-152.5 "/>
<text text-anchor="middle" x="890.5" y="-137.3" font-family="Times,serif" font-size="14.00" fill="#000000">in_file</text>
<polyline fill="none" stroke="#000000" points="841.5,-129.5 939.5,-129.5 "/>
<text text-anchor="middle" x="890.5" y="-114.3" font-family="Times,serif" font-size="14.00" fill="#000000">reslice_like</text>
<polyline fill="none" stroke="#000000" points="939.5,-106.5 939.5,-175.5 "/>
<text text-anchor="middle" x="984" y="-160.3" font-family="Times,serif" font-size="14.00" fill="#000000">tonii</text>
<polyline fill="none" stroke="#000000" points="939.5,-152.5 1028.5,-152.5 "/>
<text text-anchor="middle" x="984" y="-137.3" font-family="Times,serif" font-size="14.00" fill="#000000">freesurfer</text>
<polyline fill="none" stroke="#000000" points="939.5,-129.5 1028.5,-129.5 "/>
<text text-anchor="middle" x="984" y="-114.3" font-family="Times,serif" font-size="14.00" fill="#000000"> </text>
<polyline fill="none" stroke="#000000" points="1028.5,-106.5 1028.5,-175.5 "/>
<text text-anchor="middle" x="1063.5" y="-154.8" font-family="Times,serif" font-size="14.00" fill="#000000">OUT</text>
<polyline fill="none" stroke="#000000" points="1028.5,-141.5 1098.5,-141.5 "/>
<text text-anchor="middle" x="1063.5" y="-120.3" font-family="Times,serif" font-size="14.00" fill="#000000">out_file</text>
</g>
<!-- segs_to_native_aseginputnode&#45;&gt;segs_to_native_asegtonii -->
<g id="edge4" class="edge">
<title>segs_to_native_aseginputnode:e&#45;&gt;segs_to_native_asegtonii:w</title>
<path fill="none" stroke="#000000" d="M228,-505.5C370.2681,-505.5 751.7212,-419.618 836,-305 841.2908,-297.8046 833.5055,-164.8721 837.8071,-127.6271"/>
<polygon fill="#000000" stroke="#000000" points="841.174,-128.5934 841,-118 834.5299,-126.3898 841.174,-128.5934"/>
</g>
<!-- segs_to_native_asegtonative -->
<g id="node3" class="node">
<title>segs_to_native_asegtonative</title>
<polygon fill="none" stroke="#000000" points="518.5,-212.5 518.5,-304.5 827.5,-304.5 827.5,-212.5 518.5,-212.5"/>
<text text-anchor="middle" x="573.5" y="-289.3" font-family="Times,serif" font-size="14.00" fill="#000000">IN</text>
<polyline fill="none" stroke="#000000" points="518.5,-281.5 628.5,-281.5 "/>
<text text-anchor="middle" x="573.5" y="-266.3" font-family="Times,serif" font-size="14.00" fill="#000000">reg_header</text>
<polyline fill="none" stroke="#000000" points="518.5,-258.5 628.5,-258.5 "/>
<text text-anchor="middle" x="573.5" y="-243.3" font-family="Times,serif" font-size="14.00" fill="#000000">seg_file</text>
<polyline fill="none" stroke="#000000" points="518.5,-235.5 628.5,-235.5 "/>
<text text-anchor="middle" x="573.5" y="-220.3" font-family="Times,serif" font-size="14.00" fill="#000000">template_file</text>
<polyline fill="none" stroke="#000000" points="628.5,-212.5 628.5,-304.5 "/>
<text text-anchor="middle" x="673" y="-285.8" font-family="Times,serif" font-size="14.00" fill="#000000">tonative</text>
<polyline fill="none" stroke="#000000" points="628.5,-274.5 717.5,-274.5 "/>
<text text-anchor="middle" x="673" y="-255.3" font-family="Times,serif" font-size="14.00" fill="#000000">freesurfer</text>
<polyline fill="none" stroke="#000000" points="628.5,-243.5 717.5,-243.5 "/>
<text text-anchor="middle" x="673" y="-224.3" font-family="Times,serif" font-size="14.00" fill="#000000"> </text>
<polyline fill="none" stroke="#000000" points="717.5,-212.5 717.5,-304.5 "/>
<text text-anchor="middle" x="772.5" y="-277.8" font-family="Times,serif" font-size="14.00" fill="#000000">OUT</text>
<polyline fill="none" stroke="#000000" points="717.5,-258.5 827.5,-258.5 "/>
<text text-anchor="middle" x="772.5" y="-231.8" font-family="Times,serif" font-size="14.00" fill="#000000">vol_label_file</text>
</g>
<!-- segs_to_native_asegfs_datasource&#45;&gt;segs_to_native_asegtonative -->
<g id="edge1" class="edge">
<title>segs_to_native_asegfs_datasource:e&#45;&gt;segs_to_native_asegtonative:w</title>
<path fill="none" stroke="#000000" d="M518,-376C560.4931,-376 487.4581,-289.354 508.2897,-273.1079"/>
<polygon fill="#000000" stroke="#000000" points="509.2501,-276.4741 518,-270.5 507.4344,-269.7136 509.2501,-276.4741"/>
</g>
<!-- segs_to_native_asegfs_datasource&#45;&gt;segs_to_native_asegtonative -->
<g id="edge2" class="edge">
<title>segs_to_native_asegfs_datasource:e&#45;&gt;segs_to_native_asegtonative:w</title>
<path fill="none" stroke="#000000" d="M518,-376C571.2839,-376 476.5801,-265.0093 507.8971,-248.5341"/>
<polygon fill="#000000" stroke="#000000" points="508.8876,-251.905 518,-246.5 507.5059,-245.0427 508.8876,-251.905"/>
</g>
<!-- segs_to_native_asegfs_datasource&#45;&gt;segs_to_native_asegtonative -->
<g id="edge3" class="edge">
<title>segs_to_native_asegfs_datasource:e&#45;&gt;segs_to_native_asegtonative:w</title>
<path fill="none" stroke="#000000" d="M518,-353C518,-353 518,-264.1901 518,-233.6616"/>
<polygon fill="#000000" stroke="#000000" points="521.5001,-233.5 518,-223.5 514.5001,-233.5 521.5001,-233.5"/>
</g>
<!-- segs_to_native_asegtonative&#45;&gt;segs_to_native_asegtonii -->
<g id="edge7" class="edge">
<title>segs_to_native_asegtonative:e&#45;&gt;segs_to_native_asegtonii:w</title>
<path fill="none" stroke="#000000" d="M828,-235.5C845.5544,-235.5 828.4124,-170.6927 834.0399,-148.4153"/>
<polygon fill="#000000" stroke="#000000" points="836.7082,-150.6866 841,-141 831.6042,-145.896 836.7082,-150.6866"/>
</g>
<!-- segs_to_native_asegoutputnode -->
<g id="node5" class="node">
<title>segs_to_native_asegoutputnode</title>
<polygon fill="none" stroke="#000000" points="1099,-.5 1099,-69.5 1317,-69.5 1317,-.5 1099,-.5"/>
<text text-anchor="middle" x="1134" y="-48.8" font-family="Times,serif" font-size="14.00" fill="#000000">IN</text>
<polyline fill="none" stroke="#000000" points="1099,-35.5 1169,-35.5 "/>
<text text-anchor="middle" x="1134" y="-14.3" font-family="Times,serif" font-size="14.00" fill="#000000">out_file</text>
<polyline fill="none" stroke="#000000" points="1169,-.5 1169,-69.5 "/>
<text text-anchor="middle" x="1218" y="-54.3" font-family="Times,serif" font-size="14.00" fill="#000000">outputnode</text>
<polyline fill="none" stroke="#000000" points="1169,-46.5 1267,-46.5 "/>
<text text-anchor="middle" x="1218" y="-31.3" font-family="Times,serif" font-size="14.00" fill="#000000">utility</text>
<polyline fill="none" stroke="#000000" points="1169,-23.5 1267,-23.5 "/>
<text text-anchor="middle" x="1218" y="-8.3" font-family="Times,serif" font-size="14.00" fill="#000000"> </text>
<polyline fill="none" stroke="#000000" points="1267,-.5 1267,-69.5 "/>
<text text-anchor="middle" x="1292" y="-31.3" font-family="Times,serif" font-size="14.00" fill="#000000">OUT</text>
</g>
<!-- segs_to_native_asegtonii&#45;&gt;segs_to_native_asegoutputnode -->
<g id="edge8" class="edge">
<title>segs_to_native_asegtonii:e&#45;&gt;segs_to_native_asegoutputnode:w</title>
<path fill="none" stroke="#000000" d="M1099,-124C1141.6944,-124 1068.3134,-36.9434 1089.2437,-20.6202"/>
<polygon fill="#000000" stroke="#000000" points="1090.2501,-23.9741 1099,-18 1088.4344,-17.2136 1090.2501,-23.9741"/>
</g>
</g>
</svg>
