<?xml version="1.0" encoding="UTF-8" standalone="no"?>
<!DOCTYPE svg PUBLIC "-//W3C//DTD SVG 1.1//EN"
 "http://www.w3.org/Graphics/SVG/1.1/DTD/svg11.dtd">
<!-- Generated by graphviz version 2.40.1 (20161225.0304)
 -->
<!-- Title: %3 Pages: 1 -->
<svg width="986pt" height="476pt"
 viewBox="0.00 0.00 986.00 476.00" xmlns="http://www.w3.org/2000/svg" xmlns:xlink="http://www.w3.org/1999/xlink">
<g id="graph0" class="graph" transform="scale(1 1) rotate(0) translate(4 472)">
<title>%3</title>
<polygon fill="#ffffff" stroke="transparent" points="-4,4 -4,-472 982,-472 982,4 -4,4"/>
<!-- inputnode (utility) -->
<g id="node1" class="node">
<title>inputnode (utility)</title>
<ellipse fill="none" stroke="#000000" cx="464" cy="-450" rx="94.7833" ry="18"/>
<text text-anchor="middle" x="464" y="-446.3" font-family="Times,serif" font-size="14.00" fill="#000000">inputnode (utility)</text>
</g>
<!-- tpl_specs (utility) -->
<g id="node2" class="node">
<title>tpl_specs (utility)</title>
<ellipse fill="none" stroke="#000000" cx="524" cy="-378" rx="92.0841" ry="18"/>
<text text-anchor="middle" x="524" y="-374.3" font-family="Times,serif" font-size="14.00" fill="#000000">tpl_specs (utility)</text>
</g>
<!-- inputnode (utility)&#45;&gt;tpl_specs (utility) -->
<g id="edge1" class="edge">
<title>inputnode (utility)&#45;&gt;tpl_specs (utility)</title>
<path fill="none" stroke="#000000" d="M478.8315,-432.2022C485.971,-423.6348 494.6659,-413.2009 502.5134,-403.7839"/>
<polygon fill="#000000" stroke="#000000" points="505.4181,-405.7654 509.1312,-395.8425 500.0406,-401.2841 505.4181,-405.7654"/>
</g>
<!-- tpl_select (utility) -->
<g id="node3" class="node">
<title>tpl_select (utility)</title>
<ellipse fill="none" stroke="#000000" cx="560" cy="-306" rx="93.6835" ry="18"/>
<text text-anchor="middle" x="560" y="-302.3" font-family="Times,serif" font-size="14.00" fill="#000000">tpl_select (utility)</text>
</g>
<!-- inputnode (utility)&#45;&gt;tpl_select (utility) -->
<g id="edge2" class="edge">
<title>inputnode (utility)&#45;&gt;tpl_select (utility)</title>
<path fill="none" stroke="#000000" d="M527.9463,-436.5769C567.5961,-426.8109 613.164,-412.4538 625,-396 634.3433,-383.0114 631.7975,-374.4843 625,-360 619.3442,-347.9484 609.5311,-337.6558 599.2186,-329.3893"/>
<polygon fill="#000000" stroke="#000000" points="601.021,-326.3675 590.9109,-323.1992 596.8386,-331.9807 601.021,-326.3675"/>
</g>
<!-- registration (mni) -->
<g id="node4" class="node">
<title>registration (mni)</title>
<ellipse fill="none" stroke="#000000" cx="355" cy="-306" rx="92.8835" ry="18"/>
<text text-anchor="middle" x="355" y="-302.3" font-family="Times,serif" font-size="14.00" fill="#000000">registration (mni)</text>
</g>
<!-- inputnode (utility)&#45;&gt;registration (mni) -->
<g id="edge3" class="edge">
<title>inputnode (utility)&#45;&gt;registration (mni)</title>
<path fill="none" stroke="#000000" d="M450.3227,-432.008C442.347,-421.5107 432.097,-408.0107 423,-396 406.7421,-374.5347 388.3317,-350.1641 374.7712,-332.2015"/>
<polygon fill="#000000" stroke="#000000" points="377.3527,-329.8119 368.5345,-323.9391 371.7656,-334.0292 377.3527,-329.8119"/>
</g>
<!-- trunc_mov (ants) -->
<g id="node5" class="node">
<title>trunc_mov (ants)</title>
<ellipse fill="none" stroke="#000000" cx="286" cy="-378" rx="90.1842" ry="18"/>
<text text-anchor="middle" x="286" y="-374.3" font-family="Times,serif" font-size="14.00" fill="#000000">trunc_mov (ants)</text>
</g>
<!-- inputnode (utility)&#45;&gt;trunc_mov (ants) -->
<g id="edge4" class="edge">
<title>inputnode (utility)&#45;&gt;trunc_mov (ants)</title>
<path fill="none" stroke="#000000" d="M423.609,-433.6621C397.4589,-423.0845 363.2324,-409.2401 335.4561,-398.0047"/>
<polygon fill="#000000" stroke="#000000" points="336.5069,-394.6543 325.9242,-394.1491 333.882,-401.1436 336.5069,-394.6543"/>
</g>
<!-- tpl_moving (fixes) -->
<g id="node6" class="node">
<title>tpl_moving (fixes)</title>
<ellipse fill="none" stroke="#000000" cx="552" cy="-234" rx="94.4839" ry="18"/>
<text text-anchor="middle" x="552" y="-230.3" font-family="Times,serif" font-size="14.00" fill="#000000">tpl_moving (fixes)</text>
</g>
<!-- inputnode (utility)&#45;&gt;tpl_moving (fixes) -->
<g id="edge5" class="edge">
<title>inputnode (utility)&#45;&gt;tpl_moving (fixes)</title>
<path fill="none" stroke="#000000" d="M530.2245,-437.0027C574.3216,-427.0789 626.9979,-412.3589 643,-396 677.1356,-361.1034 688.8894,-329.3854 663,-288 652.9309,-271.9041 636.5372,-260.4816 619.4024,-252.4255"/>
<polygon fill="#000000" stroke="#000000" points="620.4098,-249.0478 609.8422,-248.2879 617.6294,-255.4719 620.4098,-249.0478"/>
</g>
<!-- tpl_mask (fixes) -->
<g id="node7" class="node">
<title>tpl_mask (fixes)</title>
<ellipse fill="none" stroke="#000000" cx="749" cy="-234" rx="85.2851" ry="18"/>
<text text-anchor="middle" x="749" y="-230.3" font-family="Times,serif" font-size="14.00" fill="#000000">tpl_mask (fixes)</text>
</g>
<!-- inputnode (utility)&#45;&gt;tpl_mask (fixes) -->
<g id="edge6" class="edge">
<title>inputnode (utility)&#45;&gt;tpl_mask (fixes)</title>
<path fill="none" stroke="#000000" d="M535.0108,-438.0491C586.3422,-428.2147 650.1736,-413.1408 671,-396 713.1181,-361.3355 734.0805,-298.5096 743.144,-262.1218"/>
<polygon fill="#000000" stroke="#000000" points="746.6018,-262.7076 745.4892,-252.1713 739.7885,-261.1017 746.6018,-262.7076"/>
</g>
<!-- tpl_seg (fixes) -->
<g id="node8" class="node">
<title>tpl_seg (fixes)</title>
<ellipse fill="none" stroke="#000000" cx="364" cy="-234" rx="76.0865" ry="18"/>
<text text-anchor="middle" x="364" y="-230.3" font-family="Times,serif" font-size="14.00" fill="#000000">tpl_seg (fixes)</text>
</g>
<!-- inputnode (utility)&#45;&gt;tpl_seg (fixes) -->
<g id="edge7" class="edge">
<title>inputnode (utility)&#45;&gt;tpl_seg (fixes)</title>
<path fill="none" stroke="#000000" d="M373.2305,-444.5119C301.7542,-438.0714 210.405,-424.4083 187,-396 139.3125,-338.1184 246.235,-281.5283 313.8927,-253.0393"/>
<polygon fill="#000000" stroke="#000000" points="315.2544,-256.2637 323.1587,-249.2087 312.5801,-249.7947 315.2544,-256.2637"/>
</g>
<!-- tpl_tpms (fixes) -->
<g id="node9" class="node">
<title>tpl_tpms (fixes)</title>
<ellipse fill="none" stroke="#000000" cx="149" cy="-234" rx="83.3857" ry="18"/>
<text text-anchor="middle" x="149" y="-230.3" font-family="Times,serif" font-size="14.00" fill="#000000">tpl_tpms (fixes)</text>
</g>
<!-- inputnode (utility)&#45;&gt;tpl_tpms (fixes) -->
<g id="edge8" class="edge">
<title>inputnode (utility)&#45;&gt;tpl_tpms (fixes)</title>
<path fill="none" stroke="#000000" d="M373.1177,-444.6016C297.9436,-438.1486 199.2535,-424.4181 172,-396 137.8767,-360.4185 139.4488,-298.629 144.0013,-262.5174"/>
<polygon fill="#000000" stroke="#000000" points="147.5269,-262.5862 145.4737,-252.1922 140.597,-261.598 147.5269,-262.5862"/>
</g>
<!-- poutputnode (utility) -->
<g id="node10" class="node">
<title>poutputnode (utility)</title>
<ellipse fill="none" stroke="#000000" cx="312" cy="-162" rx="107.4815" ry="18"/>
<text text-anchor="middle" x="312" y="-158.3" font-family="Times,serif" font-size="14.00" fill="#000000">poutputnode (utility)</text>
</g>
<!-- inputnode (utility)&#45;&gt;poutputnode (utility) -->
<g id="edge9" class="edge">
<title>inputnode (utility)&#45;&gt;poutputnode (utility)</title>
<path fill="none" stroke="#000000" d="M376.2299,-443.0075C296.0226,-435.2023 184.5205,-420.3593 148,-396 85.0166,-353.9899 78.0525,-324.7224 57,-252 52.5508,-236.631 46.9262,-228.4305 57,-216 75.9937,-192.5629 144.3704,-178.8913 205.5397,-171.1703"/>
<polygon fill="#000000" stroke="#000000" points="206.1754,-174.6188 215.6789,-169.9355 205.3291,-167.6702 206.1754,-174.6188"/>
</g>
<!-- msk_select (utility) -->
<g id="node11" class="node">
<title>msk_select (utility)</title>
<ellipse fill="none" stroke="#000000" cx="849" cy="-306" rx="100.9827" ry="18"/>
<text text-anchor="middle" x="849" y="-302.3" font-family="Times,serif" font-size="14.00" fill="#000000">msk_select (utility)</text>
</g>
<!-- inputnode (utility)&#45;&gt;msk_select (utility) -->
<g id="edge10" class="edge">
<title>inputnode (utility)&#45;&gt;msk_select (utility)</title>
<path fill="none" stroke="#000000" d="M551.3918,-442.9265C605.8742,-436.033 676.3371,-422.4957 734,-396 768.8264,-379.9975 802.6242,-351.5096 824.4634,-330.8628"/>
<polygon fill="#000000" stroke="#000000" points="826.8971,-333.3782 831.6715,-323.9201 822.041,-328.3364 826.8971,-333.3782"/>
</g>
<!-- norm_rpt (registration) -->
<g id="node12" class="node">
<title>norm_rpt (registration)</title>
<ellipse fill="none" stroke="#000000" cx="801" cy="-90" rx="118.8789" ry="18"/>
<text text-anchor="middle" x="801" y="-86.3" font-family="Times,serif" font-size="14.00" fill="#000000">norm_rpt (registration)</text>
</g>
<!-- inputnode (utility)&#45;&gt;norm_rpt (registration) -->
<g id="edge11" class="edge">
<title>inputnode (utility)&#45;&gt;norm_rpt (registration)</title>
<path fill="none" stroke="#000000" d="M552.6523,-443.436C699.6894,-430.0849 978,-393.2854 978,-306 978,-306 978,-306 978,-234 978,-172.0936 912.0426,-132.1076 860.6542,-110.3485"/>
<polygon fill="#000000" stroke="#000000" points="861.8282,-107.0472 851.2476,-106.4966 859.1755,-113.5251 861.8282,-107.0472"/>
</g>
<!-- ds_t1_2_tpl_report -->
<g id="node13" class="node">
<title>ds_t1_2_tpl_report</title>
<ellipse fill="none" stroke="#000000" cx="374" cy="-18" rx="98.5829" ry="18"/>
<text text-anchor="middle" x="374" y="-14.3" font-family="Times,serif" font-size="14.00" fill="#000000">ds_t1_2_tpl_report</text>
</g>
<!-- inputnode (utility)&#45;&gt;ds_t1_2_tpl_report -->
<g id="edge12" class="edge">
<title>inputnode (utility)&#45;&gt;ds_t1_2_tpl_report</title>
<path fill="none" stroke="#000000" d="M376.6363,-442.7891C285.2285,-434.2263 148.5353,-418.2495 101,-396 46.545,-370.5116 0,-366.125 0,-306 0,-306 0,-306 0,-162 0,-99.8425 182.1819,-54.3043 292.2424,-32.4649"/>
<polygon fill="#000000" stroke="#000000" points="293.1907,-35.8457 302.3316,-30.489 291.8453,-28.9762 293.1907,-35.8457"/>
</g>
<!-- tpl_specs (utility)&#45;&gt;tpl_select (utility) -->
<g id="edge13" class="edge">
<title>tpl_specs (utility)&#45;&gt;tpl_select (utility)</title>
<path fill="none" stroke="#000000" d="M533.0843,-359.8314C537.0615,-351.8771 541.8155,-342.369 546.2139,-333.5723"/>
<polygon fill="#000000" stroke="#000000" points="549.4517,-334.9228 550.7934,-324.4133 543.1907,-331.7923 549.4517,-334.9228"/>
</g>
<!-- tpl_specs (utility)&#45;&gt;registration (mni) -->
<g id="edge14" class="edge">
<title>tpl_specs (utility)&#45;&gt;registration (mni)</title>
<path fill="none" stroke="#000000" d="M485.228,-361.4817C460.7527,-351.0544 428.953,-337.5066 402.9041,-326.4089"/>
<polygon fill="#000000" stroke="#000000" points="404.1633,-323.141 393.5916,-322.4414 401.4196,-329.5809 404.1633,-323.141"/>
</g>
<!-- tpl_specs (utility)&#45;&gt;msk_select (utility) -->
<g id="edge15" class="edge">
<title>tpl_specs (utility)&#45;&gt;msk_select (utility)</title>
<path fill="none" stroke="#000000" d="M585.13,-364.4574C639.1632,-352.4869 718.0931,-335.0009 775.5426,-322.2737"/>
<polygon fill="#000000" stroke="#000000" points="776.642,-325.615 785.6482,-320.0349 775.1279,-318.7807 776.642,-325.615"/>
</g>
<!-- tpl_select (utility)&#45;&gt;tpl_moving (fixes) -->
<g id="edge16" class="edge">
<title>tpl_select (utility)&#45;&gt;tpl_moving (fixes)</title>
<path fill="none" stroke="#000000" d="M557.9813,-287.8314C557.1257,-280.131 556.1083,-270.9743 555.1574,-262.4166"/>
<polygon fill="#000000" stroke="#000000" points="558.6289,-261.9656 554.0459,-252.4133 551.6717,-262.7386 558.6289,-261.9656"/>
</g>
<!-- tpl_select (utility)&#45;&gt;tpl_mask (fixes) -->
<g id="edge17" class="edge">
<title>tpl_select (utility)&#45;&gt;tpl_mask (fixes)</title>
<path fill="none" stroke="#000000" d="M602.4153,-289.8418C630.6988,-279.0671 668.0346,-264.844 697.9469,-253.4488"/>
<polygon fill="#000000" stroke="#000000" points="699.2781,-256.6871 707.377,-249.8564 696.7861,-250.1457 699.2781,-256.6871"/>
</g>
<!-- tpl_select (utility)&#45;&gt;tpl_seg (fixes) -->
<g id="edge18" class="edge">
<title>tpl_select (utility)&#45;&gt;tpl_seg (fixes)</title>
<path fill="none" stroke="#000000" d="M516.5012,-290.0209C486.4525,-278.9826 446.3801,-264.2621 414.8536,-252.6809"/>
<polygon fill="#000000" stroke="#000000" points="415.958,-249.358 405.3645,-249.1951 413.5443,-255.9287 415.958,-249.358"/>
</g>
<!-- tpl_select (utility)&#45;&gt;tpl_tpms (fixes) -->
<g id="edge19" class="edge">
<title>tpl_select (utility)&#45;&gt;tpl_tpms (fixes)</title>
<path fill="none" stroke="#000000" d="M490.7442,-293.8676C416.7415,-280.9036 299.8369,-260.424 223.7793,-247.1"/>
<polygon fill="#000000" stroke="#000000" points="224.2434,-243.6281 213.7894,-245.35 223.0354,-250.5231 224.2434,-243.6281"/>
</g>
<!-- norm_msk (utility) -->
<g id="node14" class="node">
<title>norm_msk (utility)</title>
<ellipse fill="none" stroke="#000000" cx="801" cy="-162" rx="96.6831" ry="18"/>
<text text-anchor="middle" x="801" y="-158.3" font-family="Times,serif" font-size="14.00" fill="#000000">norm_msk (utility)</text>
</g>
<!-- tpl_select (utility)&#45;&gt;norm_msk (utility) -->
<g id="edge20" class="edge">
<title>tpl_select (utility)&#45;&gt;norm_msk (utility)</title>
<path fill="none" stroke="#000000" d="M638.6763,-296.1637C717.8041,-285.4651 829.9483,-267.7776 843,-252 858.9384,-232.7327 843.3413,-206.4134 826.8226,-187.2146"/>
<polygon fill="#000000" stroke="#000000" points="829.3347,-184.7747 820.0224,-179.7217 824.1511,-189.479 829.3347,-184.7747"/>
</g>
<!-- registration (mni)&#45;&gt;tpl_moving (fixes) -->
<g id="edge21" class="edge">
<title>registration (mni)&#45;&gt;tpl_moving (fixes)</title>
<path fill="none" stroke="#000000" d="M398.7207,-290.0209C428.2036,-279.2454 467.2874,-264.961 498.6092,-253.5134"/>
<polygon fill="#000000" stroke="#000000" points="499.8705,-256.7789 508.0613,-250.0588 497.4675,-250.2043 499.8705,-256.7789"/>
</g>
<!-- registration (mni)&#45;&gt;tpl_mask (fixes) -->
<g id="edge22" class="edge">
<title>registration (mni)&#45;&gt;tpl_mask (fixes)</title>
<path fill="none" stroke="#000000" d="M423.85,-293.831C484.6815,-283.0258 575.7836,-266.7136 655,-252 661.7503,-250.7462 668.7704,-249.4282 675.7974,-248.0994"/>
<polygon fill="#000000" stroke="#000000" points="676.8947,-251.4537 686.0671,-246.151 675.5899,-244.5764 676.8947,-251.4537"/>
</g>
<!-- registration (mni)&#45;&gt;tpl_seg (fixes) -->
<g id="edge23" class="edge">
<title>registration (mni)&#45;&gt;tpl_seg (fixes)</title>
<path fill="none" stroke="#000000" d="M357.2711,-287.8314C358.2336,-280.131 359.3782,-270.9743 360.4479,-262.4166"/>
<polygon fill="#000000" stroke="#000000" points="363.9309,-262.7702 361.6983,-252.4133 356.9849,-261.9019 363.9309,-262.7702"/>
</g>
<!-- registration (mni)&#45;&gt;tpl_tpms (fixes) -->
<g id="edge24" class="edge">
<title>registration (mni)&#45;&gt;tpl_tpms (fixes)</title>
<path fill="none" stroke="#000000" d="M309.7924,-290.1993C278.2083,-279.1602 235.9047,-264.3745 202.6165,-252.7397"/>
<polygon fill="#000000" stroke="#000000" points="203.6359,-249.3885 193.0411,-249.393 201.3263,-255.9965 203.6359,-249.3885"/>
</g>
<!-- registration (mni)&#45;&gt;poutputnode (utility) -->
<g id="edge25" class="edge">
<title>registration (mni)&#45;&gt;poutputnode (utility)</title>
<path fill="none" stroke="#000000" d="M317.8051,-289.2545C302.9015,-280.4582 287.3152,-268.1087 279,-252 268.4382,-231.5391 278.9324,-206.9057 290.8076,-188.5867"/>
<polygon fill="#000000" stroke="#000000" points="293.8382,-190.3585 296.662,-180.1469 288.0865,-186.3688 293.8382,-190.3585"/>
</g>
<!-- trunc_mov (ants)&#45;&gt;registration (mni) -->
<g id="edge26" class="edge">
<title>trunc_mov (ants)&#45;&gt;registration (mni)</title>
<path fill="none" stroke="#000000" d="M303.0562,-360.2022C311.4325,-351.4617 321.6705,-340.7786 330.8362,-331.2144"/>
<polygon fill="#000000" stroke="#000000" points="333.5088,-333.4841 337.9009,-323.8425 328.4548,-328.6408 333.5088,-333.4841"/>
</g>
<!-- tpl_moving (fixes)&#45;&gt;poutputnode (utility) -->
<g id="edge27" class="edge">
<title>tpl_moving (fixes)&#45;&gt;poutputnode (utility)</title>
<path fill="none" stroke="#000000" d="M501.1022,-218.7307C464.0627,-207.6188 413.6991,-192.5097 374.2603,-180.6781"/>
<polygon fill="#000000" stroke="#000000" points="375.0676,-177.2662 364.4836,-177.7451 373.0561,-183.971 375.0676,-177.2662"/>
</g>
<!-- tpl_moving (fixes)&#45;&gt;norm_msk (utility) -->
<g id="edge28" class="edge">
<title>tpl_moving (fixes)&#45;&gt;norm_msk (utility)</title>
<path fill="none" stroke="#000000" d="M604.1986,-218.9064C643.4094,-207.5684 697.2626,-191.9964 738.7233,-180.0077"/>
<polygon fill="#000000" stroke="#000000" points="739.8077,-183.3376 748.4419,-177.1975 737.8632,-176.6131 739.8077,-183.3376"/>
</g>
<!-- tpl_mask (fixes)&#45;&gt;poutputnode (utility) -->
<g id="edge29" class="edge">
<title>tpl_mask (fixes)&#45;&gt;poutputnode (utility)</title>
<path fill="none" stroke="#000000" d="M686.3546,-221.7055C675.8952,-219.7385 665.1487,-217.7701 655,-216 569.5312,-201.0931 471.753,-185.88 402.5195,-175.4165"/>
<polygon fill="#000000" stroke="#000000" points="402.9269,-171.9384 392.5167,-173.9077 401.8828,-178.8601 402.9269,-171.9384"/>
</g>
<!-- tpl_mask (fixes)&#45;&gt;norm_msk (utility) -->
<g id="edge30" class="edge">
<title>tpl_mask (fixes)&#45;&gt;norm_msk (utility)</title>
<path fill="none" stroke="#000000" d="M761.8539,-216.2022C767.979,-207.7214 775.425,-197.4115 782.172,-188.0696"/>
<polygon fill="#000000" stroke="#000000" points="785.0962,-189.9986 788.1137,-179.8425 779.4214,-185.9001 785.0962,-189.9986"/>
</g>
<!-- tpl_seg (fixes)&#45;&gt;poutputnode (utility) -->
<g id="edge31" class="edge">
<title>tpl_seg (fixes)&#45;&gt;poutputnode (utility)</title>
<path fill="none" stroke="#000000" d="M351.1461,-216.2022C345.067,-207.7851 337.6869,-197.5665 330.9803,-188.2805"/>
<polygon fill="#000000" stroke="#000000" points="333.7596,-186.1507 325.0673,-180.0931 328.0848,-190.2492 333.7596,-186.1507"/>
</g>
<!-- tpl_tpms (fixes)&#45;&gt;poutputnode (utility) -->
<g id="edge32" class="edge">
<title>tpl_tpms (fixes)&#45;&gt;poutputnode (utility)</title>
<path fill="none" stroke="#000000" d="M185.9872,-217.6621C209.2248,-207.3976 239.4268,-194.0569 264.4375,-183.0092"/>
<polygon fill="#000000" stroke="#000000" points="266.0104,-186.1407 273.7435,-178.8986 263.182,-179.7376 266.0104,-186.1407"/>
</g>
<!-- outputnode (utility) -->
<g id="node15" class="node">
<title>outputnode (utility)</title>
<ellipse fill="none" stroke="#000000" cx="312" cy="-90" rx="101.2821" ry="18"/>
<text text-anchor="middle" x="312" y="-86.3" font-family="Times,serif" font-size="14.00" fill="#000000">outputnode (utility)</text>
</g>
<!-- poutputnode (utility)&#45;&gt;outputnode (utility) -->
<g id="edge33" class="edge">
<title>poutputnode (utility)&#45;&gt;outputnode (utility)</title>
<path fill="none" stroke="#000000" d="M312,-143.8314C312,-136.131 312,-126.9743 312,-118.4166"/>
<polygon fill="#000000" stroke="#000000" points="315.5001,-118.4132 312,-108.4133 308.5001,-118.4133 315.5001,-118.4132"/>
</g>
<!-- msk_select (utility)&#45;&gt;norm_msk (utility) -->
<g id="edge34" class="edge">
<title>msk_select (utility)&#45;&gt;norm_msk (utility)</title>
<path fill="none" stroke="#000000" d="M862.1208,-288.0217C874.0357,-269.3138 888.0482,-239.5208 876,-216 869.4075,-203.1299 858.1613,-192.6289 846.3552,-184.4241"/>
<polygon fill="#000000" stroke="#000000" points="848.019,-181.3324 837.718,-178.8544 844.2254,-187.2153 848.019,-181.3324"/>
</g>
<!-- norm_rpt (registration)&#45;&gt;ds_t1_2_tpl_report -->
<g id="edge35" class="edge">
<title>norm_rpt (registration)&#45;&gt;ds_t1_2_tpl_report</title>
<path fill="none" stroke="#000000" d="M721.1855,-76.5418C645.7596,-63.8236 533.0853,-44.8247 456.7206,-31.9482"/>
<polygon fill="#000000" stroke="#000000" points="457.1038,-28.4635 446.661,-30.252 455.9398,-35.366 457.1038,-28.4635"/>
</g>
<!-- norm_msk (utility)&#45;&gt;norm_rpt (registration) -->
<g id="edge36" class="edge">
<title>norm_msk (utility)&#45;&gt;norm_rpt (registration)</title>
<path fill="none" stroke="#000000" d="M801,-143.8314C801,-136.131 801,-126.9743 801,-118.4166"/>
<polygon fill="#000000" stroke="#000000" points="804.5001,-118.4132 801,-108.4133 797.5001,-118.4133 804.5001,-118.4132"/>
</g>
</g>
</svg>
