<?xml version="1.0" encoding="UTF-8" standalone="no"?>
<!DOCTYPE svg PUBLIC "-//W3C//DTD SVG 1.1//EN"
 "http://www.w3.org/Graphics/SVG/1.1/DTD/svg11.dtd">
<!-- Generated by graphviz version 2.40.1 (20161225.0304)
 -->
<!-- Title: structs Pages: 1 -->
<svg width="1682pt" height="1045pt"
 viewBox="0.00 0.00 1681.93 1045.00" xmlns="http://www.w3.org/2000/svg" xmlns:xlink="http://www.w3.org/1999/xlink">
<g id="graph0" class="graph" transform="scale(1 1) rotate(0) translate(4 1041)">
<title>structs</title>
<polygon fill="#ffffff" stroke="transparent" points="-4,4 -4,-1041 1677.9284,-1041 1677.9284,4 -4,4"/>
<!-- anat_norm_wfsplit_desc -->
<g id="node1" class="node">
<title>anat_norm_wfsplit_desc</title>
<polygon fill="none" stroke="#000000" points="591.7723,-792.5 591.7723,-861.5 792.7723,-861.5 792.7723,-792.5 591.7723,-792.5"/>
<text text-anchor="middle" x="609.2723" y="-823.3" font-family="Times,serif" font-size="14.00" fill="#000000">IN</text>
<polyline fill="none" stroke="#000000" points="626.7723,-792.5 626.7723,-861.5 "/>
<text text-anchor="middle" x="681.7723" y="-846.3" font-family="Times,serif" font-size="14.00" fill="#000000">split_desc</text>
<polyline fill="none" stroke="#000000" points="626.7723,-838.5 736.7723,-838.5 "/>
<text text-anchor="middle" x="681.7723" y="-823.3" font-family="Times,serif" font-size="14.00" fill="#000000">templateflow</text>
<polyline fill="none" stroke="#000000" points="626.7723,-815.5 736.7723,-815.5 "/>
<text text-anchor="middle" x="681.7723" y="-800.3" font-family="Times,serif" font-size="14.00" fill="#000000"> </text>
<polyline fill="none" stroke="#000000" points="736.7723,-792.5 736.7723,-861.5 "/>
<text text-anchor="middle" x="764.7723" y="-846.3" font-family="Times,serif" font-size="14.00" fill="#000000">OUT</text>
<polyline fill="none" stroke="#000000" points="736.7723,-838.5 792.7723,-838.5 "/>
<text text-anchor="middle" x="764.7723" y="-823.3" font-family="Times,serif" font-size="14.00" fill="#000000">name</text>
<polyline fill="none" stroke="#000000" points="736.7723,-815.5 792.7723,-815.5 "/>
<text text-anchor="middle" x="764.7723" y="-800.3" font-family="Times,serif" font-size="14.00" fill="#000000">spec</text>
</g>
<!-- anat_norm_wftf_select -->
<g id="node2" class="node">
<title>anat_norm_wftf_select</title>
<polygon fill="none" stroke="#000000" points="591.7723,-652 591.7723,-721 896.7723,-721 896.7723,-652 591.7723,-652"/>
<text text-anchor="middle" x="652.2723" y="-705.8" font-family="Times,serif" font-size="14.00" fill="#000000">IN</text>
<polyline fill="none" stroke="#000000" points="591.7723,-698 712.7723,-698 "/>
<text text-anchor="middle" x="652.2723" y="-682.8" font-family="Times,serif" font-size="14.00" fill="#000000">template</text>
<polyline fill="none" stroke="#000000" points="591.7723,-675 712.7723,-675 "/>
<text text-anchor="middle" x="652.2723" y="-659.8" font-family="Times,serif" font-size="14.00" fill="#000000">template_spec</text>
<polyline fill="none" stroke="#000000" points="712.7723,-652 712.7723,-721 "/>
<text text-anchor="middle" x="767.7723" y="-705.8" font-family="Times,serif" font-size="14.00" fill="#000000">tf_select</text>
<polyline fill="none" stroke="#000000" points="712.7723,-698 822.7723,-698 "/>
<text text-anchor="middle" x="767.7723" y="-682.8" font-family="Times,serif" font-size="14.00" fill="#000000">templateflow</text>
<polyline fill="none" stroke="#000000" points="712.7723,-675 822.7723,-675 "/>
<text text-anchor="middle" x="767.7723" y="-659.8" font-family="Times,serif" font-size="14.00" fill="#000000"> </text>
<polyline fill="none" stroke="#000000" points="822.7723,-652 822.7723,-721 "/>
<text text-anchor="middle" x="859.7723" y="-700.3" font-family="Times,serif" font-size="14.00" fill="#000000">OUT</text>
<polyline fill="none" stroke="#000000" points="822.7723,-687 896.7723,-687 "/>
<text text-anchor="middle" x="859.7723" y="-665.8" font-family="Times,serif" font-size="14.00" fill="#000000">t1w_file</text>
</g>
<!-- anat_norm_wfsplit_desc&#45;&gt;anat_norm_wftf_select -->
<g id="edge24" class="edge">
<title>anat_norm_wfsplit_desc:e&#45;&gt;anat_norm_wftf_select:w</title>
<path fill="none" stroke="#000000" d="M793.2723,-827C808.8278,-827 802.279,-804.6829 793.2723,-792 738.216,-714.4717 646.3286,-799.0283 591.2723,-721.5 585.0802,-712.7805 580.0498,-699.5074 582.5653,-692.0631"/>
<polygon fill="#000000" stroke="#000000" points="584.7299,-694.8336 591.2723,-686.5 580.961,-688.9348 584.7299,-694.8336"/>
</g>
<!-- anat_norm_wfsplit_desc&#45;&gt;anat_norm_wftf_select -->
<g id="edge27" class="edge">
<title>anat_norm_wfsplit_desc:e&#45;&gt;anat_norm_wftf_select:w</title>
<path fill="none" stroke="#000000" d="M793.2723,-804C798.6056,-804 796.3603,-796.3484 793.2723,-792 738.216,-714.4717 646.3286,-799.0283 591.2723,-721.5 585.7336,-713.7006 581.3166,-685.5296 584.6766,-671.5223"/>
<polygon fill="#000000" stroke="#000000" points="587.6251,-673.4473 591.2723,-663.5 582.2179,-669.0017 587.6251,-673.4473"/>
</g>
<!-- anat_norm_wfregistration -->
<g id="node5" class="node">
<title>anat_norm_wfregistration</title>
<polygon fill="none" stroke="#000000" points="84.7723,-617.5 84.7723,-755.5 535.7723,-755.5 535.7723,-617.5 84.7723,-617.5"/>
<text text-anchor="middle" x="145.2723" y="-740.3" font-family="Times,serif" font-size="14.00" fill="#000000">IN</text>
<polyline fill="none" stroke="#000000" points="84.7723,-732.5 205.7723,-732.5 "/>
<text text-anchor="middle" x="145.2723" y="-717.3" font-family="Times,serif" font-size="14.00" fill="#000000">lesion_mask</text>
<polyline fill="none" stroke="#000000" points="84.7723,-709.5 205.7723,-709.5 "/>
<text text-anchor="middle" x="145.2723" y="-694.3" font-family="Times,serif" font-size="14.00" fill="#000000">moving_image</text>
<polyline fill="none" stroke="#000000" points="84.7723,-686.5 205.7723,-686.5 "/>
<text text-anchor="middle" x="145.2723" y="-671.3" font-family="Times,serif" font-size="14.00" fill="#000000">moving_mask</text>
<polyline fill="none" stroke="#000000" points="84.7723,-663.5 205.7723,-663.5 "/>
<text text-anchor="middle" x="145.2723" y="-648.3" font-family="Times,serif" font-size="14.00" fill="#000000">template</text>
<polyline fill="none" stroke="#000000" points="84.7723,-640.5 205.7723,-640.5 "/>
<text text-anchor="middle" x="145.2723" y="-625.3" font-family="Times,serif" font-size="14.00" fill="#000000">template_spec</text>
<polyline fill="none" stroke="#000000" points="205.7723,-617.5 205.7723,-755.5 "/>
<text text-anchor="middle" x="256.2723" y="-728.8" font-family="Times,serif" font-size="14.00" fill="#000000">registration</text>
<polyline fill="none" stroke="#000000" points="205.7723,-709.5 306.7723,-709.5 "/>
<text text-anchor="middle" x="256.2723" y="-682.8" font-family="Times,serif" font-size="14.00" fill="#000000">mni</text>
<polyline fill="none" stroke="#000000" points="205.7723,-663.5 306.7723,-663.5 "/>
<text text-anchor="middle" x="256.2723" y="-636.8" font-family="Times,serif" font-size="14.00" fill="#000000"> </text>
<polyline fill="none" stroke="#000000" points="306.7723,-617.5 306.7723,-755.5 "/>
<text text-anchor="middle" x="421.2723" y="-728.8" font-family="Times,serif" font-size="14.00" fill="#000000">OUT</text>
<polyline fill="none" stroke="#000000" points="306.7723,-709.5 535.7723,-709.5 "/>
<text text-anchor="middle" x="421.2723" y="-682.8" font-family="Times,serif" font-size="14.00" fill="#000000">composite_transform</text>
<polyline fill="none" stroke="#000000" points="306.7723,-663.5 535.7723,-663.5 "/>
<text text-anchor="middle" x="421.2723" y="-636.8" font-family="Times,serif" font-size="14.00" fill="#000000">inverse_composite_transform</text>
</g>
<!-- anat_norm_wfsplit_desc&#45;&gt;anat_norm_wfregistration -->
<g id="edge23" class="edge">
<title>anat_norm_wfsplit_desc:e&#45;&gt;anat_norm_wfregistration:w</title>
<path fill="none" stroke="#000000" d="M793.2723,-827C808.8278,-827 803.9892,-803.2749 793.2723,-792 738.9288,-734.8272 138.6157,-813.1728 84.2723,-756 77.7728,-749.1621 74.1698,-684.4495 79.2751,-660.4226"/>
<polygon fill="#000000" stroke="#000000" points="82.4396,-661.9351 84.2723,-651.5 76.3321,-658.5146 82.4396,-661.9351"/>
</g>
<!-- anat_norm_wfsplit_desc&#45;&gt;anat_norm_wfregistration -->
<g id="edge26" class="edge">
<title>anat_norm_wfsplit_desc:e&#45;&gt;anat_norm_wfregistration:w</title>
<path fill="none" stroke="#000000" d="M793.2723,-804C798.6056,-804 796.9467,-795.8657 793.2723,-792 738.9288,-734.8272 138.6157,-813.1728 84.2723,-756 76.1135,-747.4164 71.6956,-664.0876 78.741,-636.9764"/>
<polygon fill="#000000" stroke="#000000" points="81.7385,-638.7874 84.2723,-628.5 75.8762,-634.962 81.7385,-638.7874"/>
</g>
<!-- anat_norm_wfpoutputnode -->
<g id="node10" class="node">
<title>anat_norm_wfpoutputnode</title>
<polygon fill="none" stroke="#000000" points="1051.7723,-244.5 1051.7723,-451.5 1400.7723,-451.5 1400.7723,-244.5 1051.7723,-244.5"/>
<text text-anchor="middle" x="1112.2723" y="-436.3" font-family="Times,serif" font-size="14.00" fill="#000000">IN</text>
<polyline fill="none" stroke="#000000" points="1051.7723,-428.5 1172.7723,-428.5 "/>
<text text-anchor="middle" x="1112.2723" y="-413.3" font-family="Times,serif" font-size="14.00" fill="#000000">anat2std_xfm</text>
<polyline fill="none" stroke="#000000" points="1051.7723,-405.5 1172.7723,-405.5 "/>
<text text-anchor="middle" x="1112.2723" y="-390.3" font-family="Times,serif" font-size="14.00" fill="#000000">standardized</text>
<polyline fill="none" stroke="#000000" points="1051.7723,-382.5 1172.7723,-382.5 "/>
<text text-anchor="middle" x="1112.2723" y="-367.3" font-family="Times,serif" font-size="14.00" fill="#000000">std2anat_xfm</text>
<polyline fill="none" stroke="#000000" points="1051.7723,-359.5 1172.7723,-359.5 "/>
<text text-anchor="middle" x="1112.2723" y="-344.3" font-family="Times,serif" font-size="14.00" fill="#000000">std_dseg</text>
<polyline fill="none" stroke="#000000" points="1051.7723,-336.5 1172.7723,-336.5 "/>
<text text-anchor="middle" x="1112.2723" y="-321.3" font-family="Times,serif" font-size="14.00" fill="#000000">std_mask</text>
<polyline fill="none" stroke="#000000" points="1051.7723,-313.5 1172.7723,-313.5 "/>
<text text-anchor="middle" x="1112.2723" y="-298.3" font-family="Times,serif" font-size="14.00" fill="#000000">std_tpms</text>
<polyline fill="none" stroke="#000000" points="1051.7723,-290.5 1172.7723,-290.5 "/>
<text text-anchor="middle" x="1112.2723" y="-275.3" font-family="Times,serif" font-size="14.00" fill="#000000">template</text>
<polyline fill="none" stroke="#000000" points="1051.7723,-267.5 1172.7723,-267.5 "/>
<text text-anchor="middle" x="1112.2723" y="-252.3" font-family="Times,serif" font-size="14.00" fill="#000000">template_spec</text>
<polyline fill="none" stroke="#000000" points="1172.7723,-244.5 1172.7723,-451.5 "/>
<text text-anchor="middle" x="1226.2723" y="-413.3" font-family="Times,serif" font-size="14.00" fill="#000000">poutputnode</text>
<polyline fill="none" stroke="#000000" points="1172.7723,-382.5 1279.7723,-382.5 "/>
<text text-anchor="middle" x="1226.2723" y="-344.3" font-family="Times,serif" font-size="14.00" fill="#000000">utility</text>
<polyline fill="none" stroke="#000000" points="1172.7723,-313.5 1279.7723,-313.5 "/>
<text text-anchor="middle" x="1226.2723" y="-275.3" font-family="Times,serif" font-size="14.00" fill="#000000"> </text>
<polyline fill="none" stroke="#000000" points="1279.7723,-244.5 1279.7723,-451.5 "/>
<text text-anchor="middle" x="1340.2723" y="-436.3" font-family="Times,serif" font-size="14.00" fill="#000000">OUT</text>
<polyline fill="none" stroke="#000000" points="1279.7723,-428.5 1400.7723,-428.5 "/>
<text text-anchor="middle" x="1340.2723" y="-413.3" font-family="Times,serif" font-size="14.00" fill="#000000">anat2std_xfm</text>
<polyline fill="none" stroke="#000000" points="1279.7723,-405.5 1400.7723,-405.5 "/>
<text text-anchor="middle" x="1340.2723" y="-390.3" font-family="Times,serif" font-size="14.00" fill="#000000">standardized</text>
<polyline fill="none" stroke="#000000" points="1279.7723,-382.5 1400.7723,-382.5 "/>
<text text-anchor="middle" x="1340.2723" y="-367.3" font-family="Times,serif" font-size="14.00" fill="#000000">std2anat_xfm</text>
<polyline fill="none" stroke="#000000" points="1279.7723,-359.5 1400.7723,-359.5 "/>
<text text-anchor="middle" x="1340.2723" y="-344.3" font-family="Times,serif" font-size="14.00" fill="#000000">std_dseg</text>
<polyline fill="none" stroke="#000000" points="1279.7723,-336.5 1400.7723,-336.5 "/>
<text text-anchor="middle" x="1340.2723" y="-321.3" font-family="Times,serif" font-size="14.00" fill="#000000">std_mask</text>
<polyline fill="none" stroke="#000000" points="1279.7723,-313.5 1400.7723,-313.5 "/>
<text text-anchor="middle" x="1340.2723" y="-298.3" font-family="Times,serif" font-size="14.00" fill="#000000">std_tpms</text>
<polyline fill="none" stroke="#000000" points="1279.7723,-290.5 1400.7723,-290.5 "/>
<text text-anchor="middle" x="1340.2723" y="-275.3" font-family="Times,serif" font-size="14.00" fill="#000000">template</text>
<polyline fill="none" stroke="#000000" points="1279.7723,-267.5 1400.7723,-267.5 "/>
<text text-anchor="middle" x="1340.2723" y="-252.3" font-family="Times,serif" font-size="14.00" fill="#000000">template_spec</text>
</g>
<!-- anat_norm_wfsplit_desc&#45;&gt;anat_norm_wfpoutputnode -->
<g id="edge22" class="edge">
<title>anat_norm_wfsplit_desc:e&#45;&gt;anat_norm_wfpoutputnode:w</title>
<path fill="none" stroke="#000000" d="M793.2723,-827C978.8405,-827 1481.0653,-730.2983 1591.2723,-581 1615.8197,-547.7454 1619.5106,-518.1835 1591.2723,-488 1509.1082,-400.1759 1133.4364,-539.8241 1051.2723,-452 1001.2053,-398.4841 976.729,-289.8215 1041.1197,-279.752"/>
<polygon fill="#000000" stroke="#000000" points="1041.5582,-283.2292 1051.2723,-279 1041.041,-276.2483 1041.5582,-283.2292"/>
</g>
<!-- anat_norm_wfsplit_desc&#45;&gt;anat_norm_wfpoutputnode -->
<g id="edge25" class="edge">
<title>anat_norm_wfsplit_desc:e&#45;&gt;anat_norm_wfpoutputnode:w</title>
<path fill="none" stroke="#000000" d="M793.2723,-804C1184.2564,-804 1881.7733,-773.1522 1614.2723,-488 1528.4997,-396.5677 1137.0448,-543.4323 1051.2723,-452 994.1177,-391.074 966.472,-266.7506 1041.1263,-256.6546"/>
<polygon fill="#000000" stroke="#000000" points="1041.5184,-260.1367 1051.2723,-256 1041.0676,-253.1512 1041.5184,-260.1367"/>
</g>
<!-- anat_norm_wfstd_tpms -->
<g id="node6" class="node">
<title>anat_norm_wfstd_tpms</title>
<polygon fill="none" stroke="#000000" points="1246.7723,-488.5 1246.7723,-580.5 1581.7723,-580.5 1581.7723,-488.5 1246.7723,-488.5"/>
<text text-anchor="middle" x="1315.2723" y="-565.3" font-family="Times,serif" font-size="14.00" fill="#000000">IN</text>
<polyline fill="none" stroke="#000000" points="1246.7723,-557.5 1383.7723,-557.5 "/>
<text text-anchor="middle" x="1315.2723" y="-542.3" font-family="Times,serif" font-size="14.00" fill="#000000">input_image</text>
<polyline fill="none" stroke="#000000" points="1246.7723,-534.5 1383.7723,-534.5 "/>
<text text-anchor="middle" x="1315.2723" y="-519.3" font-family="Times,serif" font-size="14.00" fill="#000000">reference_image</text>
<polyline fill="none" stroke="#000000" points="1246.7723,-511.5 1383.7723,-511.5 "/>
<text text-anchor="middle" x="1315.2723" y="-496.3" font-family="Times,serif" font-size="14.00" fill="#000000">transforms</text>
<polyline fill="none" stroke="#000000" points="1383.7723,-488.5 1383.7723,-580.5 "/>
<text text-anchor="middle" x="1425.2723" y="-561.8" font-family="Times,serif" font-size="14.00" fill="#000000">std_tpms</text>
<polyline fill="none" stroke="#000000" points="1383.7723,-550.5 1466.7723,-550.5 "/>
<text text-anchor="middle" x="1425.2723" y="-531.3" font-family="Times,serif" font-size="14.00" fill="#000000">fixes</text>
<polyline fill="none" stroke="#000000" points="1383.7723,-519.5 1466.7723,-519.5 "/>
<text text-anchor="middle" x="1425.2723" y="-500.3" font-family="Times,serif" font-size="14.00" fill="#000000"> </text>
<polyline fill="none" stroke="#000000" points="1466.7723,-488.5 1466.7723,-580.5 "/>
<text text-anchor="middle" x="1524.2723" y="-553.8" font-family="Times,serif" font-size="14.00" fill="#000000">OUT</text>
<polyline fill="none" stroke="#000000" points="1466.7723,-534.5 1581.7723,-534.5 "/>
<text text-anchor="middle" x="1524.2723" y="-507.8" font-family="Times,serif" font-size="14.00" fill="#000000">output_image</text>
</g>
<!-- anat_norm_wftf_select&#45;&gt;anat_norm_wfstd_tpms -->
<g id="edge33" class="edge">
<title>anat_norm_wftf_select:e&#45;&gt;anat_norm_wfstd_tpms:w</title>
<path fill="none" stroke="#000000" d="M897.2723,-669.5C975.5605,-669.5 1186.2753,-639.5266 1238.2723,-581 1244.6721,-573.7965 1238.9104,-545.6237 1240.5946,-531.1652"/>
<polygon fill="#000000" stroke="#000000" points="1243.7191,-532.7826 1246.2723,-522.5 1237.8641,-528.9461 1243.7191,-532.7826"/>
</g>
<!-- anat_norm_wfstd_dseg -->
<g id="node7" class="node">
<title>anat_norm_wfstd_dseg</title>
<polygon fill="none" stroke="#000000" points="541.2723,-488.5 541.2723,-580.5 873.2723,-580.5 873.2723,-488.5 541.2723,-488.5"/>
<text text-anchor="middle" x="609.7723" y="-565.3" font-family="Times,serif" font-size="14.00" fill="#000000">IN</text>
<polyline fill="none" stroke="#000000" points="541.2723,-557.5 678.2723,-557.5 "/>
<text text-anchor="middle" x="609.7723" y="-542.3" font-family="Times,serif" font-size="14.00" fill="#000000">input_image</text>
<polyline fill="none" stroke="#000000" points="541.2723,-534.5 678.2723,-534.5 "/>
<text text-anchor="middle" x="609.7723" y="-519.3" font-family="Times,serif" font-size="14.00" fill="#000000">reference_image</text>
<polyline fill="none" stroke="#000000" points="541.2723,-511.5 678.2723,-511.5 "/>
<text text-anchor="middle" x="609.7723" y="-496.3" font-family="Times,serif" font-size="14.00" fill="#000000">transforms</text>
<polyline fill="none" stroke="#000000" points="678.2723,-488.5 678.2723,-580.5 "/>
<text text-anchor="middle" x="718.2723" y="-561.8" font-family="Times,serif" font-size="14.00" fill="#000000">std_dseg</text>
<polyline fill="none" stroke="#000000" points="678.2723,-550.5 758.2723,-550.5 "/>
<text text-anchor="middle" x="718.2723" y="-531.3" font-family="Times,serif" font-size="14.00" fill="#000000">fixes</text>
<polyline fill="none" stroke="#000000" points="678.2723,-519.5 758.2723,-519.5 "/>
<text text-anchor="middle" x="718.2723" y="-500.3" font-family="Times,serif" font-size="14.00" fill="#000000"> </text>
<polyline fill="none" stroke="#000000" points="758.2723,-488.5 758.2723,-580.5 "/>
<text text-anchor="middle" x="815.7723" y="-553.8" font-family="Times,serif" font-size="14.00" fill="#000000">OUT</text>
<polyline fill="none" stroke="#000000" points="758.2723,-534.5 873.2723,-534.5 "/>
<text text-anchor="middle" x="815.7723" y="-507.8" font-family="Times,serif" font-size="14.00" fill="#000000">output_image</text>
</g>
<!-- anat_norm_wftf_select&#45;&gt;anat_norm_wfstd_dseg -->
<g id="edge31" class="edge">
<title>anat_norm_wftf_select:e&#45;&gt;anat_norm_wfstd_dseg:w</title>
<path fill="none" stroke="#000000" d="M897.2723,-669.5C905.2723,-669.5 902.35,-657.6819 897.2723,-651.5 794.8952,-526.8606 643.6494,-705.6394 541.2723,-581 535.0838,-573.4658 530.8655,-544.3266 534.6276,-530.228"/>
<polygon fill="#000000" stroke="#000000" points="537.4065,-532.3644 541.2723,-522.5 532.0987,-527.8006 537.4065,-532.3644"/>
</g>
<!-- anat_norm_wfstd_mask -->
<g id="node8" class="node">
<title>anat_norm_wfstd_mask</title>
<polygon fill="none" stroke="#000000" points="891.7723,-488.5 891.7723,-580.5 1228.7723,-580.5 1228.7723,-488.5 891.7723,-488.5"/>
<text text-anchor="middle" x="960.2723" y="-565.3" font-family="Times,serif" font-size="14.00" fill="#000000">IN</text>
<polyline fill="none" stroke="#000000" points="891.7723,-557.5 1028.7723,-557.5 "/>
<text text-anchor="middle" x="960.2723" y="-542.3" font-family="Times,serif" font-size="14.00" fill="#000000">input_image</text>
<polyline fill="none" stroke="#000000" points="891.7723,-534.5 1028.7723,-534.5 "/>
<text text-anchor="middle" x="960.2723" y="-519.3" font-family="Times,serif" font-size="14.00" fill="#000000">reference_image</text>
<polyline fill="none" stroke="#000000" points="891.7723,-511.5 1028.7723,-511.5 "/>
<text text-anchor="middle" x="960.2723" y="-496.3" font-family="Times,serif" font-size="14.00" fill="#000000">transforms</text>
<polyline fill="none" stroke="#000000" points="1028.7723,-488.5 1028.7723,-580.5 "/>
<text text-anchor="middle" x="1071.2723" y="-561.8" font-family="Times,serif" font-size="14.00" fill="#000000">std_mask</text>
<polyline fill="none" stroke="#000000" points="1028.7723,-550.5 1113.7723,-550.5 "/>
<text text-anchor="middle" x="1071.2723" y="-531.3" font-family="Times,serif" font-size="14.00" fill="#000000">fixes</text>
<polyline fill="none" stroke="#000000" points="1028.7723,-519.5 1113.7723,-519.5 "/>
<text text-anchor="middle" x="1071.2723" y="-500.3" font-family="Times,serif" font-size="14.00" fill="#000000"> </text>
<polyline fill="none" stroke="#000000" points="1113.7723,-488.5 1113.7723,-580.5 "/>
<text text-anchor="middle" x="1171.2723" y="-553.8" font-family="Times,serif" font-size="14.00" fill="#000000">OUT</text>
<polyline fill="none" stroke="#000000" points="1113.7723,-534.5 1228.7723,-534.5 "/>
<text text-anchor="middle" x="1171.2723" y="-507.8" font-family="Times,serif" font-size="14.00" fill="#000000">output_image</text>
</g>
<!-- anat_norm_wftf_select&#45;&gt;anat_norm_wfstd_mask -->
<g id="edge32" class="edge">
<title>anat_norm_wftf_select:e&#45;&gt;anat_norm_wfstd_mask:w</title>
<path fill="none" stroke="#000000" d="M897.2723,-669.5C925.8794,-669.5 874.7991,-556.9531 883.4843,-528.8164"/>
<polygon fill="#000000" stroke="#000000" points="885.7103,-531.5175 891.2723,-522.5 881.3009,-526.0808 885.7103,-531.5175"/>
</g>
<!-- anat_norm_wftpl_moving -->
<g id="node9" class="node">
<title>anat_norm_wftpl_moving</title>
<polygon fill="none" stroke="#000000" points="99.2723,-488.5 99.2723,-580.5 447.2723,-580.5 447.2723,-488.5 99.2723,-488.5"/>
<text text-anchor="middle" x="167.7723" y="-565.3" font-family="Times,serif" font-size="14.00" fill="#000000">IN</text>
<polyline fill="none" stroke="#000000" points="99.2723,-557.5 236.2723,-557.5 "/>
<text text-anchor="middle" x="167.7723" y="-542.3" font-family="Times,serif" font-size="14.00" fill="#000000">input_image</text>
<polyline fill="none" stroke="#000000" points="99.2723,-534.5 236.2723,-534.5 "/>
<text text-anchor="middle" x="167.7723" y="-519.3" font-family="Times,serif" font-size="14.00" fill="#000000">reference_image</text>
<polyline fill="none" stroke="#000000" points="99.2723,-511.5 236.2723,-511.5 "/>
<text text-anchor="middle" x="167.7723" y="-496.3" font-family="Times,serif" font-size="14.00" fill="#000000">transforms</text>
<polyline fill="none" stroke="#000000" points="236.2723,-488.5 236.2723,-580.5 "/>
<text text-anchor="middle" x="284.2723" y="-561.8" font-family="Times,serif" font-size="14.00" fill="#000000">tpl_moving</text>
<polyline fill="none" stroke="#000000" points="236.2723,-550.5 332.2723,-550.5 "/>
<text text-anchor="middle" x="284.2723" y="-531.3" font-family="Times,serif" font-size="14.00" fill="#000000">fixes</text>
<polyline fill="none" stroke="#000000" points="236.2723,-519.5 332.2723,-519.5 "/>
<text text-anchor="middle" x="284.2723" y="-500.3" font-family="Times,serif" font-size="14.00" fill="#000000"> </text>
<polyline fill="none" stroke="#000000" points="332.2723,-488.5 332.2723,-580.5 "/>
<text text-anchor="middle" x="389.7723" y="-553.8" font-family="Times,serif" font-size="14.00" fill="#000000">OUT</text>
<polyline fill="none" stroke="#000000" points="332.2723,-534.5 447.2723,-534.5 "/>
<text text-anchor="middle" x="389.7723" y="-507.8" font-family="Times,serif" font-size="14.00" fill="#000000">output_image</text>
</g>
<!-- anat_norm_wftf_select&#45;&gt;anat_norm_wftpl_moving -->
<g id="edge34" class="edge">
<title>anat_norm_wftf_select:e&#45;&gt;anat_norm_wftpl_moving:w</title>
<path fill="none" stroke="#000000" d="M897.2723,-669.5C905.2723,-669.5 902.647,-657.4256 897.2723,-651.5 791.3663,-534.7389 701.2837,-631.0227 544.2723,-617 494.863,-612.5873 132.9051,-617.4635 99.2723,-581 84.3987,-564.8746 76.1145,-534.3138 89.5065,-525.1573"/>
<polygon fill="#000000" stroke="#000000" points="90.5421,-528.5028 99.2723,-522.5 88.7041,-521.7484 90.5421,-528.5028"/>
</g>
<!-- anat_norm_wfinputnode -->
<g id="node3" class="node">
<title>anat_norm_wfinputnode</title>
<polygon fill="none" stroke="#000000" points="105.2723,-898.5 105.2723,-1036.5 403.2723,-1036.5 403.2723,-898.5 105.2723,-898.5"/>
<text text-anchor="middle" x="122.7723" y="-963.8" font-family="Times,serif" font-size="14.00" fill="#000000">IN</text>
<polyline fill="none" stroke="#000000" points="140.2723,-898.5 140.2723,-1036.5 "/>
<text text-anchor="middle" x="184.7723" y="-1009.8" font-family="Times,serif" font-size="14.00" fill="#000000">inputnode</text>
<polyline fill="none" stroke="#000000" points="140.2723,-990.5 229.2723,-990.5 "/>
<text text-anchor="middle" x="184.7723" y="-963.8" font-family="Times,serif" font-size="14.00" fill="#000000">utility</text>
<polyline fill="none" stroke="#000000" points="140.2723,-944.5 229.2723,-944.5 "/>
<text text-anchor="middle" x="184.7723" y="-917.8" font-family="Times,serif" font-size="14.00" fill="#000000"> </text>
<polyline fill="none" stroke="#000000" points="229.2723,-898.5 229.2723,-1036.5 "/>
<text text-anchor="middle" x="316.2723" y="-1021.3" font-family="Times,serif" font-size="14.00" fill="#000000">OUT</text>
<polyline fill="none" stroke="#000000" points="229.2723,-1013.5 403.2723,-1013.5 "/>
<text text-anchor="middle" x="316.2723" y="-998.3" font-family="Times,serif" font-size="14.00" fill="#000000">lesion_mask</text>
<polyline fill="none" stroke="#000000" points="229.2723,-990.5 403.2723,-990.5 "/>
<text text-anchor="middle" x="316.2723" y="-975.3" font-family="Times,serif" font-size="14.00" fill="#000000">moving_image</text>
<polyline fill="none" stroke="#000000" points="229.2723,-967.5 403.2723,-967.5 "/>
<text text-anchor="middle" x="316.2723" y="-952.3" font-family="Times,serif" font-size="14.00" fill="#000000">moving_mask</text>
<polyline fill="none" stroke="#000000" points="229.2723,-944.5 403.2723,-944.5 "/>
<text text-anchor="middle" x="316.2723" y="-929.3" font-family="Times,serif" font-size="14.00" fill="#000000">moving_segmentation</text>
<polyline fill="none" stroke="#000000" points="229.2723,-921.5 403.2723,-921.5 "/>
<text text-anchor="middle" x="316.2723" y="-906.3" font-family="Times,serif" font-size="14.00" fill="#000000">moving_tpms</text>
</g>
<!-- anat_norm_wftrunc_mov -->
<g id="node4" class="node">
<title>anat_norm_wftrunc_mov</title>
<polygon fill="none" stroke="#000000" points="123.7723,-792.5 123.7723,-861.5 374.7723,-861.5 374.7723,-792.5 123.7723,-792.5"/>
<text text-anchor="middle" x="145.2723" y="-840.8" font-family="Times,serif" font-size="14.00" fill="#000000">IN</text>
<polyline fill="none" stroke="#000000" points="123.7723,-827.5 166.7723,-827.5 "/>
<text text-anchor="middle" x="145.2723" y="-806.3" font-family="Times,serif" font-size="14.00" fill="#000000">op1</text>
<polyline fill="none" stroke="#000000" points="166.7723,-792.5 166.7723,-861.5 "/>
<text text-anchor="middle" x="213.2723" y="-846.3" font-family="Times,serif" font-size="14.00" fill="#000000">trunc_mov</text>
<polyline fill="none" stroke="#000000" points="166.7723,-838.5 259.7723,-838.5 "/>
<text text-anchor="middle" x="213.2723" y="-823.3" font-family="Times,serif" font-size="14.00" fill="#000000">ants</text>
<polyline fill="none" stroke="#000000" points="166.7723,-815.5 259.7723,-815.5 "/>
<text text-anchor="middle" x="213.2723" y="-800.3" font-family="Times,serif" font-size="14.00" fill="#000000"> </text>
<polyline fill="none" stroke="#000000" points="259.7723,-792.5 259.7723,-861.5 "/>
<text text-anchor="middle" x="317.2723" y="-840.8" font-family="Times,serif" font-size="14.00" fill="#000000">OUT</text>
<polyline fill="none" stroke="#000000" points="259.7723,-827.5 374.7723,-827.5 "/>
<text text-anchor="middle" x="317.2723" y="-806.3" font-family="Times,serif" font-size="14.00" fill="#000000">output_image</text>
</g>
<!-- anat_norm_wfinputnode&#45;&gt;anat_norm_wftrunc_mov -->
<g id="edge3" class="edge">
<title>anat_norm_wfinputnode:e&#45;&gt;anat_norm_wftrunc_mov:w</title>
<path fill="none" stroke="#000000" d="M403.2723,-979.5C439.4945,-979.5 427.1965,-925.1971 403.2723,-898 320.4021,-803.793 206.1424,-956.207 123.2723,-862 117.727,-855.6961 114.1396,-831.1021 117.0245,-818.1236"/>
<polygon fill="#000000" stroke="#000000" points="119.9502,-820.0605 123.2723,-810 114.4014,-815.793 119.9502,-820.0605"/>
</g>
<!-- anat_norm_wfinputnode&#45;&gt;anat_norm_wfregistration -->
<g id="edge1" class="edge">
<title>anat_norm_wfinputnode:e&#45;&gt;anat_norm_wfregistration:w</title>
<path fill="none" stroke="#000000" d="M403.2723,-1002.5C449.7167,-1002.5 434.0168,-932.8118 403.2723,-898 317.5898,-800.982 212.4781,-946.3185 114.2723,-862 93.0774,-843.8023 61.5614,-749.8803 75.4016,-726.6841"/>
<polygon fill="#000000" stroke="#000000" points="77.4045,-729.5675 84.2723,-721.5 73.8725,-723.5238 77.4045,-729.5675"/>
</g>
<!-- anat_norm_wfinputnode&#45;&gt;anat_norm_wfregistration -->
<g id="edge4" class="edge">
<title>anat_norm_wfinputnode:e&#45;&gt;anat_norm_wfregistration:w</title>
<path fill="none" stroke="#000000" d="M403.2723,-955.5C458.3737,-955.5 455.238,-859.3214 383.2723,-792 285.5255,-700.5613 173.0807,-856.1425 84.2723,-756 74.5087,-744.9904 68.6548,-698.0687 76.5172,-680.8601"/>
<polygon fill="#000000" stroke="#000000" points="78.7595,-683.5477 84.2723,-674.5 74.3205,-678.1351 78.7595,-683.5477"/>
</g>
<!-- anat_norm_wfinputnode&#45;&gt;anat_norm_wfstd_tpms -->
<g id="edge7" class="edge">
<title>anat_norm_wfinputnode:e&#45;&gt;anat_norm_wfstd_tpms:w</title>
<path fill="none" stroke="#000000" d="M403.2723,-909.5C504.9329,-909.5 763.5051,-898.7975 858.2723,-862 1054.0785,-785.9696 1122.9914,-756.5876 1238.2723,-581 1243.7389,-572.6736 1239.1873,-561.0697 1239.0964,-553.6707"/>
<polygon fill="#000000" stroke="#000000" points="1241.6726,-556.0443 1246.2723,-546.5 1236.7246,-551.0928 1241.6726,-556.0443"/>
</g>
<!-- anat_norm_wfinputnode&#45;&gt;anat_norm_wfstd_dseg -->
<g id="edge6" class="edge">
<title>anat_norm_wfinputnode:e&#45;&gt;anat_norm_wfstd_dseg:w</title>
<path fill="none" stroke="#000000" d="M403.2723,-932.5C503.6747,-932.5 511.0711,-850.754 544.2723,-756 564.701,-697.6977 546.8397,-678.7244 544.2723,-617 544.0266,-611.0942 537.99,-574.0228 538.3933,-556.1344"/>
<polygon fill="#000000" stroke="#000000" points="541.7626,-557.0835 541.2723,-546.5 535.0556,-555.0792 541.7626,-557.0835"/>
</g>
<!-- anat_norm_wfinputnode&#45;&gt;anat_norm_wfstd_mask -->
<g id="edge5" class="edge">
<title>anat_norm_wfinputnode:e&#45;&gt;anat_norm_wfstd_mask:w</title>
<path fill="none" stroke="#000000" d="M403.2723,-955.5C585.4095,-955.5 643.5404,-951.3206 802.2723,-862 859.7907,-829.6336 881.306,-817.0953 906.2723,-756 929.6416,-698.8128 918.3879,-677.5781 906.2723,-617 902.8729,-600.0033 894.6716,-597.9967 891.2723,-581 889.3693,-571.4853 883.7346,-560.1971 883.7387,-553.1901"/>
<polygon fill="#000000" stroke="#000000" points="886.119,-555.7572 891.2723,-546.5 881.471,-550.5231 886.119,-555.7572"/>
</g>
<!-- anat_norm_wfinputnode&#45;&gt;anat_norm_wftpl_moving -->
<g id="edge2" class="edge">
<title>anat_norm_wfinputnode:e&#45;&gt;anat_norm_wftpl_moving:w</title>
<path fill="none" stroke="#000000" d="M403.2723,-979.5C439.4945,-979.5 427.4342,-924.9861 403.2723,-898 354.802,-843.8642 127.5036,-915.4446 78.2723,-862 -14.6167,-761.1612 -40.0305,-556.7935 89.2728,-546.8747"/>
<polygon fill="#000000" stroke="#000000" points="89.4104,-550.3721 99.2723,-546.5 89.1482,-543.377 89.4104,-550.3721"/>
</g>
<!-- anat_norm_wftrunc_mov&#45;&gt;anat_norm_wfregistration -->
<g id="edge36" class="edge">
<title>anat_norm_wftrunc_mov:e&#45;&gt;anat_norm_wfregistration:w</title>
<path fill="none" stroke="#000000" d="M375.2723,-810C383.2723,-810 380.5705,-797.9941 375.2723,-792 288.9647,-694.3572 170.5799,-853.6428 84.2723,-756 77.9255,-748.8196 73.9114,-720.0661 77.6916,-706.1381"/>
<polygon fill="#000000" stroke="#000000" points="80.3967,-708.3606 84.2723,-698.5 75.0935,-703.7915 80.3967,-708.3606"/>
</g>
<!-- anat_norm_wfregistration&#45;&gt;anat_norm_wfstd_tpms -->
<g id="edge19" class="edge">
<title>anat_norm_wfregistration:e&#45;&gt;anat_norm_wfstd_tpms:w</title>
<path fill="none" stroke="#000000" d="M536.2723,-686.5C573.5613,-686.5 550.8299,-635.3838 583.2723,-617 646.6863,-581.0658 1185.6384,-631.421 1238.2723,-581 1248.6929,-571.0175 1236.1745,-525.6194 1239.6184,-507.2497"/>
<polygon fill="#000000" stroke="#000000" points="1242.4134,-509.3671 1246.2723,-499.5 1237.1025,-504.8071 1242.4134,-509.3671"/>
</g>
<!-- anat_norm_wfregistration&#45;&gt;anat_norm_wfstd_dseg -->
<g id="edge17" class="edge">
<title>anat_norm_wfregistration:e&#45;&gt;anat_norm_wfstd_dseg:w</title>
<path fill="none" stroke="#000000" d="M536.2723,-686.5C573.7831,-686.5 513.8221,-534.2401 532.2954,-504.5018"/>
<polygon fill="#000000" stroke="#000000" points="534.2403,-507.4248 541.2723,-499.5 530.8332,-501.3099 534.2403,-507.4248"/>
</g>
<!-- anat_norm_wfregistration&#45;&gt;anat_norm_wfstd_mask -->
<g id="edge18" class="edge">
<title>anat_norm_wfregistration:e&#45;&gt;anat_norm_wfstd_mask:w</title>
<path fill="none" stroke="#000000" d="M536.2723,-686.5C573.5613,-686.5 551.4437,-636.427 583.2723,-617 640.3966,-582.1335 835.1831,-628.5549 882.2723,-581 892.4889,-570.6824 880.5672,-525.0552 884.5229,-506.9448"/>
<polygon fill="#000000" stroke="#000000" points="887.1487,-509.2594 891.2723,-499.5 881.9626,-504.5578 887.1487,-509.2594"/>
</g>
<!-- anat_norm_wfregistration&#45;&gt;anat_norm_wftpl_moving -->
<g id="edge20" class="edge">
<title>anat_norm_wfregistration:e&#45;&gt;anat_norm_wftpl_moving:w</title>
<path fill="none" stroke="#000000" d="M536.2723,-686.5C551.7167,-686.5 546.7352,-628.3603 536.2723,-617 470.2607,-545.3268 165.2838,-652.6732 99.2723,-581 77.3214,-557.1664 65.6575,-510.7574 89.3689,-501.2332"/>
<polygon fill="#000000" stroke="#000000" points="90.0254,-504.6715 99.2723,-499.5 88.8186,-497.7763 90.0254,-504.6715"/>
</g>
<!-- anat_norm_wfregistration&#45;&gt;anat_norm_wfpoutputnode -->
<g id="edge16" class="edge">
<title>anat_norm_wfregistration:e&#45;&gt;anat_norm_wfpoutputnode:w</title>
<path fill="none" stroke="#000000" d="M536.2723,-686.5C551.7167,-686.5 542.2802,-631.228 536.2723,-617 527.3471,-595.8633 508.1975,-602.1367 499.2723,-581 483.1935,-542.9222 471.9731,-519.0354 499.2723,-488 538.3596,-443.5632 951.5745,-419.1517 1041.2178,-417.1359"/>
<polygon fill="#000000" stroke="#000000" points="1041.3205,-420.6349 1051.2723,-417 1041.2259,-413.6355 1041.3205,-420.6349"/>
</g>
<!-- anat_norm_wfregistration&#45;&gt;anat_norm_wfpoutputnode -->
<g id="edge21" class="edge">
<title>anat_norm_wfregistration:e&#45;&gt;anat_norm_wfpoutputnode:w</title>
<path fill="none" stroke="#000000" d="M536.2723,-640.5C546.7167,-640.5 536.8499,-627.4285 536.2723,-617 533.1002,-559.7269 496.4485,-532.7987 532.2723,-488 604.0905,-398.1893 915.3546,-372.3994 1041.1152,-371.0562"/>
<polygon fill="#000000" stroke="#000000" points="1041.2918,-374.5554 1051.2723,-371 1041.253,-367.5555 1041.2918,-374.5554"/>
</g>
<!-- anat_norm_wfstd_tpms&#45;&gt;anat_norm_wfpoutputnode -->
<g id="edge30" class="edge">
<title>anat_norm_wfstd_tpms:e&#45;&gt;anat_norm_wfpoutputnode:w</title>
<path fill="none" stroke="#000000" d="M1582.2723,-511.5C1592.7167,-511.5 1589.4035,-495.631 1582.2723,-488 1501.5201,-401.5877 1132.0245,-538.4123 1051.2723,-452 1008.2433,-405.9551 986.9916,-312.9215 1041.1123,-302.8836"/>
<polygon fill="#000000" stroke="#000000" points="1041.6132,-306.3534 1051.2723,-302 1041.0066,-299.3797 1041.6132,-306.3534"/>
</g>
<!-- anat_norm_wfstd_dseg&#45;&gt;anat_norm_wfpoutputnode -->
<g id="edge28" class="edge">
<title>anat_norm_wfstd_dseg:e&#45;&gt;anat_norm_wfpoutputnode:w</title>
<path fill="none" stroke="#000000" d="M873.2723,-511.5C884.623,-511.5 876.5011,-497.1099 883.2723,-488 939.158,-412.8125 953.0923,-352.5009 1041.0609,-348.2406"/>
<polygon fill="#000000" stroke="#000000" points="1041.3576,-351.7347 1051.2723,-348 1041.1926,-344.7367 1041.3576,-351.7347"/>
</g>
<!-- anat_norm_wfstd_mask&#45;&gt;anat_norm_wfpoutputnode -->
<g id="edge29" class="edge">
<title>anat_norm_wfstd_mask:e&#45;&gt;anat_norm_wfpoutputnode:w</title>
<path fill="none" stroke="#000000" d="M1229.2723,-511.5C1239.7167,-511.5 1235.8852,-496.0843 1229.2723,-488 1178.1687,-425.5261 1102.3759,-514.4739 1051.2723,-452 1017.8377,-411.1264 997.5595,-335.5747 1041.3031,-326.0054"/>
<polygon fill="#000000" stroke="#000000" points="1041.674,-329.4858 1051.2723,-325 1040.9715,-322.5211 1041.674,-329.4858"/>
</g>
<!-- anat_norm_wftpl_moving&#45;&gt;anat_norm_wfpoutputnode -->
<g id="edge35" class="edge">
<title>anat_norm_wftpl_moving:e&#45;&gt;anat_norm_wfpoutputnode:w</title>
<path fill="none" stroke="#000000" d="M447.2723,-511.5C459.4297,-511.5 451.2093,-494.8219 461.2723,-488 568.4822,-415.3203 901.689,-394.985 1041.1712,-394.0354"/>
<polygon fill="#000000" stroke="#000000" points="1041.2846,-397.5351 1051.2723,-394 1041.2601,-390.5352 1041.2846,-397.5351"/>
</g>
<!-- anat_norm_wfoutputnode -->
<g id="node11" class="node">
<title>anat_norm_wfoutputnode</title>
<polygon fill="none" stroke="#000000" points="1401.7723,-.5 1401.7723,-207.5 1670.7723,-207.5 1670.7723,-.5 1401.7723,-.5"/>
<text text-anchor="middle" x="1462.2723" y="-192.3" font-family="Times,serif" font-size="14.00" fill="#000000">IN</text>
<polyline fill="none" stroke="#000000" points="1401.7723,-184.5 1522.7723,-184.5 "/>
<text text-anchor="middle" x="1462.2723" y="-169.3" font-family="Times,serif" font-size="14.00" fill="#000000">anat2std_xfm</text>
<polyline fill="none" stroke="#000000" points="1401.7723,-161.5 1522.7723,-161.5 "/>
<text text-anchor="middle" x="1462.2723" y="-146.3" font-family="Times,serif" font-size="14.00" fill="#000000">standardized</text>
<polyline fill="none" stroke="#000000" points="1401.7723,-138.5 1522.7723,-138.5 "/>
<text text-anchor="middle" x="1462.2723" y="-123.3" font-family="Times,serif" font-size="14.00" fill="#000000">std2anat_xfm</text>
<polyline fill="none" stroke="#000000" points="1401.7723,-115.5 1522.7723,-115.5 "/>
<text text-anchor="middle" x="1462.2723" y="-100.3" font-family="Times,serif" font-size="14.00" fill="#000000">std_dseg</text>
<polyline fill="none" stroke="#000000" points="1401.7723,-92.5 1522.7723,-92.5 "/>
<text text-anchor="middle" x="1462.2723" y="-77.3" font-family="Times,serif" font-size="14.00" fill="#000000">std_mask</text>
<polyline fill="none" stroke="#000000" points="1401.7723,-69.5 1522.7723,-69.5 "/>
<text text-anchor="middle" x="1462.2723" y="-54.3" font-family="Times,serif" font-size="14.00" fill="#000000">std_tpms</text>
<polyline fill="none" stroke="#000000" points="1401.7723,-46.5 1522.7723,-46.5 "/>
<text text-anchor="middle" x="1462.2723" y="-31.3" font-family="Times,serif" font-size="14.00" fill="#000000">template</text>
<polyline fill="none" stroke="#000000" points="1401.7723,-23.5 1522.7723,-23.5 "/>
<text text-anchor="middle" x="1462.2723" y="-8.3" font-family="Times,serif" font-size="14.00" fill="#000000">template_spec</text>
<polyline fill="none" stroke="#000000" points="1522.7723,-.5 1522.7723,-207.5 "/>
<text text-anchor="middle" x="1571.7723" y="-169.3" font-family="Times,serif" font-size="14.00" fill="#000000">outputnode</text>
<polyline fill="none" stroke="#000000" points="1522.7723,-138.5 1620.7723,-138.5 "/>
<text text-anchor="middle" x="1571.7723" y="-100.3" font-family="Times,serif" font-size="14.00" fill="#000000">utility</text>
<polyline fill="none" stroke="#000000" points="1522.7723,-69.5 1620.7723,-69.5 "/>
<text text-anchor="middle" x="1571.7723" y="-31.3" font-family="Times,serif" font-size="14.00" fill="#000000"> </text>
<polyline fill="none" stroke="#000000" points="1620.7723,-.5 1620.7723,-207.5 "/>
<text text-anchor="middle" x="1645.7723" y="-100.3" font-family="Times,serif" font-size="14.00" fill="#000000">OUT</text>
</g>
<!-- anat_norm_wfpoutputnode&#45;&gt;anat_norm_wfoutputnode -->
<g id="edge8" class="edge">
<title>anat_norm_wfpoutputnode:e&#45;&gt;anat_norm_wfoutputnode:w</title>
<path fill="none" stroke="#000000" d="M1401.2723,-417C1401.2723,-417 1401.2723,-229.3526 1401.2723,-183.1737"/>
<polygon fill="#000000" stroke="#000000" points="1404.7724,-183 1401.2723,-173 1397.7724,-183 1404.7724,-183"/>
</g>
<!-- anat_norm_wfpoutputnode&#45;&gt;anat_norm_wfoutputnode -->
<g id="edge9" class="edge">
<title>anat_norm_wfpoutputnode:e&#45;&gt;anat_norm_wfoutputnode:w</title>
<path fill="none" stroke="#000000" d="M1401.2723,-394C1401.2723,-394 1401.2723,-206.3526 1401.2723,-160.1737"/>
<polygon fill="#000000" stroke="#000000" points="1404.7724,-160 1401.2723,-150 1397.7724,-160 1404.7724,-160"/>
</g>
<!-- anat_norm_wfpoutputnode&#45;&gt;anat_norm_wfoutputnode -->
<g id="edge10" class="edge">
<title>anat_norm_wfpoutputnode:e&#45;&gt;anat_norm_wfoutputnode:w</title>
<path fill="none" stroke="#000000" d="M1401.2723,-371C1401.2723,-371 1401.2723,-183.3526 1401.2723,-137.1737"/>
<polygon fill="#000000" stroke="#000000" points="1404.7724,-137 1401.2723,-127 1397.7724,-137 1404.7724,-137"/>
</g>
<!-- anat_norm_wfpoutputnode&#45;&gt;anat_norm_wfoutputnode -->
<g id="edge11" class="edge">
<title>anat_norm_wfpoutputnode:e&#45;&gt;anat_norm_wfoutputnode:w</title>
<path fill="none" stroke="#000000" d="M1401.2723,-348C1506.0101,-348 1307.2742,-120.3946 1391.2667,-104.8357"/>
<polygon fill="#000000" stroke="#000000" points="1391.5983,-108.3203 1401.2723,-104 1391.0156,-101.3445 1391.5983,-108.3203"/>
</g>
<!-- anat_norm_wfpoutputnode&#45;&gt;anat_norm_wfoutputnode -->
<g id="edge12" class="edge">
<title>anat_norm_wfpoutputnode:e&#45;&gt;anat_norm_wfoutputnode:w</title>
<path fill="none" stroke="#000000" d="M1401.2723,-325C1401.2723,-325 1401.2723,-137.3526 1401.2723,-91.1737"/>
<polygon fill="#000000" stroke="#000000" points="1404.7724,-91 1401.2723,-81 1397.7724,-91 1404.7724,-91"/>
</g>
<!-- anat_norm_wfpoutputnode&#45;&gt;anat_norm_wfoutputnode -->
<g id="edge13" class="edge">
<title>anat_norm_wfpoutputnode:e&#45;&gt;anat_norm_wfoutputnode:w</title>
<path fill="none" stroke="#000000" d="M1401.2723,-302C1401.2723,-302 1401.2723,-114.3526 1401.2723,-68.1737"/>
<polygon fill="#000000" stroke="#000000" points="1404.7724,-68 1401.2723,-58 1397.7724,-68 1404.7724,-68"/>
</g>
<!-- anat_norm_wfpoutputnode&#45;&gt;anat_norm_wfoutputnode -->
<g id="edge14" class="edge">
<title>anat_norm_wfpoutputnode:e&#45;&gt;anat_norm_wfoutputnode:w</title>
<path fill="none" stroke="#000000" d="M1401.2723,-279C1401.2723,-279 1401.2723,-91.3526 1401.2723,-45.1737"/>
<polygon fill="#000000" stroke="#000000" points="1404.7724,-45 1401.2723,-35 1397.7724,-45 1404.7724,-45"/>
</g>
<!-- anat_norm_wfpoutputnode&#45;&gt;anat_norm_wfoutputnode -->
<g id="edge15" class="edge">
<title>anat_norm_wfpoutputnode:e&#45;&gt;anat_norm_wfoutputnode:w</title>
<path fill="none" stroke="#000000" d="M1401.2723,-256C1401.2723,-256 1401.2723,-68.3526 1401.2723,-22.1737"/>
<polygon fill="#000000" stroke="#000000" points="1404.7724,-22 1401.2723,-12 1397.7724,-22 1404.7724,-22"/>
</g>
</g>
</svg>
