<?xml version="1.0" encoding="UTF-8" standalone="no"?>
<!DOCTYPE svg PUBLIC "-//W3C//DTD SVG 1.1//EN"
 "http://www.w3.org/Graphics/SVG/1.1/DTD/svg11.dtd">
<!-- Generated by graphviz version 2.40.1 (20161225.0304)
 -->
<!-- Title: %3 Pages: 1 -->
<svg width="749pt" height="836pt"
 viewBox="0.00 0.00 748.99 836.00" xmlns="http://www.w3.org/2000/svg" xmlns:xlink="http://www.w3.org/1999/xlink">
<g id="graph0" class="graph" transform="scale(1 1) rotate(0) translate(4 832)">
<title>%3</title>
<polygon fill="#ffffff" stroke="transparent" points="-4,4 -4,-832 744.9908,-832 744.9908,4 -4,4"/>
<!-- outputnode (utility) -->
<g id="node1" class="node">
<title>outputnode (utility)</title>
<ellipse fill="none" stroke="#000000" cx="459.9908" cy="-90" rx="101.2821" ry="18"/>
<text text-anchor="middle" x="459.9908" y="-86.3" font-family="Times,serif" font-size="14.00" fill="#000000">outputnode (utility)</text>
</g>
<!-- anat_reports_wf -->
<g id="node2" class="node">
<title>anat_reports_wf</title>
<ellipse fill="none" stroke="#000000" cx="588.9908" cy="-18" rx="86.3847" ry="18"/>
<text text-anchor="middle" x="588.9908" y="-14.3" font-family="Times,serif" font-size="14.00" fill="#000000">anat_reports_wf</text>
</g>
<!-- outputnode (utility)&#45;&gt;anat_reports_wf -->
<g id="edge1" class="edge">
<title>outputnode (utility)&#45;&gt;anat_reports_wf</title>
<path fill="none" stroke="#000000" d="M490.8895,-72.7542C508.4409,-62.9581 530.5977,-50.5915 549.4116,-40.0907"/>
<polygon fill="#000000" stroke="#000000" points="551.318,-43.035 558.3442,-35.1051 547.9064,-36.9226 551.318,-43.035"/>
</g>
<!-- anat_derivatives_wf -->
<g id="node3" class="node">
<title>anat_derivatives_wf</title>
<ellipse fill="none" stroke="#000000" cx="103.9908" cy="-18" rx="103.9815" ry="18"/>
<text text-anchor="middle" x="103.9908" y="-14.3" font-family="Times,serif" font-size="14.00" fill="#000000">anat_derivatives_wf</text>
</g>
<!-- outputnode (utility)&#45;&gt;anat_derivatives_wf -->
<g id="edge2" class="edge">
<title>outputnode (utility)&#45;&gt;anat_derivatives_wf</title>
<path fill="none" stroke="#000000" d="M393.0299,-76.4574C332.9972,-64.3159 244.9082,-46.5002 181.7723,-33.7311"/>
<polygon fill="#000000" stroke="#000000" points="182.3572,-30.2786 171.8618,-31.7267 180.9695,-37.1397 182.3572,-30.2786"/>
</g>
<!-- buffernode (utility) -->
<g id="node4" class="node">
<title>buffernode (utility)</title>
<ellipse fill="none" stroke="#000000" cx="336.9908" cy="-378" rx="98.5829" ry="18"/>
<text text-anchor="middle" x="336.9908" y="-374.3" font-family="Times,serif" font-size="14.00" fill="#000000">buffernode (utility)</text>
</g>
<!-- buffernode (utility)&#45;&gt;outputnode (utility) -->
<g id="edge4" class="edge">
<title>buffernode (utility)&#45;&gt;outputnode (utility)</title>
<path fill="none" stroke="#000000" d="M369.5564,-360.9532C386.2303,-351.3568 406.2716,-338.417 421.9908,-324 451.6673,-296.7818 461.489,-289.1648 476.9908,-252 495.5481,-207.5098 498.0661,-190.9158 486.9908,-144 484.8212,-134.8094 480.8346,-125.3995 476.5787,-117.0631"/>
<polygon fill="#000000" stroke="#000000" points="479.5964,-115.286 471.7416,-108.1759 473.448,-118.6324 479.5964,-115.286"/>
</g>
<!-- t1w_dseg (fsl) -->
<g id="node5" class="node">
<title>t1w_dseg (fsl)</title>
<ellipse fill="none" stroke="#000000" cx="336.9908" cy="-306" rx="76.0865" ry="18"/>
<text text-anchor="middle" x="336.9908" y="-302.3" font-family="Times,serif" font-size="14.00" fill="#000000">t1w_dseg (fsl)</text>
</g>
<!-- buffernode (utility)&#45;&gt;t1w_dseg (fsl) -->
<g id="edge3" class="edge">
<title>buffernode (utility)&#45;&gt;t1w_dseg (fsl)</title>
<path fill="none" stroke="#000000" d="M336.9908,-359.8314C336.9908,-352.131 336.9908,-342.9743 336.9908,-334.4166"/>
<polygon fill="#000000" stroke="#000000" points="340.4909,-334.4132 336.9908,-324.4133 333.4909,-334.4133 340.4909,-334.4132"/>
</g>
<!-- anat_norm_wf -->
<g id="node6" class="node">
<title>anat_norm_wf</title>
<ellipse fill="none" stroke="#000000" cx="184.9908" cy="-162" rx="76.8869" ry="18"/>
<text text-anchor="middle" x="184.9908" y="-158.3" font-family="Times,serif" font-size="14.00" fill="#000000">anat_norm_wf</text>
</g>
<!-- buffernode (utility)&#45;&gt;anat_norm_wf -->
<g id="edge5" class="edge">
<title>buffernode (utility)&#45;&gt;anat_norm_wf</title>
<path fill="none" stroke="#000000" d="M303.5164,-360.9769C267.8654,-340.6486 213.7691,-302.9001 192.9908,-252 185.0117,-232.4539 183.2111,-208.5847 183.298,-190.3402"/>
<polygon fill="#000000" stroke="#000000" points="186.7974,-190.4032 183.5348,-180.3233 179.7994,-190.2377 186.7974,-190.4032"/>
</g>
<!-- t1w_dseg (fsl)&#45;&gt;outputnode (utility) -->
<g id="edge7" class="edge">
<title>t1w_dseg (fsl)&#45;&gt;outputnode (utility)</title>
<path fill="none" stroke="#000000" d="M394.2753,-294.076C417.4343,-286.1725 441.9649,-273.188 455.9908,-252 482.66,-211.7124 475.3479,-152.5739 467.6446,-118.0067"/>
<polygon fill="#000000" stroke="#000000" points="471.0091,-117.0272 465.2785,-108.1159 464.2012,-118.6558 471.0091,-117.0272"/>
</g>
<!-- t1w_dseg (fsl)&#45;&gt;anat_norm_wf -->
<g id="edge8" class="edge">
<title>t1w_dseg (fsl)&#45;&gt;anat_norm_wf</title>
<path fill="none" stroke="#000000" d="M285.5106,-292.6288C262.2305,-284.2966 235.9707,-271.3728 217.9908,-252 202.0607,-234.8358 193.6728,-209.3497 189.3486,-189.8756"/>
<polygon fill="#000000" stroke="#000000" points="192.776,-189.1656 187.3907,-180.0415 185.9108,-190.5325 192.776,-189.1656"/>
</g>
<!-- lut_t1w_dseg (utility) -->
<g id="node7" class="node">
<title>lut_t1w_dseg (utility)</title>
<ellipse fill="none" stroke="#000000" cx="336.9908" cy="-234" rx="110.4804" ry="18"/>
<text text-anchor="middle" x="336.9908" y="-230.3" font-family="Times,serif" font-size="14.00" fill="#000000">lut_t1w_dseg (utility)</text>
</g>
<!-- t1w_dseg (fsl)&#45;&gt;lut_t1w_dseg (utility) -->
<g id="edge6" class="edge">
<title>t1w_dseg (fsl)&#45;&gt;lut_t1w_dseg (utility)</title>
<path fill="none" stroke="#000000" d="M336.9908,-287.8314C336.9908,-280.131 336.9908,-270.9743 336.9908,-262.4166"/>
<polygon fill="#000000" stroke="#000000" points="340.4909,-262.4132 336.9908,-252.4133 333.4909,-262.4133 340.4909,-262.4132"/>
</g>
<!-- anat_norm_wf&#45;&gt;outputnode (utility) -->
<g id="edge9" class="edge">
<title>anat_norm_wf&#45;&gt;outputnode (utility)</title>
<path fill="none" stroke="#000000" d="M236.3936,-148.5418C280.6071,-136.9659 344.694,-120.1868 392.9333,-107.5569"/>
<polygon fill="#000000" stroke="#000000" points="393.8786,-110.9274 402.6661,-105.0087 392.1056,-104.1557 393.8786,-110.9274"/>
</g>
<!-- anat_norm_wf&#45;&gt;anat_reports_wf -->
<g id="edge10" class="edge">
<title>anat_norm_wf&#45;&gt;anat_reports_wf</title>
<path fill="none" stroke="#000000" d="M210.7712,-144.9831C242.3589,-124.8444 298.0907,-91.5815 349.9908,-72 401.3609,-52.6185 461.6842,-39.0539 508.8748,-30.3674"/>
<polygon fill="#000000" stroke="#000000" points="509.518,-33.8079 518.7374,-28.5875 508.2748,-26.9192 509.518,-33.8079"/>
</g>
<!-- anat_norm_wf&#45;&gt;anat_derivatives_wf -->
<g id="edge11" class="edge">
<title>anat_norm_wf&#45;&gt;anat_derivatives_wf</title>
<path fill="none" stroke="#000000" d="M174.8958,-144.0535C160.8899,-119.154 135.4511,-73.9295 119.1561,-44.9606"/>
<polygon fill="#000000" stroke="#000000" points="122.1661,-43.1725 114.2129,-36.1727 116.0651,-46.6044 122.1661,-43.1725"/>
</g>
<!-- lut_t1w_dseg (utility)&#45;&gt;outputnode (utility) -->
<g id="edge12" class="edge">
<title>lut_t1w_dseg (utility)&#45;&gt;outputnode (utility)</title>
<path fill="none" stroke="#000000" d="M352.3201,-216.0535C373.8646,-190.8306 413.2239,-144.7514 437.9189,-115.8403"/>
<polygon fill="#000000" stroke="#000000" points="440.6347,-118.0497 444.4682,-108.1727 435.312,-113.5033 440.6347,-118.0497"/>
</g>
<!-- lut_t1w_dseg (utility)&#45;&gt;anat_norm_wf -->
<g id="edge13" class="edge">
<title>lut_t1w_dseg (utility)&#45;&gt;anat_norm_wf</title>
<path fill="none" stroke="#000000" d="M300.9689,-216.937C279.21,-206.6302 251.3393,-193.4283 228.373,-182.5495"/>
<polygon fill="#000000" stroke="#000000" points="229.7241,-179.3167 219.1884,-178.1989 226.7274,-185.6429 229.7241,-179.3167"/>
</g>
<!-- inputnode (utility) -->
<g id="node8" class="node">
<title>inputnode (utility)</title>
<ellipse fill="none" stroke="#000000" cx="448.9908" cy="-810" rx="94.7833" ry="18"/>
<text text-anchor="middle" x="448.9908" y="-806.3" font-family="Times,serif" font-size="14.00" fill="#000000">inputnode (utility)</text>
</g>
<!-- inputnode (utility)&#45;&gt;anat_reports_wf -->
<g id="edge16" class="edge">
<title>inputnode (utility)&#45;&gt;anat_reports_wf</title>
<path fill="none" stroke="#000000" d="M511.8367,-796.3993C546.1414,-787.5676 588.6919,-774.2649 623.9908,-756 682.2576,-725.8507 740.9908,-731.6049 740.9908,-666 740.9908,-666 740.9908,-666 740.9908,-162 740.9908,-103.5066 680.9354,-61.6531 636.3228,-38.6316"/>
<polygon fill="#000000" stroke="#000000" points="637.8562,-35.4853 627.3468,-34.1424 634.725,-41.7459 637.8562,-35.4853"/>
</g>
<!-- inputnode (utility)&#45;&gt;anat_norm_wf -->
<g id="edge15" class="edge">
<title>inputnode (utility)&#45;&gt;anat_norm_wf</title>
<path fill="none" stroke="#000000" d="M380.5252,-797.4208C275.0832,-776.0706 84.9908,-728.8628 84.9908,-666 84.9908,-666 84.9908,-666 84.9908,-522 84.9908,-393.8431 144.552,-249.0784 171.7406,-189.6721"/>
<polygon fill="#000000" stroke="#000000" points="175.0834,-190.783 176.1164,-180.2387 168.7334,-187.8374 175.0834,-190.783"/>
</g>
<!-- anat_template_wf -->
<g id="node9" class="node">
<title>anat_template_wf</title>
<ellipse fill="none" stroke="#000000" cx="520.9908" cy="-738" rx="93.6835" ry="18"/>
<text text-anchor="middle" x="520.9908" y="-734.3" font-family="Times,serif" font-size="14.00" fill="#000000">anat_template_wf</text>
</g>
<!-- inputnode (utility)&#45;&gt;anat_template_wf -->
<g id="edge14" class="edge">
<title>inputnode (utility)&#45;&gt;anat_template_wf</title>
<path fill="none" stroke="#000000" d="M466.7885,-792.2022C475.6156,-783.3752 486.4239,-772.5669 496.0601,-762.9307"/>
<polygon fill="#000000" stroke="#000000" points="498.552,-765.3885 503.1482,-755.8425 493.6022,-760.4388 498.552,-765.3885"/>
</g>
<!-- surface_recon_wf -->
<g id="node10" class="node">
<title>surface_recon_wf</title>
<ellipse fill="none" stroke="#000000" cx="376.9908" cy="-522" rx="92.8835" ry="18"/>
<text text-anchor="middle" x="376.9908" y="-518.3" font-family="Times,serif" font-size="14.00" fill="#000000">surface_recon_wf</text>
</g>
<!-- inputnode (utility)&#45;&gt;surface_recon_wf -->
<g id="edge17" class="edge">
<title>inputnode (utility)&#45;&gt;surface_recon_wf</title>
<path fill="none" stroke="#000000" d="M437.3165,-792.036C430.9999,-781.7747 423.4056,-768.498 417.9908,-756 387.7716,-686.2509 379.8136,-595.6475 377.7263,-550.3688"/>
<polygon fill="#000000" stroke="#000000" points="381.2139,-549.9839 377.3205,-540.1303 374.2194,-550.2611 381.2139,-549.9839"/>
</g>
<!-- anat_template_wf&#45;&gt;outputnode (utility) -->
<g id="edge19" class="edge">
<title>anat_template_wf&#45;&gt;outputnode (utility)</title>
<path fill="none" stroke="#000000" d="M582.4592,-724.3139C605.5126,-716.2261 629.9771,-703.5801 645.9908,-684 671.8724,-652.3543 664.9908,-634.8816 664.9908,-594 664.9908,-594 664.9908,-594 664.9908,-234 664.9908,-166.2265 589.037,-127.6065 529.5944,-107.7595"/>
<polygon fill="#000000" stroke="#000000" points="530.4278,-104.3509 519.8363,-104.6176 528.2824,-111.0141 530.4278,-104.3509"/>
</g>
<!-- anat_template_wf&#45;&gt;anat_reports_wf -->
<g id="edge20" class="edge">
<title>anat_template_wf&#45;&gt;anat_reports_wf</title>
<path fill="none" stroke="#000000" d="M590.3755,-725.7667C617.8128,-717.862 647.7906,-704.961 668.9908,-684 699.3971,-653.9368 702.9908,-636.7592 702.9908,-594 702.9908,-594 702.9908,-594 702.9908,-162 702.9908,-110.4121 657.4581,-66.5152 623.945,-41.1927"/>
<polygon fill="#000000" stroke="#000000" points="625.8529,-38.2516 615.7187,-35.1616 621.714,-43.897 625.8529,-38.2516"/>
</g>
<!-- anat_template_wf&#45;&gt;anat_derivatives_wf -->
<g id="edge21" class="edge">
<title>anat_template_wf&#45;&gt;anat_derivatives_wf</title>
<path fill="none" stroke="#000000" d="M438.7291,-729.402C293.9986,-709.2358 8.9908,-644.7941 8.9908,-450 8.9908,-450 8.9908,-450 8.9908,-162 8.9908,-113.8174 46.5071,-69.3255 74.388,-42.9135"/>
<polygon fill="#000000" stroke="#000000" points="76.9638,-45.2997 81.9571,-35.9553 72.2264,-40.1464 76.9638,-45.2997"/>
</g>
<!-- anat_validate (images) -->
<g id="node11" class="node">
<title>anat_validate (images)</title>
<ellipse fill="none" stroke="#000000" cx="520.9908" cy="-666" rx="116.1796" ry="18"/>
<text text-anchor="middle" x="520.9908" y="-662.3" font-family="Times,serif" font-size="14.00" fill="#000000">anat_validate (images)</text>
</g>
<!-- anat_template_wf&#45;&gt;anat_validate (images) -->
<g id="edge18" class="edge">
<title>anat_template_wf&#45;&gt;anat_validate (images)</title>
<path fill="none" stroke="#000000" d="M520.9908,-719.8314C520.9908,-712.131 520.9908,-702.9743 520.9908,-694.4166"/>
<polygon fill="#000000" stroke="#000000" points="524.4909,-694.4132 520.9908,-684.4133 517.4909,-694.4133 524.4909,-694.4132"/>
</g>
<!-- surface_recon_wf&#45;&gt;outputnode (utility) -->
<g id="edge23" class="edge">
<title>surface_recon_wf&#45;&gt;outputnode (utility)</title>
<path fill="none" stroke="#000000" d="M423.6196,-506.3711C475.1605,-485.7973 550.9908,-444.2675 550.9908,-378 550.9908,-378 550.9908,-378 550.9908,-234 550.9908,-186.1532 514.6445,-141.2687 487.8928,-114.7127"/>
<polygon fill="#000000" stroke="#000000" points="490.2688,-112.1416 480.6401,-107.7213 485.4107,-117.1814 490.2688,-112.1416"/>
</g>
<!-- surface_recon_wf&#45;&gt;anat_reports_wf -->
<g id="edge25" class="edge">
<title>surface_recon_wf&#45;&gt;anat_reports_wf</title>
<path fill="none" stroke="#000000" d="M437.7415,-508.3431C500.3871,-490.2468 588.9908,-451.6363 588.9908,-378 588.9908,-378 588.9908,-378 588.9908,-162 588.9908,-121.876 588.9908,-75.4631 588.9908,-46.4177"/>
<polygon fill="#000000" stroke="#000000" points="592.4909,-46.1853 588.9908,-36.1854 585.4909,-46.1854 592.4909,-46.1853"/>
</g>
<!-- surface_recon_wf&#45;&gt;anat_derivatives_wf -->
<g id="edge26" class="edge">
<title>surface_recon_wf&#45;&gt;anat_derivatives_wf</title>
<path fill="none" stroke="#000000" d="M300.4413,-511.676C246.0992,-502.7831 179.4728,-488.1796 159.9908,-468 45.8794,-349.8027 80.5968,-125.2792 97.3283,-46.3214"/>
<polygon fill="#000000" stroke="#000000" points="100.8305,-46.6898 99.5524,-36.1724 93.9928,-45.1913 100.8305,-46.6898"/>
</g>
<!-- surface_recon_wf&#45;&gt;buffernode (utility) -->
<g id="edge24" class="edge">
<title>surface_recon_wf&#45;&gt;buffernode (utility)</title>
<path fill="none" stroke="#000000" d="M374.056,-503.8543C370.8828,-485.5222 365.2843,-456.488 357.9908,-432 355.3904,-423.2694 352.0018,-413.9579 348.7081,-405.5693"/>
<polygon fill="#000000" stroke="#000000" points="351.9286,-404.1969 344.938,-396.2356 345.4381,-406.8187 351.9286,-404.1969"/>
</g>
<!-- applyrefined (fsl) -->
<g id="node13" class="node">
<title>applyrefined (fsl)</title>
<ellipse fill="none" stroke="#000000" cx="258.9908" cy="-450" rx="90.1842" ry="18"/>
<text text-anchor="middle" x="258.9908" y="-446.3" font-family="Times,serif" font-size="14.00" fill="#000000">applyrefined (fsl)</text>
</g>
<!-- surface_recon_wf&#45;&gt;applyrefined (fsl) -->
<g id="edge22" class="edge">
<title>surface_recon_wf&#45;&gt;applyrefined (fsl)</title>
<path fill="none" stroke="#000000" d="M348.7268,-504.7542C332.9341,-495.118 313.0652,-482.9945 296.0401,-472.6064"/>
<polygon fill="#000000" stroke="#000000" points="297.7925,-469.5756 287.4331,-467.3546 294.1464,-475.5511 297.7925,-469.5756"/>
</g>
<!-- anat_validate (images)&#45;&gt;surface_recon_wf -->
<g id="edge28" class="edge">
<title>anat_validate (images)&#45;&gt;surface_recon_wf</title>
<path fill="none" stroke="#000000" d="M503.0442,-648.0535C477.5752,-622.5844 430.8406,-575.8499 401.9894,-546.9986"/>
<polygon fill="#000000" stroke="#000000" points="404.2571,-544.3166 394.7111,-539.7204 399.3073,-549.2663 404.2571,-544.3166"/>
</g>
<!-- brain_extraction_wf -->
<g id="node12" class="node">
<title>brain_extraction_wf</title>
<ellipse fill="none" stroke="#000000" cx="244.9908" cy="-594" rx="103.9815" ry="18"/>
<text text-anchor="middle" x="244.9908" y="-590.3" font-family="Times,serif" font-size="14.00" fill="#000000">brain_extraction_wf</text>
</g>
<!-- anat_validate (images)&#45;&gt;brain_extraction_wf -->
<g id="edge27" class="edge">
<title>anat_validate (images)&#45;&gt;brain_extraction_wf</title>
<path fill="none" stroke="#000000" d="M461.4427,-650.4657C417.5946,-639.0271 357.923,-623.4606 312.337,-611.5686"/>
<polygon fill="#000000" stroke="#000000" points="313.1013,-608.1509 302.5416,-609.0133 311.3343,-614.9242 313.1013,-608.1509"/>
</g>
<!-- brain_extraction_wf&#45;&gt;outputnode (utility) -->
<g id="edge29" class="edge">
<title>brain_extraction_wf&#45;&gt;outputnode (utility)</title>
<path fill="none" stroke="#000000" d="M320.0059,-581.4552C431.2545,-560.6942 626.9908,-514.9392 626.9908,-450 626.9908,-450 626.9908,-450 626.9908,-234 626.9908,-173.2188 562.7575,-132.4421 513.9641,-110.2352"/>
<polygon fill="#000000" stroke="#000000" points="515.306,-107.0018 504.7437,-106.1725 512.4835,-113.4076 515.306,-107.0018"/>
</g>
<!-- brain_extraction_wf&#45;&gt;anat_norm_wf -->
<g id="edge30" class="edge">
<title>brain_extraction_wf&#45;&gt;anat_norm_wf</title>
<path fill="none" stroke="#000000" d="M187.721,-578.9347C129.244,-559.6804 46.9908,-520.1326 46.9908,-450 46.9908,-450 46.9908,-450 46.9908,-378 46.9908,-297.6914 115.5717,-223.2668 156.0404,-186.3408"/>
<polygon fill="#000000" stroke="#000000" points="158.6088,-188.7394 163.7307,-179.4649 153.943,-183.521 158.6088,-188.7394"/>
</g>
<!-- brain_extraction_wf&#45;&gt;surface_recon_wf -->
<g id="edge31" class="edge">
<title>brain_extraction_wf&#45;&gt;surface_recon_wf</title>
<path fill="none" stroke="#000000" d="M276.6081,-576.7542C294.6493,-566.9136 317.4459,-554.479 336.7535,-543.9476"/>
<polygon fill="#000000" stroke="#000000" points="338.5285,-546.9663 345.6315,-539.1051 335.1765,-540.821 338.5285,-546.9663"/>
</g>
<!-- brain_extraction_wf&#45;&gt;applyrefined (fsl) -->
<g id="edge32" class="edge">
<title>brain_extraction_wf&#45;&gt;applyrefined (fsl)</title>
<path fill="none" stroke="#000000" d="M246.7639,-575.7623C249.1518,-551.201 253.4251,-507.2474 256.2341,-478.3541"/>
<polygon fill="#000000" stroke="#000000" points="259.7479,-478.3814 257.2321,-468.0896 252.7807,-477.704 259.7479,-478.3814"/>
</g>
<!-- applyrefined (fsl)&#45;&gt;buffernode (utility) -->
<g id="edge33" class="edge">
<title>applyrefined (fsl)&#45;&gt;buffernode (utility)</title>
<path fill="none" stroke="#000000" d="M278.2717,-432.2022C287.928,-423.2887 299.7731,-412.3548 310.2892,-402.6476"/>
<polygon fill="#000000" stroke="#000000" points="312.6873,-405.1972 317.6613,-395.8425 307.9393,-400.0536 312.6873,-405.1972"/>
</g>
</g>
</svg>
